%TF.GenerationSoftware,KiCad,Pcbnew,5.1.9+dfsg1-1~bpo10+1*%
%TF.CreationDate,2021-10-31T09:49:58+01:00*%
%TF.ProjectId,multi,6d756c74-692e-46b6-9963-61645f706362,rev?*%
%TF.SameCoordinates,Original*%
%TF.FileFunction,Soldermask,Top*%
%TF.FilePolarity,Negative*%
%FSLAX46Y46*%
G04 Gerber Fmt 4.6, Leading zero omitted, Abs format (unit mm)*
G04 Created by KiCad (PCBNEW 5.1.9+dfsg1-1~bpo10+1) date 2021-10-31 09:49:58*
%MOMM*%
%LPD*%
G01*
G04 APERTURE LIST*
%ADD10O,3.200000X3.200000*%
%ADD11O,1.800000X2.600000*%
%ADD12C,2.200000*%
%ADD13O,4.000000X2.200000*%
%ADD14O,2.200000X4.000000*%
%ADD15C,2.499360*%
%ADD16R,2.286000X1.574800*%
%ADD17O,2.286000X1.574800*%
%ADD18C,2.000000*%
%ADD19C,4.500000*%
G04 APERTURE END LIST*
D10*
%TO.C,KNOB6*%
X185102500Y-93268800D03*
X175577500Y-93268800D03*
D11*
X182880000Y-100330000D03*
X180340000Y-100330000D03*
X177800000Y-100330000D03*
%TD*%
D10*
%TO.C,KNOB5*%
X171132500Y-93268800D03*
X161607500Y-93268800D03*
D11*
X168910000Y-100330000D03*
X166370000Y-100330000D03*
X163830000Y-100330000D03*
%TD*%
D10*
%TO.C,KNOB4*%
X157162500Y-93268800D03*
X147637500Y-93268800D03*
D11*
X154940000Y-100330000D03*
X152400000Y-100330000D03*
X149860000Y-100330000D03*
%TD*%
D10*
%TO.C,KNOB3*%
X143192500Y-93268800D03*
X133667500Y-93268800D03*
D11*
X140970000Y-100330000D03*
X138430000Y-100330000D03*
X135890000Y-100330000D03*
%TD*%
D10*
%TO.C,KNOB2*%
X129222500Y-93268800D03*
X119697500Y-93268800D03*
D11*
X127000000Y-100330000D03*
X124460000Y-100330000D03*
X121920000Y-100330000D03*
%TD*%
D10*
%TO.C,KNOB1*%
X115252500Y-93268800D03*
X105727500Y-93268800D03*
D11*
X113030000Y-100330000D03*
X110490000Y-100330000D03*
X107950000Y-100330000D03*
%TD*%
D12*
%TO.C,R1*%
X132080000Y-109220000D03*
X132080000Y-116840000D03*
%TD*%
%TO.C,R2*%
X172720000Y-82550000D03*
X180340000Y-82550000D03*
%TD*%
%TO.C,R3*%
X167640000Y-82550000D03*
X160020000Y-82550000D03*
%TD*%
%TO.C,R4*%
X124460000Y-82550000D03*
X116840000Y-82550000D03*
%TD*%
%TO.C,R5*%
X182880000Y-107315000D03*
X182880000Y-114935000D03*
%TD*%
%TO.C,R6*%
X165100000Y-121285000D03*
X157480000Y-121285000D03*
%TD*%
D13*
%TO.C,J3*%
X145260000Y-120105000D03*
D14*
X140060000Y-112105000D03*
X142760000Y-113305000D03*
D13*
X149360000Y-108905000D03*
D14*
X149860000Y-116205000D03*
%TD*%
D12*
%TO.C,PB2*%
X175895000Y-118110000D03*
X170815000Y-118110000D03*
X175895000Y-113030000D03*
X170855000Y-113070000D03*
%TD*%
%TO.C,PB1*%
X120015000Y-118110000D03*
X114935000Y-118110000D03*
X120015000Y-113030000D03*
X114975000Y-113070000D03*
%TD*%
D15*
%TO.C,J2*%
X175260000Y-66675000D03*
X165100000Y-66675000D03*
X175260000Y-79375000D03*
X162560000Y-76835000D03*
X170180000Y-76835000D03*
X165100000Y-79375000D03*
X177800000Y-76835000D03*
%TD*%
D16*
%TO.C,U2*%
X137795000Y-67310000D03*
D17*
X137795000Y-69850000D03*
X137795000Y-72390000D03*
X137795000Y-74930000D03*
X137795000Y-77470000D03*
X137795000Y-80010000D03*
X137795000Y-82550000D03*
X153035000Y-82550000D03*
X153035000Y-80010000D03*
X153035000Y-77470000D03*
X153035000Y-74930000D03*
X153035000Y-72390000D03*
X153035000Y-69850000D03*
X153035000Y-67310000D03*
%TD*%
D18*
%TO.C,C2*%
X125730000Y-120015000D03*
X128270000Y-120015000D03*
%TD*%
%TO.C,D1*%
X153670000Y-108585000D03*
X153670000Y-113665000D03*
%TD*%
D19*
%TO.C,HOLE2*%
X106680000Y-67310000D03*
%TD*%
%TO.C,HOLE2*%
X106680000Y-119380000D03*
%TD*%
%TO.C,HOLE2*%
X184150000Y-119380000D03*
%TD*%
%TO.C,HOLE2*%
X184150000Y-67310000D03*
%TD*%
D12*
%TO.C,C1*%
X135890000Y-109220000D03*
X135890000Y-114300000D03*
%TD*%
D15*
%TO.C,J1*%
X125730000Y-66675000D03*
X115570000Y-66675000D03*
X125730000Y-79375000D03*
X113030000Y-76835000D03*
X120650000Y-76835000D03*
X115570000Y-79375000D03*
X128270000Y-76835000D03*
%TD*%
D17*
%TO.C,U1*%
X165100000Y-109855000D03*
X165100000Y-112395000D03*
X165100000Y-114935000D03*
X165100000Y-117475000D03*
X157480000Y-117475000D03*
X157480000Y-114935000D03*
X157480000Y-112395000D03*
D16*
X157480000Y-109855000D03*
%TD*%
M02*
