%TF.GenerationSoftware,KiCad,Pcbnew,5.1.9+dfsg1-1+deb11u1*%
%TF.CreationDate,2022-09-13T09:29:43+02:00*%
%TF.ProjectId,multi,6d756c74-692e-46b6-9963-61645f706362,rev?*%
%TF.SameCoordinates,Original*%
%TF.FileFunction,Copper,L1,Top*%
%TF.FilePolarity,Positive*%
%FSLAX46Y46*%
G04 Gerber Fmt 4.6, Leading zero omitted, Abs format (unit mm)*
G04 Created by KiCad (PCBNEW 5.1.9+dfsg1-1+deb11u1) date 2022-09-13 09:29:43*
%MOMM*%
%LPD*%
G01*
G04 APERTURE LIST*
%TA.AperFunction,ComponentPad*%
%ADD10O,3.200000X3.200000*%
%TD*%
%TA.AperFunction,ComponentPad*%
%ADD11O,1.800000X2.600000*%
%TD*%
%TA.AperFunction,ComponentPad*%
%ADD12C,2.200000*%
%TD*%
%TA.AperFunction,ComponentPad*%
%ADD13O,4.000000X2.200000*%
%TD*%
%TA.AperFunction,ComponentPad*%
%ADD14O,2.200000X4.000000*%
%TD*%
%TA.AperFunction,ComponentPad*%
%ADD15C,2.499360*%
%TD*%
%TA.AperFunction,ComponentPad*%
%ADD16R,2.286000X1.574800*%
%TD*%
%TA.AperFunction,ComponentPad*%
%ADD17O,2.286000X1.574800*%
%TD*%
%TA.AperFunction,ComponentPad*%
%ADD18C,2.000000*%
%TD*%
%TA.AperFunction,ComponentPad*%
%ADD19C,4.500000*%
%TD*%
%TA.AperFunction,ViaPad*%
%ADD20C,0.800000*%
%TD*%
%TA.AperFunction,Conductor*%
%ADD21C,0.250000*%
%TD*%
%TA.AperFunction,Conductor*%
%ADD22C,0.500000*%
%TD*%
%TA.AperFunction,Conductor*%
%ADD23C,0.254000*%
%TD*%
%TA.AperFunction,Conductor*%
%ADD24C,0.100000*%
%TD*%
G04 APERTURE END LIST*
D10*
%TO.P,KNOB6,5*%
%TO.N,N/C*%
X185102500Y-93268800D03*
%TO.P,KNOB6,4*%
X175577500Y-93268800D03*
D11*
%TO.P,KNOB6,3*%
%TO.N,+3V3*%
X182880000Y-100330000D03*
%TO.P,KNOB6,2*%
%TO.N,KNOB6*%
X180340000Y-100330000D03*
%TO.P,KNOB6,1*%
%TO.N,GND*%
X177800000Y-100330000D03*
%TD*%
D10*
%TO.P,KNOB5,5*%
%TO.N,N/C*%
X171132500Y-93268800D03*
%TO.P,KNOB5,4*%
X161607500Y-93268800D03*
D11*
%TO.P,KNOB5,3*%
%TO.N,+3V3*%
X168910000Y-100330000D03*
%TO.P,KNOB5,2*%
%TO.N,KNOB5*%
X166370000Y-100330000D03*
%TO.P,KNOB5,1*%
%TO.N,GND*%
X163830000Y-100330000D03*
%TD*%
D10*
%TO.P,KNOB4,5*%
%TO.N,N/C*%
X157162500Y-93268800D03*
%TO.P,KNOB4,4*%
X147637500Y-93268800D03*
D11*
%TO.P,KNOB4,3*%
%TO.N,+3V3*%
X154940000Y-100330000D03*
%TO.P,KNOB4,2*%
%TO.N,KNOB4*%
X152400000Y-100330000D03*
%TO.P,KNOB4,1*%
%TO.N,GND*%
X149860000Y-100330000D03*
%TD*%
D10*
%TO.P,KNOB3,5*%
%TO.N,N/C*%
X143192500Y-93268800D03*
%TO.P,KNOB3,4*%
X133667500Y-93268800D03*
D11*
%TO.P,KNOB3,3*%
%TO.N,+3V3*%
X140970000Y-100330000D03*
%TO.P,KNOB3,2*%
%TO.N,KNOB3*%
X138430000Y-100330000D03*
%TO.P,KNOB3,1*%
%TO.N,GND*%
X135890000Y-100330000D03*
%TD*%
D10*
%TO.P,KNOB2,5*%
%TO.N,N/C*%
X129222500Y-93268800D03*
%TO.P,KNOB2,4*%
X119697500Y-93268800D03*
D11*
%TO.P,KNOB2,3*%
%TO.N,+3V3*%
X127000000Y-100330000D03*
%TO.P,KNOB2,2*%
%TO.N,KNOB2*%
X124460000Y-100330000D03*
%TO.P,KNOB2,1*%
%TO.N,GND*%
X121920000Y-100330000D03*
%TD*%
D10*
%TO.P,KNOB1,5*%
%TO.N,N/C*%
X115252500Y-93268800D03*
%TO.P,KNOB1,4*%
X105727500Y-93268800D03*
D11*
%TO.P,KNOB1,3*%
%TO.N,+3V3*%
X113030000Y-100330000D03*
%TO.P,KNOB1,2*%
%TO.N,KNOB1*%
X110490000Y-100330000D03*
%TO.P,KNOB1,1*%
%TO.N,GND*%
X107950000Y-100330000D03*
%TD*%
D12*
%TO.P,R1,2*%
%TO.N,DAC*%
X132080000Y-109220000D03*
%TO.P,R1,1*%
%TO.N,Net-(C1-Pad1)*%
X132080000Y-116840000D03*
%TD*%
%TO.P,R2,2*%
%TO.N,TX*%
X172720000Y-82550000D03*
%TO.P,R2,1*%
%TO.N,Net-(J2-Pad5)*%
X180340000Y-82550000D03*
%TD*%
%TO.P,R3,2*%
%TO.N,Net-(J2-Pad4)*%
X167640000Y-82550000D03*
%TO.P,R3,1*%
%TO.N,+3V3*%
X160020000Y-82550000D03*
%TD*%
%TO.P,R4,2*%
%TO.N,Net-(J1-Pad4)*%
X124460000Y-82550000D03*
%TO.P,R4,1*%
%TO.N,Net-(D1-Pad1)*%
X116840000Y-82550000D03*
%TD*%
%TO.P,R5,2*%
%TO.N,Net-(R5-Pad2)*%
X182880000Y-107315000D03*
%TO.P,R5,1*%
%TO.N,GND*%
X182880000Y-114935000D03*
%TD*%
%TO.P,R6,2*%
%TO.N,+3V3*%
X165100000Y-121285000D03*
%TO.P,R6,1*%
%TO.N,RX*%
X157480000Y-121285000D03*
%TD*%
D13*
%TO.P,J3,G*%
%TO.N,GND*%
X145260000Y-120105000D03*
D14*
%TO.P,J3,S*%
%TO.N,Net-(C2-Pad1)*%
X140060000Y-112105000D03*
%TO.P,J3,SN*%
%TO.N,Net-(J3-PadSN)*%
X142760000Y-113305000D03*
D13*
%TO.P,J3,TN*%
%TO.N,Net-(J3-PadTN)*%
X149360000Y-108905000D03*
D14*
%TO.P,J3,T*%
%TO.N,Net-(C2-Pad1)*%
X149860000Y-116205000D03*
%TD*%
D12*
%TO.P,PB2,4*%
%TO.N,PB2*%
X175895000Y-118110000D03*
%TO.P,PB2,3*%
%TO.N,GND*%
X170815000Y-118110000D03*
%TO.P,PB2,2*%
%TO.N,PB2*%
X175895000Y-113030000D03*
%TO.P,PB2,1*%
%TO.N,GND*%
X170855000Y-113070000D03*
%TD*%
%TO.P,PB1,4*%
%TO.N,PB1*%
X120015000Y-118110000D03*
%TO.P,PB1,3*%
%TO.N,GND*%
X114935000Y-118110000D03*
%TO.P,PB1,2*%
%TO.N,PB1*%
X120015000Y-113030000D03*
%TO.P,PB1,1*%
%TO.N,GND*%
X114975000Y-113070000D03*
%TD*%
D15*
%TO.P,J2,*%
%TO.N,*%
X175260000Y-66675000D03*
X165100000Y-66675000D03*
%TO.P,J2,5*%
%TO.N,Net-(J2-Pad5)*%
X175260000Y-79375000D03*
%TO.P,J2,1*%
%TO.N,Net-(J2-Pad1)*%
X162560000Y-76835000D03*
%TO.P,J2,2*%
%TO.N,GND*%
X170180000Y-76835000D03*
%TO.P,J2,4*%
%TO.N,Net-(J2-Pad4)*%
X165100000Y-79375000D03*
%TO.P,J2,3*%
%TO.N,Net-(J2-Pad3)*%
X177800000Y-76835000D03*
%TD*%
D16*
%TO.P,U2,1*%
%TO.N,DAC*%
X137795000Y-67310000D03*
D17*
%TO.P,U2,2*%
%TO.N,KNOB1*%
X137795000Y-69850000D03*
%TO.P,U2,3*%
%TO.N,KNOB2*%
X137795000Y-72390000D03*
%TO.P,U2,4*%
%TO.N,KNOB3*%
X137795000Y-74930000D03*
%TO.P,U2,5*%
%TO.N,KNOB4*%
X137795000Y-77470000D03*
%TO.P,U2,6*%
%TO.N,KNOB5*%
X137795000Y-80010000D03*
%TO.P,U2,7*%
%TO.N,TX*%
X137795000Y-82550000D03*
%TO.P,U2,8*%
%TO.N,RX*%
X153035000Y-82550000D03*
%TO.P,U2,9*%
%TO.N,KNOB6*%
X153035000Y-80010000D03*
%TO.P,U2,10*%
%TO.N,PB1*%
X153035000Y-77470000D03*
%TO.P,U2,11*%
%TO.N,PB2*%
X153035000Y-74930000D03*
%TO.P,U2,12*%
%TO.N,+3V3*%
X153035000Y-72390000D03*
%TO.P,U2,13*%
%TO.N,GND*%
X153035000Y-69850000D03*
%TO.P,U2,14*%
%TO.N,+5V*%
X153035000Y-67310000D03*
%TD*%
D18*
%TO.P,C2,1*%
%TO.N,Net-(C2-Pad1)*%
X125730000Y-120015000D03*
%TO.P,C2,2*%
%TO.N,Net-(C1-Pad1)*%
X128270000Y-120015000D03*
%TD*%
%TO.P,D1,1*%
%TO.N,Net-(D1-Pad1)*%
X153670000Y-108585000D03*
%TO.P,D1,2*%
%TO.N,Net-(D1-Pad2)*%
X153670000Y-113665000D03*
%TD*%
D19*
%TO.P,HOLE2,1*%
%TO.N,N/C*%
X106680000Y-67310000D03*
%TD*%
%TO.P,HOLE2,1*%
%TO.N,N/C*%
X106680000Y-119380000D03*
%TD*%
%TO.P,HOLE2,1*%
%TO.N,N/C*%
X184150000Y-119380000D03*
%TD*%
%TO.P,HOLE2,1*%
%TO.N,N/C*%
X184150000Y-67310000D03*
%TD*%
D12*
%TO.P,C1,2*%
%TO.N,GND*%
X135890000Y-109220000D03*
%TO.P,C1,1*%
%TO.N,Net-(C1-Pad1)*%
X135890000Y-114300000D03*
%TD*%
D15*
%TO.P,J1,*%
%TO.N,*%
X125730000Y-66675000D03*
X115570000Y-66675000D03*
%TO.P,J1,5*%
%TO.N,Net-(D1-Pad2)*%
X125730000Y-79375000D03*
%TO.P,J1,1*%
%TO.N,Net-(J1-Pad1)*%
X113030000Y-76835000D03*
%TO.P,J1,2*%
%TO.N,Net-(J1-Pad2)*%
X120650000Y-76835000D03*
%TO.P,J1,4*%
%TO.N,Net-(J1-Pad4)*%
X115570000Y-79375000D03*
%TO.P,J1,3*%
%TO.N,Net-(J1-Pad3)*%
X128270000Y-76835000D03*
%TD*%
D17*
%TO.P,U1,8*%
%TO.N,+5V*%
X165100000Y-109855000D03*
%TO.P,U1,7*%
%TO.N,Net-(R5-Pad2)*%
X165100000Y-112395000D03*
%TO.P,U1,6*%
%TO.N,RX*%
X165100000Y-114935000D03*
%TO.P,U1,5*%
%TO.N,GND*%
X165100000Y-117475000D03*
%TO.P,U1,4*%
%TO.N,Net-(U1-Pad4)*%
X157480000Y-117475000D03*
%TO.P,U1,3*%
%TO.N,Net-(D1-Pad2)*%
X157480000Y-114935000D03*
%TO.P,U1,2*%
%TO.N,Net-(D1-Pad1)*%
X157480000Y-112395000D03*
D16*
%TO.P,U1,1*%
%TO.N,Net-(U1-Pad1)*%
X157480000Y-109855000D03*
%TD*%
D20*
%TO.N,RX*%
X160020000Y-100330000D03*
%TO.N,+5V*%
X173355000Y-109855000D03*
X182880000Y-109855000D03*
%TO.N,KNOB5*%
X143510000Y-90170000D03*
X166370000Y-90805000D03*
%TO.N,KNOB6*%
X156845000Y-88900000D03*
X180340000Y-88900000D03*
X180340000Y-88900000D03*
%TD*%
D21*
%TO.N,*%
X139263010Y-82089225D02*
X138611375Y-81437590D01*
X139263010Y-83010775D02*
X139263010Y-82089225D01*
X138611375Y-83662410D02*
X139263010Y-83010775D01*
X138430000Y-83820000D02*
X138430000Y-83662410D01*
X138430000Y-83662410D02*
X138611375Y-83662410D01*
D22*
%TO.N,DAC*%
X132080000Y-97155000D02*
X132080000Y-97790000D01*
X131907501Y-96982501D02*
X132080000Y-97155000D01*
X132080000Y-97790000D02*
X132080000Y-109220000D01*
X126827501Y-96982501D02*
X131907501Y-96982501D01*
X126365000Y-96520000D02*
X126827501Y-96982501D01*
X137795000Y-67310000D02*
X132080000Y-67310000D01*
X130810000Y-89535000D02*
X127000000Y-89535000D01*
X131445000Y-67945000D02*
X131445000Y-88900000D01*
X132080000Y-67310000D02*
X131445000Y-67945000D01*
X131445000Y-88900000D02*
X130810000Y-89535000D01*
X126365000Y-90170000D02*
X126365000Y-96520000D01*
X127000000Y-89535000D02*
X126365000Y-90170000D01*
%TO.N,TX*%
X137795000Y-85090000D02*
X137795000Y-82550000D01*
X138430000Y-85725000D02*
X137795000Y-85090000D01*
X172720000Y-85090000D02*
X172085000Y-85725000D01*
X172720000Y-82550000D02*
X172720000Y-85090000D01*
X172085000Y-85725000D02*
X138430000Y-85725000D01*
%TO.N,Net-(R5-Pad2)*%
X182880000Y-107315000D02*
X170180000Y-107315000D01*
X167640000Y-112395000D02*
X165100000Y-112395000D01*
X168275000Y-111760000D02*
X167640000Y-112395000D01*
X168275000Y-111760000D02*
X168275000Y-107950000D01*
X168910000Y-107315000D02*
X170180000Y-107315000D01*
X168275000Y-107950000D02*
X168910000Y-107315000D01*
%TO.N,RX*%
X165100000Y-114935000D02*
X160655000Y-114935000D01*
X160020000Y-100330000D02*
X160020000Y-112395000D01*
X160020000Y-114300000D02*
X160020000Y-112395000D01*
X160655000Y-114935000D02*
X160020000Y-114300000D01*
%TO.N,+5V*%
X173355000Y-109855000D02*
X182880000Y-109855000D01*
%TO.N,KNOB5*%
X165735000Y-90805000D02*
X165735000Y-90805000D01*
X165735000Y-90805000D02*
X165735000Y-90805000D01*
X144145000Y-90805000D02*
X143510000Y-90170000D01*
X166370000Y-90805000D02*
X144145000Y-90805000D01*
%TO.N,KNOB6*%
X156845000Y-88900000D02*
X180340000Y-88900000D01*
X180340000Y-88900000D02*
X180340000Y-88900000D01*
X180340000Y-88900000D02*
X180340000Y-88900000D01*
%TO.N,PB1*%
X151130000Y-76835000D02*
X151765000Y-77470000D01*
X151130000Y-66040000D02*
X151130000Y-76835000D01*
X151765000Y-77470000D02*
X153035000Y-77470000D01*
X150495000Y-65405000D02*
X151130000Y-66040000D01*
X129540000Y-65405000D02*
X150495000Y-65405000D01*
X128905000Y-66040000D02*
X129540000Y-65405000D01*
X120015000Y-98425000D02*
X121920000Y-96520000D01*
X120015000Y-113030000D02*
X120015000Y-98425000D01*
X121920000Y-96520000D02*
X121920000Y-79375000D01*
X121920000Y-79375000D02*
X128905000Y-72390000D01*
X128905000Y-72390000D02*
X128905000Y-66040000D01*
%TO.N,PB2*%
X186690000Y-74930000D02*
X153035000Y-74930000D01*
X187152501Y-89072499D02*
X187152501Y-75392501D01*
X186690000Y-89535000D02*
X187152501Y-89072499D01*
X182880000Y-89535000D02*
X186690000Y-89535000D01*
X186055000Y-113030000D02*
X187152501Y-111932499D01*
X187152501Y-75392501D02*
X186690000Y-74930000D01*
X182245000Y-90170000D02*
X182880000Y-89535000D01*
X182707501Y-96982501D02*
X182245000Y-96520000D01*
X175895000Y-113030000D02*
X186055000Y-113030000D01*
X182245000Y-96520000D02*
X182245000Y-90170000D01*
X187152501Y-111932499D02*
X187152501Y-97617501D01*
X186517501Y-96982501D02*
X187152501Y-97617501D01*
X186517501Y-96982501D02*
X182707501Y-96982501D01*
%TD*%
D23*
%TO.N,GND*%
X185979768Y-64874374D02*
X186880260Y-65774866D01*
X187050951Y-66090552D01*
X187198000Y-66565589D01*
X187198000Y-74202030D01*
X187184059Y-74190589D01*
X187030313Y-74108411D01*
X186863490Y-74057805D01*
X186733477Y-74045000D01*
X186733469Y-74045000D01*
X186690000Y-74040719D01*
X186646531Y-74045000D01*
X154504378Y-74045000D01*
X154401255Y-73919345D01*
X154184667Y-73741595D01*
X154032013Y-73660000D01*
X154184667Y-73578405D01*
X154401255Y-73400655D01*
X154579005Y-73184067D01*
X154711084Y-72936963D01*
X154792419Y-72668839D01*
X154819882Y-72390000D01*
X154792419Y-72111161D01*
X154711084Y-71843037D01*
X154579005Y-71595933D01*
X154401255Y-71379345D01*
X154184667Y-71201595D01*
X154035955Y-71122107D01*
X154052262Y-71115526D01*
X154286440Y-70962125D01*
X154486192Y-70765986D01*
X154643841Y-70534646D01*
X154753328Y-70276996D01*
X154770010Y-70197060D01*
X154647852Y-69977000D01*
X153162000Y-69977000D01*
X153162000Y-69997000D01*
X152908000Y-69997000D01*
X152908000Y-69977000D01*
X152888000Y-69977000D01*
X152888000Y-69723000D01*
X152908000Y-69723000D01*
X152908000Y-69703000D01*
X153162000Y-69703000D01*
X153162000Y-69723000D01*
X154647852Y-69723000D01*
X154770010Y-69502940D01*
X154753328Y-69423004D01*
X154643841Y-69165354D01*
X154486192Y-68934014D01*
X154286440Y-68737875D01*
X154052262Y-68584474D01*
X154035955Y-68577893D01*
X154184667Y-68498405D01*
X154401255Y-68320655D01*
X154579005Y-68104067D01*
X154711084Y-67856963D01*
X154792419Y-67588839D01*
X154819882Y-67310000D01*
X154792419Y-67031161D01*
X154711084Y-66763037D01*
X154579005Y-66515933D01*
X154557210Y-66489375D01*
X163215320Y-66489375D01*
X163215320Y-66860625D01*
X163287747Y-67224741D01*
X163429818Y-67567731D01*
X163636074Y-67876413D01*
X163898587Y-68138926D01*
X164207269Y-68345182D01*
X164550259Y-68487253D01*
X164914375Y-68559680D01*
X165285625Y-68559680D01*
X165649741Y-68487253D01*
X165992731Y-68345182D01*
X166301413Y-68138926D01*
X166563926Y-67876413D01*
X166770182Y-67567731D01*
X166912253Y-67224741D01*
X166984680Y-66860625D01*
X166984680Y-66489375D01*
X173375320Y-66489375D01*
X173375320Y-66860625D01*
X173447747Y-67224741D01*
X173589818Y-67567731D01*
X173796074Y-67876413D01*
X174058587Y-68138926D01*
X174367269Y-68345182D01*
X174710259Y-68487253D01*
X175074375Y-68559680D01*
X175445625Y-68559680D01*
X175809741Y-68487253D01*
X176152731Y-68345182D01*
X176461413Y-68138926D01*
X176723926Y-67876413D01*
X176930182Y-67567731D01*
X177072253Y-67224741D01*
X177111814Y-67025852D01*
X181265000Y-67025852D01*
X181265000Y-67594148D01*
X181375869Y-68151523D01*
X181593346Y-68676560D01*
X181909074Y-69149080D01*
X182310920Y-69550926D01*
X182783440Y-69866654D01*
X183308477Y-70084131D01*
X183865852Y-70195000D01*
X184434148Y-70195000D01*
X184991523Y-70084131D01*
X185516560Y-69866654D01*
X185989080Y-69550926D01*
X186390926Y-69149080D01*
X186706654Y-68676560D01*
X186924131Y-68151523D01*
X187035000Y-67594148D01*
X187035000Y-67025852D01*
X186924131Y-66468477D01*
X186706654Y-65943440D01*
X186390926Y-65470920D01*
X185989080Y-65069074D01*
X185516560Y-64753346D01*
X184991523Y-64535869D01*
X184434148Y-64425000D01*
X183865852Y-64425000D01*
X183308477Y-64535869D01*
X182783440Y-64753346D01*
X182310920Y-65069074D01*
X181909074Y-65470920D01*
X181593346Y-65943440D01*
X181375869Y-66468477D01*
X181265000Y-67025852D01*
X177111814Y-67025852D01*
X177144680Y-66860625D01*
X177144680Y-66489375D01*
X177072253Y-66125259D01*
X176930182Y-65782269D01*
X176723926Y-65473587D01*
X176461413Y-65211074D01*
X176152731Y-65004818D01*
X175809741Y-64862747D01*
X175445625Y-64790320D01*
X175074375Y-64790320D01*
X174710259Y-64862747D01*
X174367269Y-65004818D01*
X174058587Y-65211074D01*
X173796074Y-65473587D01*
X173589818Y-65782269D01*
X173447747Y-66125259D01*
X173375320Y-66489375D01*
X166984680Y-66489375D01*
X166912253Y-66125259D01*
X166770182Y-65782269D01*
X166563926Y-65473587D01*
X166301413Y-65211074D01*
X165992731Y-65004818D01*
X165649741Y-64862747D01*
X165285625Y-64790320D01*
X164914375Y-64790320D01*
X164550259Y-64862747D01*
X164207269Y-65004818D01*
X163898587Y-65211074D01*
X163636074Y-65473587D01*
X163429818Y-65782269D01*
X163287747Y-66125259D01*
X163215320Y-66489375D01*
X154557210Y-66489375D01*
X154401255Y-66299345D01*
X154184667Y-66121595D01*
X153937563Y-65989516D01*
X153669439Y-65908181D01*
X153460475Y-65887600D01*
X152609525Y-65887600D01*
X152400561Y-65908181D01*
X152132437Y-65989516D01*
X152018242Y-66050554D01*
X152019281Y-66040000D01*
X152015000Y-65996531D01*
X152015000Y-65996523D01*
X152002195Y-65866510D01*
X151985449Y-65811306D01*
X151951589Y-65699686D01*
X151869411Y-65545941D01*
X151786532Y-65444953D01*
X151786530Y-65444951D01*
X151758817Y-65411183D01*
X151725050Y-65383471D01*
X151151534Y-64809956D01*
X151123817Y-64776183D01*
X150989059Y-64665589D01*
X150835313Y-64583411D01*
X150668490Y-64532805D01*
X150538477Y-64520000D01*
X150538469Y-64520000D01*
X150495000Y-64515719D01*
X150451531Y-64520000D01*
X129583469Y-64520000D01*
X129540000Y-64515719D01*
X129496531Y-64520000D01*
X129496523Y-64520000D01*
X129366510Y-64532805D01*
X129199686Y-64583411D01*
X129045941Y-64665589D01*
X128944953Y-64748468D01*
X128944951Y-64748470D01*
X128911183Y-64776183D01*
X128883470Y-64809951D01*
X128309951Y-65383471D01*
X128276184Y-65411183D01*
X128248471Y-65444951D01*
X128248468Y-65444954D01*
X128165590Y-65545941D01*
X128083412Y-65699687D01*
X128032805Y-65866510D01*
X128015719Y-66040000D01*
X128020001Y-66083479D01*
X128020000Y-72023421D01*
X122323358Y-77720064D01*
X122462253Y-77384741D01*
X122534680Y-77020625D01*
X122534680Y-76649375D01*
X122462253Y-76285259D01*
X122320182Y-75942269D01*
X122113926Y-75633587D01*
X121851413Y-75371074D01*
X121542731Y-75164818D01*
X121199741Y-75022747D01*
X120835625Y-74950320D01*
X120464375Y-74950320D01*
X120100259Y-75022747D01*
X119757269Y-75164818D01*
X119448587Y-75371074D01*
X119186074Y-75633587D01*
X118979818Y-75942269D01*
X118837747Y-76285259D01*
X118765320Y-76649375D01*
X118765320Y-77020625D01*
X118837747Y-77384741D01*
X118979818Y-77727731D01*
X119186074Y-78036413D01*
X119448587Y-78298926D01*
X119757269Y-78505182D01*
X120100259Y-78647253D01*
X120464375Y-78719680D01*
X120835625Y-78719680D01*
X121199741Y-78647253D01*
X121535064Y-78508358D01*
X121324952Y-78718470D01*
X121291184Y-78746183D01*
X121263471Y-78779951D01*
X121263468Y-78779954D01*
X121180590Y-78880941D01*
X121098412Y-79034687D01*
X121047805Y-79201510D01*
X121030719Y-79375000D01*
X121035001Y-79418479D01*
X121035000Y-91474478D01*
X120756169Y-91288169D01*
X120349425Y-91119690D01*
X119917628Y-91033800D01*
X119477372Y-91033800D01*
X119045575Y-91119690D01*
X118638831Y-91288169D01*
X118272771Y-91532762D01*
X117961462Y-91844071D01*
X117716869Y-92210131D01*
X117548390Y-92616875D01*
X117475000Y-92985830D01*
X117401610Y-92616875D01*
X117233131Y-92210131D01*
X116988538Y-91844071D01*
X116677229Y-91532762D01*
X116311169Y-91288169D01*
X115904425Y-91119690D01*
X115472628Y-91033800D01*
X115032372Y-91033800D01*
X114600575Y-91119690D01*
X114193831Y-91288169D01*
X113827771Y-91532762D01*
X113516462Y-91844071D01*
X113271869Y-92210131D01*
X113103390Y-92616875D01*
X113017500Y-93048672D01*
X113017500Y-93488928D01*
X113103390Y-93920725D01*
X113271869Y-94327469D01*
X113516462Y-94693529D01*
X113827771Y-95004838D01*
X114193831Y-95249431D01*
X114600575Y-95417910D01*
X115032372Y-95503800D01*
X115472628Y-95503800D01*
X115904425Y-95417910D01*
X116311169Y-95249431D01*
X116677229Y-95004838D01*
X116988538Y-94693529D01*
X117233131Y-94327469D01*
X117401610Y-93920725D01*
X117475000Y-93551770D01*
X117548390Y-93920725D01*
X117716869Y-94327469D01*
X117961462Y-94693529D01*
X118272771Y-95004838D01*
X118638831Y-95249431D01*
X119045575Y-95417910D01*
X119477372Y-95503800D01*
X119917628Y-95503800D01*
X120349425Y-95417910D01*
X120756169Y-95249431D01*
X121035000Y-95063122D01*
X121035000Y-96153421D01*
X119419951Y-97768471D01*
X119386184Y-97796183D01*
X119358471Y-97829951D01*
X119358468Y-97829954D01*
X119275590Y-97930941D01*
X119193412Y-98084687D01*
X119142805Y-98251510D01*
X119125719Y-98425000D01*
X119130001Y-98468479D01*
X119130000Y-111534671D01*
X118909002Y-111682337D01*
X118667337Y-111924002D01*
X118477463Y-112208169D01*
X118346675Y-112523919D01*
X118280000Y-112859117D01*
X118280000Y-113200883D01*
X118346675Y-113536081D01*
X118477463Y-113851831D01*
X118667337Y-114135998D01*
X118909002Y-114377663D01*
X119193169Y-114567537D01*
X119508919Y-114698325D01*
X119844117Y-114765000D01*
X120185883Y-114765000D01*
X120521081Y-114698325D01*
X120836831Y-114567537D01*
X121120998Y-114377663D01*
X121362663Y-114135998D01*
X121367260Y-114129117D01*
X134155000Y-114129117D01*
X134155000Y-114470883D01*
X134221675Y-114806081D01*
X134352463Y-115121831D01*
X134542337Y-115405998D01*
X134784002Y-115647663D01*
X135068169Y-115837537D01*
X135383919Y-115968325D01*
X135719117Y-116035000D01*
X136060883Y-116035000D01*
X136396081Y-115968325D01*
X136711831Y-115837537D01*
X136995998Y-115647663D01*
X137237663Y-115405998D01*
X137427537Y-115121831D01*
X137558325Y-114806081D01*
X137625000Y-114470883D01*
X137625000Y-114129117D01*
X137558325Y-113793919D01*
X137427537Y-113478169D01*
X137237663Y-113194002D01*
X136995998Y-112952337D01*
X136711831Y-112762463D01*
X136396081Y-112631675D01*
X136060883Y-112565000D01*
X135719117Y-112565000D01*
X135383919Y-112631675D01*
X135068169Y-112762463D01*
X134784002Y-112952337D01*
X134542337Y-113194002D01*
X134352463Y-113478169D01*
X134221675Y-113793919D01*
X134155000Y-114129117D01*
X121367260Y-114129117D01*
X121552537Y-113851831D01*
X121683325Y-113536081D01*
X121750000Y-113200883D01*
X121750000Y-112859117D01*
X121683325Y-112523919D01*
X121552537Y-112208169D01*
X121362663Y-111924002D01*
X121120998Y-111682337D01*
X120900000Y-111534671D01*
X120900000Y-111119776D01*
X138325000Y-111119776D01*
X138325000Y-113090225D01*
X138350106Y-113345119D01*
X138449315Y-113672168D01*
X138610422Y-113973578D01*
X138827235Y-114237766D01*
X139091423Y-114454579D01*
X139392833Y-114615686D01*
X139719882Y-114714895D01*
X140060000Y-114748394D01*
X140400119Y-114714895D01*
X140727168Y-114615686D01*
X141028578Y-114454579D01*
X141040245Y-114445004D01*
X141050106Y-114545119D01*
X141149315Y-114872168D01*
X141310422Y-115173578D01*
X141527235Y-115437766D01*
X141791423Y-115654579D01*
X142092833Y-115815686D01*
X142419882Y-115914895D01*
X142760000Y-115948394D01*
X143100119Y-115914895D01*
X143427168Y-115815686D01*
X143728578Y-115654579D01*
X143992766Y-115437766D01*
X144171665Y-115219776D01*
X148125000Y-115219776D01*
X148125000Y-117190225D01*
X148150106Y-117445119D01*
X148249315Y-117772168D01*
X148410422Y-118073578D01*
X148627235Y-118337766D01*
X148891423Y-118554579D01*
X149192833Y-118715686D01*
X149519882Y-118814895D01*
X149860000Y-118848394D01*
X150200119Y-118814895D01*
X150527168Y-118715686D01*
X150828578Y-118554579D01*
X151092766Y-118337766D01*
X151309579Y-118073578D01*
X151470686Y-117772168D01*
X151569895Y-117445119D01*
X151595000Y-117190225D01*
X151595000Y-115219775D01*
X151569895Y-114964881D01*
X151470686Y-114637832D01*
X151309579Y-114336422D01*
X151092766Y-114072234D01*
X150828577Y-113855421D01*
X150527167Y-113694314D01*
X150200118Y-113595105D01*
X149860000Y-113561606D01*
X149519881Y-113595105D01*
X149192832Y-113694314D01*
X148891422Y-113855421D01*
X148627234Y-114072234D01*
X148410421Y-114336423D01*
X148249314Y-114637833D01*
X148150105Y-114964882D01*
X148125000Y-115219776D01*
X144171665Y-115219776D01*
X144209579Y-115173578D01*
X144370686Y-114872168D01*
X144469895Y-114545119D01*
X144495000Y-114290225D01*
X144495000Y-113503967D01*
X152035000Y-113503967D01*
X152035000Y-113826033D01*
X152097832Y-114141912D01*
X152221082Y-114439463D01*
X152400013Y-114707252D01*
X152627748Y-114934987D01*
X152895537Y-115113918D01*
X153193088Y-115237168D01*
X153508967Y-115300000D01*
X153831033Y-115300000D01*
X154146912Y-115237168D01*
X154444463Y-115113918D01*
X154712252Y-114934987D01*
X154939987Y-114707252D01*
X155118918Y-114439463D01*
X155242168Y-114141912D01*
X155305000Y-113826033D01*
X155305000Y-113503967D01*
X155242168Y-113188088D01*
X155118918Y-112890537D01*
X154939987Y-112622748D01*
X154712252Y-112395013D01*
X154712233Y-112395000D01*
X155695118Y-112395000D01*
X155722581Y-112673839D01*
X155803916Y-112941963D01*
X155935995Y-113189067D01*
X156113745Y-113405655D01*
X156330333Y-113583405D01*
X156482987Y-113665000D01*
X156330333Y-113746595D01*
X156113745Y-113924345D01*
X155935995Y-114140933D01*
X155803916Y-114388037D01*
X155722581Y-114656161D01*
X155695118Y-114935000D01*
X155722581Y-115213839D01*
X155803916Y-115481963D01*
X155935995Y-115729067D01*
X156113745Y-115945655D01*
X156330333Y-116123405D01*
X156482987Y-116205000D01*
X156330333Y-116286595D01*
X156113745Y-116464345D01*
X155935995Y-116680933D01*
X155803916Y-116928037D01*
X155722581Y-117196161D01*
X155695118Y-117475000D01*
X155722581Y-117753839D01*
X155803916Y-118021963D01*
X155935995Y-118269067D01*
X156113745Y-118485655D01*
X156330333Y-118663405D01*
X156577437Y-118795484D01*
X156845561Y-118876819D01*
X157054525Y-118897400D01*
X157905475Y-118897400D01*
X158114439Y-118876819D01*
X158382563Y-118795484D01*
X158629667Y-118663405D01*
X158846255Y-118485655D01*
X159024005Y-118269067D01*
X159156084Y-118021963D01*
X159216724Y-117822060D01*
X163364990Y-117822060D01*
X163381672Y-117901996D01*
X163491159Y-118159646D01*
X163648808Y-118390986D01*
X163848560Y-118587125D01*
X164082738Y-118740526D01*
X164342344Y-118845293D01*
X164617400Y-118897400D01*
X164973000Y-118897400D01*
X164973000Y-117602000D01*
X165227000Y-117602000D01*
X165227000Y-118897400D01*
X165582600Y-118897400D01*
X165857656Y-118845293D01*
X166117262Y-118740526D01*
X166351440Y-118587125D01*
X166551192Y-118390986D01*
X166702712Y-118168639D01*
X169072591Y-118168639D01*
X169117511Y-118507439D01*
X169227664Y-118830966D01*
X169333662Y-119029274D01*
X169608288Y-119137107D01*
X170635395Y-118110000D01*
X170994605Y-118110000D01*
X172021712Y-119137107D01*
X172296338Y-119029274D01*
X172447216Y-118722616D01*
X172535369Y-118392415D01*
X172557409Y-118051361D01*
X172542528Y-117939117D01*
X174160000Y-117939117D01*
X174160000Y-118280883D01*
X174226675Y-118616081D01*
X174357463Y-118931831D01*
X174547337Y-119215998D01*
X174789002Y-119457663D01*
X175073169Y-119647537D01*
X175388919Y-119778325D01*
X175724117Y-119845000D01*
X176065883Y-119845000D01*
X176401081Y-119778325D01*
X176716831Y-119647537D01*
X177000998Y-119457663D01*
X177242663Y-119215998D01*
X177322941Y-119095852D01*
X181265000Y-119095852D01*
X181265000Y-119664148D01*
X181375869Y-120221523D01*
X181593346Y-120746560D01*
X181909074Y-121219080D01*
X182310920Y-121620926D01*
X182783440Y-121936654D01*
X183308477Y-122154131D01*
X183865852Y-122265000D01*
X184434148Y-122265000D01*
X184991523Y-122154131D01*
X185516560Y-121936654D01*
X185989080Y-121620926D01*
X186390926Y-121219080D01*
X186706654Y-120746560D01*
X186924131Y-120221523D01*
X187035000Y-119664148D01*
X187035000Y-119095852D01*
X186924131Y-118538477D01*
X186706654Y-118013440D01*
X186390926Y-117540920D01*
X185989080Y-117139074D01*
X185516560Y-116823346D01*
X184991523Y-116605869D01*
X184434148Y-116495000D01*
X183865852Y-116495000D01*
X183421871Y-116583314D01*
X183600966Y-116522336D01*
X183799274Y-116416338D01*
X183907107Y-116141712D01*
X182880000Y-115114605D01*
X181852893Y-116141712D01*
X181960726Y-116416338D01*
X182267384Y-116567216D01*
X182597585Y-116655369D01*
X182938639Y-116677409D01*
X183228567Y-116638969D01*
X182783440Y-116823346D01*
X182310920Y-117139074D01*
X181909074Y-117540920D01*
X181593346Y-118013440D01*
X181375869Y-118538477D01*
X181265000Y-119095852D01*
X177322941Y-119095852D01*
X177432537Y-118931831D01*
X177563325Y-118616081D01*
X177630000Y-118280883D01*
X177630000Y-117939117D01*
X177563325Y-117603919D01*
X177432537Y-117288169D01*
X177242663Y-117004002D01*
X177000998Y-116762337D01*
X176716831Y-116572463D01*
X176401081Y-116441675D01*
X176065883Y-116375000D01*
X175724117Y-116375000D01*
X175388919Y-116441675D01*
X175073169Y-116572463D01*
X174789002Y-116762337D01*
X174547337Y-117004002D01*
X174357463Y-117288169D01*
X174226675Y-117603919D01*
X174160000Y-117939117D01*
X172542528Y-117939117D01*
X172512489Y-117712561D01*
X172402336Y-117389034D01*
X172296338Y-117190726D01*
X172021712Y-117082893D01*
X170994605Y-118110000D01*
X170635395Y-118110000D01*
X169608288Y-117082893D01*
X169333662Y-117190726D01*
X169182784Y-117497384D01*
X169094631Y-117827585D01*
X169072591Y-118168639D01*
X166702712Y-118168639D01*
X166708841Y-118159646D01*
X166818328Y-117901996D01*
X166835010Y-117822060D01*
X166712852Y-117602000D01*
X165227000Y-117602000D01*
X164973000Y-117602000D01*
X163487148Y-117602000D01*
X163364990Y-117822060D01*
X159216724Y-117822060D01*
X159237419Y-117753839D01*
X159264882Y-117475000D01*
X159237419Y-117196161D01*
X159156084Y-116928037D01*
X159024005Y-116680933D01*
X158846255Y-116464345D01*
X158629667Y-116286595D01*
X158477013Y-116205000D01*
X158629667Y-116123405D01*
X158846255Y-115945655D01*
X159024005Y-115729067D01*
X159156084Y-115481963D01*
X159237419Y-115213839D01*
X159264882Y-114935000D01*
X159244317Y-114726197D01*
X159280589Y-114794058D01*
X159391183Y-114928817D01*
X159424956Y-114956534D01*
X159998470Y-115530049D01*
X160026183Y-115563817D01*
X160059951Y-115591530D01*
X160059953Y-115591532D01*
X160160941Y-115674411D01*
X160314686Y-115756589D01*
X160481510Y-115807195D01*
X160611523Y-115820000D01*
X160611531Y-115820000D01*
X160655000Y-115824281D01*
X160698469Y-115820000D01*
X163630622Y-115820000D01*
X163733745Y-115945655D01*
X163950333Y-116123405D01*
X164099045Y-116202893D01*
X164082738Y-116209474D01*
X163848560Y-116362875D01*
X163648808Y-116559014D01*
X163491159Y-116790354D01*
X163381672Y-117048004D01*
X163364990Y-117127940D01*
X163487148Y-117348000D01*
X164973000Y-117348000D01*
X164973000Y-117328000D01*
X165227000Y-117328000D01*
X165227000Y-117348000D01*
X166712852Y-117348000D01*
X166835010Y-117127940D01*
X166818328Y-117048004D01*
X166756832Y-116903288D01*
X169787893Y-116903288D01*
X170815000Y-117930395D01*
X171842107Y-116903288D01*
X171734274Y-116628662D01*
X171427616Y-116477784D01*
X171097415Y-116389631D01*
X170756361Y-116367591D01*
X170417561Y-116412511D01*
X170094034Y-116522664D01*
X169895726Y-116628662D01*
X169787893Y-116903288D01*
X166756832Y-116903288D01*
X166708841Y-116790354D01*
X166551192Y-116559014D01*
X166351440Y-116362875D01*
X166117262Y-116209474D01*
X166100955Y-116202893D01*
X166249667Y-116123405D01*
X166466255Y-115945655D01*
X166644005Y-115729067D01*
X166776084Y-115481963D01*
X166857419Y-115213839D01*
X166884882Y-114935000D01*
X166857419Y-114656161D01*
X166776084Y-114388037D01*
X166716580Y-114276712D01*
X169827893Y-114276712D01*
X169935726Y-114551338D01*
X170242384Y-114702216D01*
X170572585Y-114790369D01*
X170913639Y-114812409D01*
X171252439Y-114767489D01*
X171575966Y-114657336D01*
X171774274Y-114551338D01*
X171882107Y-114276712D01*
X170855000Y-113249605D01*
X169827893Y-114276712D01*
X166716580Y-114276712D01*
X166644005Y-114140933D01*
X166466255Y-113924345D01*
X166249667Y-113746595D01*
X166097013Y-113665000D01*
X166249667Y-113583405D01*
X166466255Y-113405655D01*
X166569378Y-113280000D01*
X167596531Y-113280000D01*
X167640000Y-113284281D01*
X167683469Y-113280000D01*
X167683477Y-113280000D01*
X167813490Y-113267195D01*
X167980313Y-113216589D01*
X168134059Y-113134411D01*
X168141092Y-113128639D01*
X169112591Y-113128639D01*
X169157511Y-113467439D01*
X169267664Y-113790966D01*
X169373662Y-113989274D01*
X169648288Y-114097107D01*
X170675395Y-113070000D01*
X171034605Y-113070000D01*
X172061712Y-114097107D01*
X172336338Y-113989274D01*
X172487216Y-113682616D01*
X172575369Y-113352415D01*
X172597409Y-113011361D01*
X172552489Y-112672561D01*
X172442336Y-112349034D01*
X172336338Y-112150726D01*
X172061712Y-112042893D01*
X171034605Y-113070000D01*
X170675395Y-113070000D01*
X169648288Y-112042893D01*
X169373662Y-112150726D01*
X169222784Y-112457384D01*
X169134631Y-112787585D01*
X169112591Y-113128639D01*
X168141092Y-113128639D01*
X168268817Y-113023817D01*
X168296534Y-112990044D01*
X168870050Y-112416529D01*
X168903817Y-112388817D01*
X168936467Y-112349034D01*
X169014411Y-112254059D01*
X169096589Y-112100314D01*
X169147195Y-111933490D01*
X169154108Y-111863288D01*
X169827893Y-111863288D01*
X170855000Y-112890395D01*
X171882107Y-111863288D01*
X171774274Y-111588662D01*
X171467616Y-111437784D01*
X171137415Y-111349631D01*
X170796361Y-111327591D01*
X170457561Y-111372511D01*
X170134034Y-111482664D01*
X169935726Y-111588662D01*
X169827893Y-111863288D01*
X169154108Y-111863288D01*
X169155611Y-111848037D01*
X169160000Y-111803477D01*
X169160000Y-111803469D01*
X169164281Y-111760000D01*
X169160000Y-111716531D01*
X169160000Y-108316578D01*
X169276579Y-108200000D01*
X181384671Y-108200000D01*
X181532337Y-108420998D01*
X181774002Y-108662663D01*
X182058169Y-108852537D01*
X182341624Y-108969948D01*
X182341546Y-108970000D01*
X173893454Y-108970000D01*
X173845256Y-108937795D01*
X173656898Y-108859774D01*
X173456939Y-108820000D01*
X173253061Y-108820000D01*
X173053102Y-108859774D01*
X172864744Y-108937795D01*
X172695226Y-109051063D01*
X172551063Y-109195226D01*
X172437795Y-109364744D01*
X172359774Y-109553102D01*
X172320000Y-109753061D01*
X172320000Y-109956939D01*
X172359774Y-110156898D01*
X172437795Y-110345256D01*
X172551063Y-110514774D01*
X172695226Y-110658937D01*
X172864744Y-110772205D01*
X173053102Y-110850226D01*
X173253061Y-110890000D01*
X173456939Y-110890000D01*
X173656898Y-110850226D01*
X173845256Y-110772205D01*
X173893454Y-110740000D01*
X182341546Y-110740000D01*
X182389744Y-110772205D01*
X182578102Y-110850226D01*
X182778061Y-110890000D01*
X182981939Y-110890000D01*
X183181898Y-110850226D01*
X183370256Y-110772205D01*
X183539774Y-110658937D01*
X183683937Y-110514774D01*
X183797205Y-110345256D01*
X183875226Y-110156898D01*
X183915000Y-109956939D01*
X183915000Y-109753061D01*
X183875226Y-109553102D01*
X183797205Y-109364744D01*
X183683937Y-109195226D01*
X183539774Y-109051063D01*
X183418376Y-108969948D01*
X183701831Y-108852537D01*
X183985998Y-108662663D01*
X184227663Y-108420998D01*
X184417537Y-108136831D01*
X184548325Y-107821081D01*
X184615000Y-107485883D01*
X184615000Y-107144117D01*
X184548325Y-106808919D01*
X184417537Y-106493169D01*
X184227663Y-106209002D01*
X183985998Y-105967337D01*
X183701831Y-105777463D01*
X183386081Y-105646675D01*
X183050883Y-105580000D01*
X182709117Y-105580000D01*
X182373919Y-105646675D01*
X182058169Y-105777463D01*
X181774002Y-105967337D01*
X181532337Y-106209002D01*
X181384671Y-106430000D01*
X168953469Y-106430000D01*
X168910000Y-106425719D01*
X168866531Y-106430000D01*
X168866523Y-106430000D01*
X168736510Y-106442805D01*
X168569686Y-106493411D01*
X168415941Y-106575589D01*
X168314953Y-106658468D01*
X168314951Y-106658470D01*
X168281183Y-106686183D01*
X168253470Y-106719951D01*
X167679951Y-107293471D01*
X167646184Y-107321183D01*
X167618471Y-107354951D01*
X167618468Y-107354954D01*
X167535590Y-107455941D01*
X167453412Y-107609687D01*
X167402805Y-107776510D01*
X167385719Y-107950000D01*
X167390001Y-107993479D01*
X167390000Y-111393421D01*
X167273422Y-111510000D01*
X166569378Y-111510000D01*
X166466255Y-111384345D01*
X166249667Y-111206595D01*
X166097013Y-111125000D01*
X166249667Y-111043405D01*
X166466255Y-110865655D01*
X166644005Y-110649067D01*
X166776084Y-110401963D01*
X166857419Y-110133839D01*
X166884882Y-109855000D01*
X166857419Y-109576161D01*
X166776084Y-109308037D01*
X166644005Y-109060933D01*
X166466255Y-108844345D01*
X166249667Y-108666595D01*
X166002563Y-108534516D01*
X165734439Y-108453181D01*
X165525475Y-108432600D01*
X164674525Y-108432600D01*
X164465561Y-108453181D01*
X164197437Y-108534516D01*
X163950333Y-108666595D01*
X163733745Y-108844345D01*
X163555995Y-109060933D01*
X163423916Y-109308037D01*
X163342581Y-109576161D01*
X163315118Y-109855000D01*
X163342581Y-110133839D01*
X163423916Y-110401963D01*
X163555995Y-110649067D01*
X163733745Y-110865655D01*
X163950333Y-111043405D01*
X164102987Y-111125000D01*
X163950333Y-111206595D01*
X163733745Y-111384345D01*
X163555995Y-111600933D01*
X163423916Y-111848037D01*
X163342581Y-112116161D01*
X163315118Y-112395000D01*
X163342581Y-112673839D01*
X163423916Y-112941963D01*
X163555995Y-113189067D01*
X163733745Y-113405655D01*
X163950333Y-113583405D01*
X164102987Y-113665000D01*
X163950333Y-113746595D01*
X163733745Y-113924345D01*
X163630622Y-114050000D01*
X161021579Y-114050000D01*
X160905000Y-113933422D01*
X160905000Y-100868454D01*
X160937205Y-100820256D01*
X161015226Y-100631898D01*
X161050015Y-100457000D01*
X162295000Y-100457000D01*
X162295000Y-100857000D01*
X162349271Y-101154023D01*
X162460446Y-101434751D01*
X162624252Y-101688396D01*
X162834394Y-101905210D01*
X163082796Y-102076862D01*
X163359913Y-102196755D01*
X163465260Y-102221036D01*
X163703000Y-102100378D01*
X163703000Y-100457000D01*
X162295000Y-100457000D01*
X161050015Y-100457000D01*
X161055000Y-100431939D01*
X161055000Y-100228061D01*
X161015226Y-100028102D01*
X160937205Y-99839744D01*
X160912654Y-99803000D01*
X162295000Y-99803000D01*
X162295000Y-100203000D01*
X163703000Y-100203000D01*
X163703000Y-98559622D01*
X163957000Y-98559622D01*
X163957000Y-100203000D01*
X163977000Y-100203000D01*
X163977000Y-100457000D01*
X163957000Y-100457000D01*
X163957000Y-102100378D01*
X164194740Y-102221036D01*
X164300087Y-102196755D01*
X164577204Y-102076862D01*
X164825606Y-101905210D01*
X165035748Y-101688396D01*
X165095219Y-101596309D01*
X165279339Y-101820661D01*
X165513074Y-102012481D01*
X165779740Y-102155017D01*
X166069088Y-102242790D01*
X166370000Y-102272427D01*
X166670913Y-102242790D01*
X166960261Y-102155017D01*
X167226927Y-102012481D01*
X167460661Y-101820661D01*
X167640000Y-101602135D01*
X167819339Y-101820661D01*
X168053074Y-102012481D01*
X168319740Y-102155017D01*
X168609088Y-102242790D01*
X168910000Y-102272427D01*
X169210913Y-102242790D01*
X169500261Y-102155017D01*
X169766927Y-102012481D01*
X170000661Y-101820661D01*
X170192481Y-101586927D01*
X170335017Y-101320261D01*
X170422790Y-101030913D01*
X170445000Y-100805407D01*
X170445000Y-100457000D01*
X176265000Y-100457000D01*
X176265000Y-100857000D01*
X176319271Y-101154023D01*
X176430446Y-101434751D01*
X176594252Y-101688396D01*
X176804394Y-101905210D01*
X177052796Y-102076862D01*
X177329913Y-102196755D01*
X177435260Y-102221036D01*
X177673000Y-102100378D01*
X177673000Y-100457000D01*
X176265000Y-100457000D01*
X170445000Y-100457000D01*
X170445000Y-99854592D01*
X170439919Y-99803000D01*
X176265000Y-99803000D01*
X176265000Y-100203000D01*
X177673000Y-100203000D01*
X177673000Y-98559622D01*
X177927000Y-98559622D01*
X177927000Y-100203000D01*
X177947000Y-100203000D01*
X177947000Y-100457000D01*
X177927000Y-100457000D01*
X177927000Y-102100378D01*
X178164740Y-102221036D01*
X178270087Y-102196755D01*
X178547204Y-102076862D01*
X178795606Y-101905210D01*
X179005748Y-101688396D01*
X179065219Y-101596309D01*
X179249339Y-101820661D01*
X179483074Y-102012481D01*
X179749740Y-102155017D01*
X180039088Y-102242790D01*
X180340000Y-102272427D01*
X180640913Y-102242790D01*
X180930261Y-102155017D01*
X181196927Y-102012481D01*
X181430661Y-101820661D01*
X181610000Y-101602135D01*
X181789339Y-101820661D01*
X182023074Y-102012481D01*
X182289740Y-102155017D01*
X182579088Y-102242790D01*
X182880000Y-102272427D01*
X183180913Y-102242790D01*
X183470261Y-102155017D01*
X183736927Y-102012481D01*
X183970661Y-101820661D01*
X184162481Y-101586927D01*
X184305017Y-101320261D01*
X184392790Y-101030913D01*
X184415000Y-100805407D01*
X184415000Y-99854592D01*
X184392790Y-99629087D01*
X184305017Y-99339739D01*
X184162481Y-99073073D01*
X183970661Y-98839339D01*
X183736926Y-98647519D01*
X183470260Y-98504983D01*
X183180912Y-98417210D01*
X182880000Y-98387573D01*
X182579087Y-98417210D01*
X182289739Y-98504983D01*
X182023073Y-98647519D01*
X181789339Y-98839339D01*
X181610000Y-99057865D01*
X181430661Y-98839339D01*
X181196926Y-98647519D01*
X180930260Y-98504983D01*
X180640912Y-98417210D01*
X180340000Y-98387573D01*
X180039087Y-98417210D01*
X179749739Y-98504983D01*
X179483073Y-98647519D01*
X179249339Y-98839339D01*
X179065219Y-99063692D01*
X179005748Y-98971604D01*
X178795606Y-98754790D01*
X178547204Y-98583138D01*
X178270087Y-98463245D01*
X178164740Y-98438964D01*
X177927000Y-98559622D01*
X177673000Y-98559622D01*
X177435260Y-98438964D01*
X177329913Y-98463245D01*
X177052796Y-98583138D01*
X176804394Y-98754790D01*
X176594252Y-98971604D01*
X176430446Y-99225249D01*
X176319271Y-99505977D01*
X176265000Y-99803000D01*
X170439919Y-99803000D01*
X170422790Y-99629087D01*
X170335017Y-99339739D01*
X170192481Y-99073073D01*
X170000661Y-98839339D01*
X169766926Y-98647519D01*
X169500260Y-98504983D01*
X169210912Y-98417210D01*
X168910000Y-98387573D01*
X168609087Y-98417210D01*
X168319739Y-98504983D01*
X168053073Y-98647519D01*
X167819339Y-98839339D01*
X167640000Y-99057865D01*
X167460661Y-98839339D01*
X167226926Y-98647519D01*
X166960260Y-98504983D01*
X166670912Y-98417210D01*
X166370000Y-98387573D01*
X166069087Y-98417210D01*
X165779739Y-98504983D01*
X165513073Y-98647519D01*
X165279339Y-98839339D01*
X165095219Y-99063692D01*
X165035748Y-98971604D01*
X164825606Y-98754790D01*
X164577204Y-98583138D01*
X164300087Y-98463245D01*
X164194740Y-98438964D01*
X163957000Y-98559622D01*
X163703000Y-98559622D01*
X163465260Y-98438964D01*
X163359913Y-98463245D01*
X163082796Y-98583138D01*
X162834394Y-98754790D01*
X162624252Y-98971604D01*
X162460446Y-99225249D01*
X162349271Y-99505977D01*
X162295000Y-99803000D01*
X160912654Y-99803000D01*
X160823937Y-99670226D01*
X160679774Y-99526063D01*
X160510256Y-99412795D01*
X160321898Y-99334774D01*
X160121939Y-99295000D01*
X159918061Y-99295000D01*
X159718102Y-99334774D01*
X159529744Y-99412795D01*
X159360226Y-99526063D01*
X159216063Y-99670226D01*
X159102795Y-99839744D01*
X159024774Y-100028102D01*
X158985000Y-100228061D01*
X158985000Y-100431939D01*
X159024774Y-100631898D01*
X159102795Y-100820256D01*
X159135000Y-100868454D01*
X159135001Y-108690519D01*
X159074185Y-108616415D01*
X158977494Y-108537063D01*
X158867180Y-108478098D01*
X158747482Y-108441788D01*
X158623000Y-108429528D01*
X156337000Y-108429528D01*
X156212518Y-108441788D01*
X156092820Y-108478098D01*
X155982506Y-108537063D01*
X155885815Y-108616415D01*
X155806463Y-108713106D01*
X155747498Y-108823420D01*
X155711188Y-108943118D01*
X155698928Y-109067600D01*
X155698928Y-110642400D01*
X155711188Y-110766882D01*
X155747498Y-110886580D01*
X155806463Y-110996894D01*
X155885815Y-111093585D01*
X155982506Y-111172937D01*
X156092820Y-111231902D01*
X156212518Y-111268212D01*
X156250674Y-111271970D01*
X156113745Y-111384345D01*
X155935995Y-111600933D01*
X155803916Y-111848037D01*
X155722581Y-112116161D01*
X155695118Y-112395000D01*
X154712233Y-112395000D01*
X154444463Y-112216082D01*
X154146912Y-112092832D01*
X153831033Y-112030000D01*
X153508967Y-112030000D01*
X153193088Y-112092832D01*
X152895537Y-112216082D01*
X152627748Y-112395013D01*
X152400013Y-112622748D01*
X152221082Y-112890537D01*
X152097832Y-113188088D01*
X152035000Y-113503967D01*
X144495000Y-113503967D01*
X144495000Y-112319775D01*
X144469895Y-112064881D01*
X144370686Y-111737832D01*
X144209579Y-111436422D01*
X143992766Y-111172234D01*
X143728577Y-110955421D01*
X143427167Y-110794314D01*
X143100118Y-110695105D01*
X142760000Y-110661606D01*
X142419881Y-110695105D01*
X142092832Y-110794314D01*
X141791422Y-110955421D01*
X141779755Y-110964995D01*
X141769895Y-110864881D01*
X141670686Y-110537832D01*
X141509579Y-110236422D01*
X141292766Y-109972234D01*
X141028577Y-109755421D01*
X140727167Y-109594314D01*
X140400118Y-109495105D01*
X140060000Y-109461606D01*
X139719881Y-109495105D01*
X139392832Y-109594314D01*
X139091422Y-109755421D01*
X138827234Y-109972234D01*
X138610421Y-110236423D01*
X138449314Y-110537833D01*
X138350105Y-110864882D01*
X138325000Y-111119776D01*
X120900000Y-111119776D01*
X120900000Y-101880041D01*
X120924394Y-101905210D01*
X121172796Y-102076862D01*
X121449913Y-102196755D01*
X121555260Y-102221036D01*
X121793000Y-102100378D01*
X121793000Y-100457000D01*
X121773000Y-100457000D01*
X121773000Y-100203000D01*
X121793000Y-100203000D01*
X121793000Y-98559622D01*
X122047000Y-98559622D01*
X122047000Y-100203000D01*
X122067000Y-100203000D01*
X122067000Y-100457000D01*
X122047000Y-100457000D01*
X122047000Y-102100378D01*
X122284740Y-102221036D01*
X122390087Y-102196755D01*
X122667204Y-102076862D01*
X122915606Y-101905210D01*
X123125748Y-101688396D01*
X123185219Y-101596309D01*
X123369339Y-101820661D01*
X123603074Y-102012481D01*
X123869740Y-102155017D01*
X124159088Y-102242790D01*
X124460000Y-102272427D01*
X124760913Y-102242790D01*
X125050261Y-102155017D01*
X125316927Y-102012481D01*
X125550661Y-101820661D01*
X125730000Y-101602135D01*
X125909339Y-101820661D01*
X126143074Y-102012481D01*
X126409740Y-102155017D01*
X126699088Y-102242790D01*
X127000000Y-102272427D01*
X127300913Y-102242790D01*
X127590261Y-102155017D01*
X127856927Y-102012481D01*
X128090661Y-101820661D01*
X128282481Y-101586927D01*
X128425017Y-101320261D01*
X128512790Y-101030913D01*
X128535000Y-100805407D01*
X128535000Y-99854592D01*
X128512790Y-99629087D01*
X128425017Y-99339739D01*
X128282481Y-99073073D01*
X128090661Y-98839339D01*
X127856926Y-98647519D01*
X127590260Y-98504983D01*
X127300912Y-98417210D01*
X127000000Y-98387573D01*
X126699087Y-98417210D01*
X126409739Y-98504983D01*
X126143073Y-98647519D01*
X125909339Y-98839339D01*
X125730000Y-99057865D01*
X125550661Y-98839339D01*
X125316926Y-98647519D01*
X125050260Y-98504983D01*
X124760912Y-98417210D01*
X124460000Y-98387573D01*
X124159087Y-98417210D01*
X123869739Y-98504983D01*
X123603073Y-98647519D01*
X123369339Y-98839339D01*
X123185219Y-99063692D01*
X123125748Y-98971604D01*
X122915606Y-98754790D01*
X122667204Y-98583138D01*
X122390087Y-98463245D01*
X122284740Y-98438964D01*
X122047000Y-98559622D01*
X121793000Y-98559622D01*
X121555260Y-98438964D01*
X121449913Y-98463245D01*
X121172796Y-98583138D01*
X120964508Y-98727070D01*
X122515050Y-97176529D01*
X122548817Y-97148817D01*
X122576533Y-97115046D01*
X122659411Y-97014059D01*
X122741588Y-96860314D01*
X122741589Y-96860313D01*
X122792195Y-96693490D01*
X122805000Y-96563477D01*
X122805000Y-96563469D01*
X122809281Y-96520000D01*
X122805000Y-96476531D01*
X122805000Y-83088250D01*
X122922463Y-83371831D01*
X123112337Y-83655998D01*
X123354002Y-83897663D01*
X123638169Y-84087537D01*
X123953919Y-84218325D01*
X124289117Y-84285000D01*
X124630883Y-84285000D01*
X124966081Y-84218325D01*
X125281831Y-84087537D01*
X125565998Y-83897663D01*
X125807663Y-83655998D01*
X125997537Y-83371831D01*
X126128325Y-83056081D01*
X126195000Y-82720883D01*
X126195000Y-82379117D01*
X126128325Y-82043919D01*
X125997537Y-81728169D01*
X125807663Y-81444002D01*
X125623341Y-81259680D01*
X125915625Y-81259680D01*
X126279741Y-81187253D01*
X126622731Y-81045182D01*
X126931413Y-80838926D01*
X127193926Y-80576413D01*
X127400182Y-80267731D01*
X127542253Y-79924741D01*
X127614680Y-79560625D01*
X127614680Y-79189375D01*
X127542253Y-78825259D01*
X127416384Y-78521384D01*
X127720259Y-78647253D01*
X128084375Y-78719680D01*
X128455625Y-78719680D01*
X128819741Y-78647253D01*
X129162731Y-78505182D01*
X129471413Y-78298926D01*
X129733926Y-78036413D01*
X129940182Y-77727731D01*
X130082253Y-77384741D01*
X130154680Y-77020625D01*
X130154680Y-76649375D01*
X130082253Y-76285259D01*
X129940182Y-75942269D01*
X129733926Y-75633587D01*
X129471413Y-75371074D01*
X129162731Y-75164818D01*
X128819741Y-75022747D01*
X128455625Y-74950320D01*
X128084375Y-74950320D01*
X127720259Y-75022747D01*
X127384937Y-75161642D01*
X129500051Y-73046528D01*
X129533817Y-73018817D01*
X129600994Y-72936963D01*
X129644411Y-72884059D01*
X129726588Y-72730314D01*
X129726589Y-72730313D01*
X129777195Y-72563490D01*
X129790000Y-72433477D01*
X129790000Y-72433469D01*
X129794281Y-72390000D01*
X129790000Y-72346531D01*
X129790000Y-66406578D01*
X129906579Y-66290000D01*
X136058985Y-66290000D01*
X136026188Y-66398118D01*
X136023540Y-66425000D01*
X132123469Y-66425000D01*
X132080000Y-66420719D01*
X132036531Y-66425000D01*
X132036523Y-66425000D01*
X131906510Y-66437805D01*
X131739686Y-66488411D01*
X131585941Y-66570589D01*
X131484953Y-66653468D01*
X131484951Y-66653470D01*
X131451183Y-66681183D01*
X131423470Y-66714951D01*
X130849956Y-67288466D01*
X130816183Y-67316183D01*
X130705589Y-67450942D01*
X130623411Y-67604688D01*
X130572805Y-67771511D01*
X130560000Y-67901524D01*
X130560000Y-67901531D01*
X130555719Y-67945000D01*
X130560000Y-67988469D01*
X130560001Y-88533420D01*
X130443422Y-88650000D01*
X127043469Y-88650000D01*
X127000000Y-88645719D01*
X126956531Y-88650000D01*
X126956523Y-88650000D01*
X126826510Y-88662805D01*
X126659686Y-88713411D01*
X126505941Y-88795589D01*
X126404953Y-88878468D01*
X126404951Y-88878470D01*
X126371183Y-88906183D01*
X126343470Y-88939951D01*
X125769956Y-89513466D01*
X125736183Y-89541183D01*
X125625589Y-89675942D01*
X125543411Y-89829688D01*
X125492805Y-89996511D01*
X125480000Y-90126524D01*
X125480000Y-90126531D01*
X125475719Y-90170000D01*
X125480000Y-90213469D01*
X125480001Y-96476521D01*
X125475719Y-96520000D01*
X125492805Y-96693490D01*
X125543412Y-96860313D01*
X125625590Y-97014059D01*
X125708468Y-97115046D01*
X125708469Y-97115047D01*
X125736184Y-97148817D01*
X125769952Y-97176530D01*
X126170967Y-97577545D01*
X126198684Y-97611318D01*
X126333442Y-97721912D01*
X126487188Y-97804090D01*
X126654011Y-97854696D01*
X126784024Y-97867501D01*
X126784034Y-97867501D01*
X126827500Y-97871782D01*
X126870966Y-97867501D01*
X131195000Y-97867501D01*
X131195001Y-107724671D01*
X130974002Y-107872337D01*
X130732337Y-108114002D01*
X130542463Y-108398169D01*
X130411675Y-108713919D01*
X130345000Y-109049117D01*
X130345000Y-109390883D01*
X130411675Y-109726081D01*
X130542463Y-110041831D01*
X130732337Y-110325998D01*
X130974002Y-110567663D01*
X131258169Y-110757537D01*
X131573919Y-110888325D01*
X131909117Y-110955000D01*
X132250883Y-110955000D01*
X132586081Y-110888325D01*
X132901831Y-110757537D01*
X133185998Y-110567663D01*
X133326949Y-110426712D01*
X134862893Y-110426712D01*
X134970726Y-110701338D01*
X135277384Y-110852216D01*
X135607585Y-110940369D01*
X135948639Y-110962409D01*
X136287439Y-110917489D01*
X136610966Y-110807336D01*
X136809274Y-110701338D01*
X136917107Y-110426712D01*
X135890000Y-109399605D01*
X134862893Y-110426712D01*
X133326949Y-110426712D01*
X133427663Y-110325998D01*
X133617537Y-110041831D01*
X133748325Y-109726081D01*
X133815000Y-109390883D01*
X133815000Y-109278639D01*
X134147591Y-109278639D01*
X134192511Y-109617439D01*
X134302664Y-109940966D01*
X134408662Y-110139274D01*
X134683288Y-110247107D01*
X135710395Y-109220000D01*
X136069605Y-109220000D01*
X137096712Y-110247107D01*
X137371338Y-110139274D01*
X137522216Y-109832616D01*
X137610369Y-109502415D01*
X137632409Y-109161361D01*
X137598420Y-108905000D01*
X146716606Y-108905000D01*
X146750105Y-109245119D01*
X146849314Y-109572168D01*
X147010421Y-109873578D01*
X147227234Y-110137766D01*
X147491422Y-110354579D01*
X147792832Y-110515686D01*
X148119881Y-110614895D01*
X148374775Y-110640000D01*
X150345225Y-110640000D01*
X150600119Y-110614895D01*
X150927168Y-110515686D01*
X151228578Y-110354579D01*
X151492766Y-110137766D01*
X151709579Y-109873578D01*
X151870686Y-109572168D01*
X151969895Y-109245119D01*
X152003394Y-108905000D01*
X151969895Y-108564881D01*
X151927150Y-108423967D01*
X152035000Y-108423967D01*
X152035000Y-108746033D01*
X152097832Y-109061912D01*
X152221082Y-109359463D01*
X152400013Y-109627252D01*
X152627748Y-109854987D01*
X152895537Y-110033918D01*
X153193088Y-110157168D01*
X153508967Y-110220000D01*
X153831033Y-110220000D01*
X154146912Y-110157168D01*
X154444463Y-110033918D01*
X154712252Y-109854987D01*
X154939987Y-109627252D01*
X155118918Y-109359463D01*
X155242168Y-109061912D01*
X155305000Y-108746033D01*
X155305000Y-108423967D01*
X155242168Y-108108088D01*
X155118918Y-107810537D01*
X154939987Y-107542748D01*
X154712252Y-107315013D01*
X154444463Y-107136082D01*
X154146912Y-107012832D01*
X153831033Y-106950000D01*
X153508967Y-106950000D01*
X153193088Y-107012832D01*
X152895537Y-107136082D01*
X152627748Y-107315013D01*
X152400013Y-107542748D01*
X152221082Y-107810537D01*
X152097832Y-108108088D01*
X152035000Y-108423967D01*
X151927150Y-108423967D01*
X151870686Y-108237832D01*
X151709579Y-107936422D01*
X151492766Y-107672234D01*
X151228578Y-107455421D01*
X150927168Y-107294314D01*
X150600119Y-107195105D01*
X150345225Y-107170000D01*
X148374775Y-107170000D01*
X148119881Y-107195105D01*
X147792832Y-107294314D01*
X147491422Y-107455421D01*
X147227234Y-107672234D01*
X147010421Y-107936422D01*
X146849314Y-108237832D01*
X146750105Y-108564881D01*
X146716606Y-108905000D01*
X137598420Y-108905000D01*
X137587489Y-108822561D01*
X137477336Y-108499034D01*
X137371338Y-108300726D01*
X137096712Y-108192893D01*
X136069605Y-109220000D01*
X135710395Y-109220000D01*
X134683288Y-108192893D01*
X134408662Y-108300726D01*
X134257784Y-108607384D01*
X134169631Y-108937585D01*
X134147591Y-109278639D01*
X133815000Y-109278639D01*
X133815000Y-109049117D01*
X133748325Y-108713919D01*
X133617537Y-108398169D01*
X133427663Y-108114002D01*
X133326949Y-108013288D01*
X134862893Y-108013288D01*
X135890000Y-109040395D01*
X136917107Y-108013288D01*
X136809274Y-107738662D01*
X136502616Y-107587784D01*
X136172415Y-107499631D01*
X135831361Y-107477591D01*
X135492561Y-107522511D01*
X135169034Y-107632664D01*
X134970726Y-107738662D01*
X134862893Y-108013288D01*
X133326949Y-108013288D01*
X133185998Y-107872337D01*
X132965000Y-107724671D01*
X132965000Y-100457000D01*
X134355000Y-100457000D01*
X134355000Y-100857000D01*
X134409271Y-101154023D01*
X134520446Y-101434751D01*
X134684252Y-101688396D01*
X134894394Y-101905210D01*
X135142796Y-102076862D01*
X135419913Y-102196755D01*
X135525260Y-102221036D01*
X135763000Y-102100378D01*
X135763000Y-100457000D01*
X134355000Y-100457000D01*
X132965000Y-100457000D01*
X132965000Y-99803000D01*
X134355000Y-99803000D01*
X134355000Y-100203000D01*
X135763000Y-100203000D01*
X135763000Y-98559622D01*
X136017000Y-98559622D01*
X136017000Y-100203000D01*
X136037000Y-100203000D01*
X136037000Y-100457000D01*
X136017000Y-100457000D01*
X136017000Y-102100378D01*
X136254740Y-102221036D01*
X136360087Y-102196755D01*
X136637204Y-102076862D01*
X136885606Y-101905210D01*
X137095748Y-101688396D01*
X137155219Y-101596309D01*
X137339339Y-101820661D01*
X137573074Y-102012481D01*
X137839740Y-102155017D01*
X138129088Y-102242790D01*
X138430000Y-102272427D01*
X138730913Y-102242790D01*
X139020261Y-102155017D01*
X139286927Y-102012481D01*
X139520661Y-101820661D01*
X139700000Y-101602135D01*
X139879339Y-101820661D01*
X140113074Y-102012481D01*
X140379740Y-102155017D01*
X140669088Y-102242790D01*
X140970000Y-102272427D01*
X141270913Y-102242790D01*
X141560261Y-102155017D01*
X141826927Y-102012481D01*
X142060661Y-101820661D01*
X142252481Y-101586927D01*
X142395017Y-101320261D01*
X142482790Y-101030913D01*
X142505000Y-100805407D01*
X142505000Y-100457000D01*
X148325000Y-100457000D01*
X148325000Y-100857000D01*
X148379271Y-101154023D01*
X148490446Y-101434751D01*
X148654252Y-101688396D01*
X148864394Y-101905210D01*
X149112796Y-102076862D01*
X149389913Y-102196755D01*
X149495260Y-102221036D01*
X149733000Y-102100378D01*
X149733000Y-100457000D01*
X148325000Y-100457000D01*
X142505000Y-100457000D01*
X142505000Y-99854592D01*
X142499919Y-99803000D01*
X148325000Y-99803000D01*
X148325000Y-100203000D01*
X149733000Y-100203000D01*
X149733000Y-98559622D01*
X149987000Y-98559622D01*
X149987000Y-100203000D01*
X150007000Y-100203000D01*
X150007000Y-100457000D01*
X149987000Y-100457000D01*
X149987000Y-102100378D01*
X150224740Y-102221036D01*
X150330087Y-102196755D01*
X150607204Y-102076862D01*
X150855606Y-101905210D01*
X151065748Y-101688396D01*
X151125219Y-101596309D01*
X151309339Y-101820661D01*
X151543074Y-102012481D01*
X151809740Y-102155017D01*
X152099088Y-102242790D01*
X152400000Y-102272427D01*
X152700913Y-102242790D01*
X152990261Y-102155017D01*
X153256927Y-102012481D01*
X153490661Y-101820661D01*
X153670000Y-101602135D01*
X153849339Y-101820661D01*
X154083074Y-102012481D01*
X154349740Y-102155017D01*
X154639088Y-102242790D01*
X154940000Y-102272427D01*
X155240913Y-102242790D01*
X155530261Y-102155017D01*
X155796927Y-102012481D01*
X156030661Y-101820661D01*
X156222481Y-101586927D01*
X156365017Y-101320261D01*
X156452790Y-101030913D01*
X156475000Y-100805407D01*
X156475000Y-99854592D01*
X156452790Y-99629087D01*
X156365017Y-99339739D01*
X156222481Y-99073073D01*
X156030661Y-98839339D01*
X155796926Y-98647519D01*
X155530260Y-98504983D01*
X155240912Y-98417210D01*
X154940000Y-98387573D01*
X154639087Y-98417210D01*
X154349739Y-98504983D01*
X154083073Y-98647519D01*
X153849339Y-98839339D01*
X153670000Y-99057865D01*
X153490661Y-98839339D01*
X153256926Y-98647519D01*
X152990260Y-98504983D01*
X152700912Y-98417210D01*
X152400000Y-98387573D01*
X152099087Y-98417210D01*
X151809739Y-98504983D01*
X151543073Y-98647519D01*
X151309339Y-98839339D01*
X151125219Y-99063692D01*
X151065748Y-98971604D01*
X150855606Y-98754790D01*
X150607204Y-98583138D01*
X150330087Y-98463245D01*
X150224740Y-98438964D01*
X149987000Y-98559622D01*
X149733000Y-98559622D01*
X149495260Y-98438964D01*
X149389913Y-98463245D01*
X149112796Y-98583138D01*
X148864394Y-98754790D01*
X148654252Y-98971604D01*
X148490446Y-99225249D01*
X148379271Y-99505977D01*
X148325000Y-99803000D01*
X142499919Y-99803000D01*
X142482790Y-99629087D01*
X142395017Y-99339739D01*
X142252481Y-99073073D01*
X142060661Y-98839339D01*
X141826926Y-98647519D01*
X141560260Y-98504983D01*
X141270912Y-98417210D01*
X140970000Y-98387573D01*
X140669087Y-98417210D01*
X140379739Y-98504983D01*
X140113073Y-98647519D01*
X139879339Y-98839339D01*
X139700000Y-99057865D01*
X139520661Y-98839339D01*
X139286926Y-98647519D01*
X139020260Y-98504983D01*
X138730912Y-98417210D01*
X138430000Y-98387573D01*
X138129087Y-98417210D01*
X137839739Y-98504983D01*
X137573073Y-98647519D01*
X137339339Y-98839339D01*
X137155219Y-99063692D01*
X137095748Y-98971604D01*
X136885606Y-98754790D01*
X136637204Y-98583138D01*
X136360087Y-98463245D01*
X136254740Y-98438964D01*
X136017000Y-98559622D01*
X135763000Y-98559622D01*
X135525260Y-98438964D01*
X135419913Y-98463245D01*
X135142796Y-98583138D01*
X134894394Y-98754790D01*
X134684252Y-98971604D01*
X134520446Y-99225249D01*
X134409271Y-99505977D01*
X134355000Y-99803000D01*
X132965000Y-99803000D01*
X132965000Y-97198465D01*
X132969281Y-97154999D01*
X132965000Y-97111533D01*
X132965000Y-97111523D01*
X132952195Y-96981510D01*
X132901589Y-96814687D01*
X132819411Y-96660941D01*
X132708817Y-96526183D01*
X132675045Y-96498467D01*
X132564033Y-96387455D01*
X132536318Y-96353684D01*
X132401560Y-96243090D01*
X132247814Y-96160912D01*
X132080991Y-96110306D01*
X131950978Y-96097501D01*
X131950970Y-96097501D01*
X131907501Y-96093220D01*
X131864032Y-96097501D01*
X127250000Y-96097501D01*
X127250000Y-94339638D01*
X127486462Y-94693529D01*
X127797771Y-95004838D01*
X128163831Y-95249431D01*
X128570575Y-95417910D01*
X129002372Y-95503800D01*
X129442628Y-95503800D01*
X129874425Y-95417910D01*
X130281169Y-95249431D01*
X130647229Y-95004838D01*
X130958538Y-94693529D01*
X131203131Y-94327469D01*
X131371610Y-93920725D01*
X131445000Y-93551770D01*
X131518390Y-93920725D01*
X131686869Y-94327469D01*
X131931462Y-94693529D01*
X132242771Y-95004838D01*
X132608831Y-95249431D01*
X133015575Y-95417910D01*
X133447372Y-95503800D01*
X133887628Y-95503800D01*
X134319425Y-95417910D01*
X134726169Y-95249431D01*
X135092229Y-95004838D01*
X135403538Y-94693529D01*
X135648131Y-94327469D01*
X135816610Y-93920725D01*
X135902500Y-93488928D01*
X135902500Y-93048672D01*
X140957500Y-93048672D01*
X140957500Y-93488928D01*
X141043390Y-93920725D01*
X141211869Y-94327469D01*
X141456462Y-94693529D01*
X141767771Y-95004838D01*
X142133831Y-95249431D01*
X142540575Y-95417910D01*
X142972372Y-95503800D01*
X143412628Y-95503800D01*
X143844425Y-95417910D01*
X144251169Y-95249431D01*
X144617229Y-95004838D01*
X144928538Y-94693529D01*
X145173131Y-94327469D01*
X145341610Y-93920725D01*
X145415000Y-93551770D01*
X145488390Y-93920725D01*
X145656869Y-94327469D01*
X145901462Y-94693529D01*
X146212771Y-95004838D01*
X146578831Y-95249431D01*
X146985575Y-95417910D01*
X147417372Y-95503800D01*
X147857628Y-95503800D01*
X148289425Y-95417910D01*
X148696169Y-95249431D01*
X149062229Y-95004838D01*
X149373538Y-94693529D01*
X149618131Y-94327469D01*
X149786610Y-93920725D01*
X149872500Y-93488928D01*
X149872500Y-93048672D01*
X149786610Y-92616875D01*
X149618131Y-92210131D01*
X149373538Y-91844071D01*
X149219467Y-91690000D01*
X155580533Y-91690000D01*
X155426462Y-91844071D01*
X155181869Y-92210131D01*
X155013390Y-92616875D01*
X154927500Y-93048672D01*
X154927500Y-93488928D01*
X155013390Y-93920725D01*
X155181869Y-94327469D01*
X155426462Y-94693529D01*
X155737771Y-95004838D01*
X156103831Y-95249431D01*
X156510575Y-95417910D01*
X156942372Y-95503800D01*
X157382628Y-95503800D01*
X157814425Y-95417910D01*
X158221169Y-95249431D01*
X158587229Y-95004838D01*
X158898538Y-94693529D01*
X159143131Y-94327469D01*
X159311610Y-93920725D01*
X159385000Y-93551770D01*
X159458390Y-93920725D01*
X159626869Y-94327469D01*
X159871462Y-94693529D01*
X160182771Y-95004838D01*
X160548831Y-95249431D01*
X160955575Y-95417910D01*
X161387372Y-95503800D01*
X161827628Y-95503800D01*
X162259425Y-95417910D01*
X162666169Y-95249431D01*
X163032229Y-95004838D01*
X163343538Y-94693529D01*
X163588131Y-94327469D01*
X163756610Y-93920725D01*
X163842500Y-93488928D01*
X163842500Y-93048672D01*
X168897500Y-93048672D01*
X168897500Y-93488928D01*
X168983390Y-93920725D01*
X169151869Y-94327469D01*
X169396462Y-94693529D01*
X169707771Y-95004838D01*
X170073831Y-95249431D01*
X170480575Y-95417910D01*
X170912372Y-95503800D01*
X171352628Y-95503800D01*
X171784425Y-95417910D01*
X172191169Y-95249431D01*
X172557229Y-95004838D01*
X172868538Y-94693529D01*
X173113131Y-94327469D01*
X173281610Y-93920725D01*
X173355000Y-93551770D01*
X173428390Y-93920725D01*
X173596869Y-94327469D01*
X173841462Y-94693529D01*
X174152771Y-95004838D01*
X174518831Y-95249431D01*
X174925575Y-95417910D01*
X175357372Y-95503800D01*
X175797628Y-95503800D01*
X176229425Y-95417910D01*
X176636169Y-95249431D01*
X177002229Y-95004838D01*
X177313538Y-94693529D01*
X177558131Y-94327469D01*
X177726610Y-93920725D01*
X177812500Y-93488928D01*
X177812500Y-93048672D01*
X177726610Y-92616875D01*
X177558131Y-92210131D01*
X177313538Y-91844071D01*
X177002229Y-91532762D01*
X176636169Y-91288169D01*
X176229425Y-91119690D01*
X175797628Y-91033800D01*
X175357372Y-91033800D01*
X174925575Y-91119690D01*
X174518831Y-91288169D01*
X174152771Y-91532762D01*
X173841462Y-91844071D01*
X173596869Y-92210131D01*
X173428390Y-92616875D01*
X173355000Y-92985830D01*
X173281610Y-92616875D01*
X173113131Y-92210131D01*
X172868538Y-91844071D01*
X172557229Y-91532762D01*
X172191169Y-91288169D01*
X171784425Y-91119690D01*
X171352628Y-91033800D01*
X170912372Y-91033800D01*
X170480575Y-91119690D01*
X170073831Y-91288169D01*
X169707771Y-91532762D01*
X169396462Y-91844071D01*
X169151869Y-92210131D01*
X168983390Y-92616875D01*
X168897500Y-93048672D01*
X163842500Y-93048672D01*
X163756610Y-92616875D01*
X163588131Y-92210131D01*
X163343538Y-91844071D01*
X163189467Y-91690000D01*
X165831546Y-91690000D01*
X165879744Y-91722205D01*
X166068102Y-91800226D01*
X166268061Y-91840000D01*
X166471939Y-91840000D01*
X166671898Y-91800226D01*
X166860256Y-91722205D01*
X167029774Y-91608937D01*
X167173937Y-91464774D01*
X167287205Y-91295256D01*
X167365226Y-91106898D01*
X167405000Y-90906939D01*
X167405000Y-90703061D01*
X167365226Y-90503102D01*
X167287205Y-90314744D01*
X167173937Y-90145226D01*
X167029774Y-90001063D01*
X166860256Y-89887795D01*
X166671898Y-89809774D01*
X166547350Y-89785000D01*
X179801546Y-89785000D01*
X179849744Y-89817205D01*
X180038102Y-89895226D01*
X180238061Y-89935000D01*
X180441939Y-89935000D01*
X180641898Y-89895226D01*
X180830256Y-89817205D01*
X180999774Y-89703937D01*
X181143937Y-89559774D01*
X181257205Y-89390256D01*
X181335226Y-89201898D01*
X181375000Y-89001939D01*
X181375000Y-88798061D01*
X181335226Y-88598102D01*
X181257205Y-88409744D01*
X181143937Y-88240226D01*
X180999774Y-88096063D01*
X180830256Y-87982795D01*
X180641898Y-87904774D01*
X180441939Y-87865000D01*
X180238061Y-87865000D01*
X180038102Y-87904774D01*
X179849744Y-87982795D01*
X179801546Y-88015000D01*
X157383454Y-88015000D01*
X157335256Y-87982795D01*
X157146898Y-87904774D01*
X156946939Y-87865000D01*
X156743061Y-87865000D01*
X156543102Y-87904774D01*
X156354744Y-87982795D01*
X156185226Y-88096063D01*
X156041063Y-88240226D01*
X155927795Y-88409744D01*
X155849774Y-88598102D01*
X155810000Y-88798061D01*
X155810000Y-89001939D01*
X155849774Y-89201898D01*
X155927795Y-89390256D01*
X156041063Y-89559774D01*
X156185226Y-89703937D01*
X156354744Y-89817205D01*
X156543102Y-89895226D01*
X156667650Y-89920000D01*
X144515549Y-89920000D01*
X144505226Y-89868102D01*
X144427205Y-89679744D01*
X144313937Y-89510226D01*
X144169774Y-89366063D01*
X144000256Y-89252795D01*
X143811898Y-89174774D01*
X143611939Y-89135000D01*
X143408061Y-89135000D01*
X143208102Y-89174774D01*
X143019744Y-89252795D01*
X142850226Y-89366063D01*
X142706063Y-89510226D01*
X142592795Y-89679744D01*
X142514774Y-89868102D01*
X142475000Y-90068061D01*
X142475000Y-90271939D01*
X142514774Y-90471898D01*
X142592795Y-90660256D01*
X142706063Y-90829774D01*
X142850226Y-90973937D01*
X142947286Y-91038790D01*
X142540575Y-91119690D01*
X142133831Y-91288169D01*
X141767771Y-91532762D01*
X141456462Y-91844071D01*
X141211869Y-92210131D01*
X141043390Y-92616875D01*
X140957500Y-93048672D01*
X135902500Y-93048672D01*
X135816610Y-92616875D01*
X135648131Y-92210131D01*
X135403538Y-91844071D01*
X135092229Y-91532762D01*
X134726169Y-91288169D01*
X134319425Y-91119690D01*
X133887628Y-91033800D01*
X133447372Y-91033800D01*
X133015575Y-91119690D01*
X132608831Y-91288169D01*
X132242771Y-91532762D01*
X131931462Y-91844071D01*
X131686869Y-92210131D01*
X131518390Y-92616875D01*
X131445000Y-92985830D01*
X131371610Y-92616875D01*
X131203131Y-92210131D01*
X130958538Y-91844071D01*
X130647229Y-91532762D01*
X130281169Y-91288169D01*
X129874425Y-91119690D01*
X129442628Y-91033800D01*
X129002372Y-91033800D01*
X128570575Y-91119690D01*
X128163831Y-91288169D01*
X127797771Y-91532762D01*
X127486462Y-91844071D01*
X127250000Y-92197962D01*
X127250000Y-90536578D01*
X127366579Y-90420000D01*
X130766531Y-90420000D01*
X130810000Y-90424281D01*
X130853469Y-90420000D01*
X130853477Y-90420000D01*
X130983490Y-90407195D01*
X131150313Y-90356589D01*
X131304059Y-90274411D01*
X131438817Y-90163817D01*
X131466534Y-90130044D01*
X132040049Y-89556530D01*
X132073817Y-89528817D01*
X132169022Y-89412811D01*
X132184411Y-89394059D01*
X132266589Y-89240314D01*
X132317195Y-89073490D01*
X132330000Y-88943477D01*
X132330000Y-88943469D01*
X132334281Y-88900000D01*
X132330000Y-88856531D01*
X132330000Y-68311578D01*
X132446579Y-68195000D01*
X136023540Y-68195000D01*
X136026188Y-68221882D01*
X136062498Y-68341580D01*
X136121463Y-68451894D01*
X136200815Y-68548585D01*
X136297506Y-68627937D01*
X136407820Y-68686902D01*
X136527518Y-68723212D01*
X136565674Y-68726970D01*
X136428745Y-68839345D01*
X136250995Y-69055933D01*
X136118916Y-69303037D01*
X136037581Y-69571161D01*
X136010118Y-69850000D01*
X136037581Y-70128839D01*
X136118916Y-70396963D01*
X136250995Y-70644067D01*
X136428745Y-70860655D01*
X136645333Y-71038405D01*
X136797987Y-71120000D01*
X136645333Y-71201595D01*
X136428745Y-71379345D01*
X136250995Y-71595933D01*
X136118916Y-71843037D01*
X136037581Y-72111161D01*
X136010118Y-72390000D01*
X136037581Y-72668839D01*
X136118916Y-72936963D01*
X136250995Y-73184067D01*
X136428745Y-73400655D01*
X136645333Y-73578405D01*
X136797987Y-73660000D01*
X136645333Y-73741595D01*
X136428745Y-73919345D01*
X136250995Y-74135933D01*
X136118916Y-74383037D01*
X136037581Y-74651161D01*
X136010118Y-74930000D01*
X136037581Y-75208839D01*
X136118916Y-75476963D01*
X136250995Y-75724067D01*
X136428745Y-75940655D01*
X136645333Y-76118405D01*
X136797987Y-76200000D01*
X136645333Y-76281595D01*
X136428745Y-76459345D01*
X136250995Y-76675933D01*
X136118916Y-76923037D01*
X136037581Y-77191161D01*
X136010118Y-77470000D01*
X136037581Y-77748839D01*
X136118916Y-78016963D01*
X136250995Y-78264067D01*
X136428745Y-78480655D01*
X136645333Y-78658405D01*
X136797987Y-78740000D01*
X136645333Y-78821595D01*
X136428745Y-78999345D01*
X136250995Y-79215933D01*
X136118916Y-79463037D01*
X136037581Y-79731161D01*
X136010118Y-80010000D01*
X136037581Y-80288839D01*
X136118916Y-80556963D01*
X136250995Y-80804067D01*
X136428745Y-81020655D01*
X136645333Y-81198405D01*
X136797987Y-81280000D01*
X136645333Y-81361595D01*
X136428745Y-81539345D01*
X136250995Y-81755933D01*
X136118916Y-82003037D01*
X136037581Y-82271161D01*
X136010118Y-82550000D01*
X136037581Y-82828839D01*
X136118916Y-83096963D01*
X136250995Y-83344067D01*
X136428745Y-83560655D01*
X136645333Y-83738405D01*
X136892437Y-83870484D01*
X136910000Y-83875812D01*
X136910000Y-85046531D01*
X136905719Y-85090000D01*
X136910000Y-85133469D01*
X136910000Y-85133476D01*
X136922805Y-85263489D01*
X136973411Y-85430312D01*
X137055589Y-85584058D01*
X137166183Y-85718817D01*
X137199956Y-85746534D01*
X137773470Y-86320049D01*
X137801183Y-86353817D01*
X137834951Y-86381530D01*
X137834953Y-86381532D01*
X137935941Y-86464411D01*
X138089686Y-86546589D01*
X138256510Y-86597195D01*
X138386523Y-86610000D01*
X138386531Y-86610000D01*
X138430000Y-86614281D01*
X138473469Y-86610000D01*
X172041531Y-86610000D01*
X172085000Y-86614281D01*
X172128469Y-86610000D01*
X172128477Y-86610000D01*
X172258490Y-86597195D01*
X172425313Y-86546589D01*
X172579059Y-86464411D01*
X172713817Y-86353817D01*
X172741534Y-86320044D01*
X173315049Y-85746530D01*
X173348817Y-85718817D01*
X173376533Y-85685046D01*
X173459411Y-85584059D01*
X173541589Y-85430314D01*
X173592195Y-85263490D01*
X173595401Y-85230941D01*
X173605000Y-85133477D01*
X173605000Y-85133469D01*
X173609281Y-85090000D01*
X173605000Y-85046531D01*
X173605000Y-84045329D01*
X173825998Y-83897663D01*
X174067663Y-83655998D01*
X174257537Y-83371831D01*
X174388325Y-83056081D01*
X174455000Y-82720883D01*
X174455000Y-82379117D01*
X178605000Y-82379117D01*
X178605000Y-82720883D01*
X178671675Y-83056081D01*
X178802463Y-83371831D01*
X178992337Y-83655998D01*
X179234002Y-83897663D01*
X179518169Y-84087537D01*
X179833919Y-84218325D01*
X180169117Y-84285000D01*
X180510883Y-84285000D01*
X180846081Y-84218325D01*
X181161831Y-84087537D01*
X181445998Y-83897663D01*
X181687663Y-83655998D01*
X181877537Y-83371831D01*
X182008325Y-83056081D01*
X182075000Y-82720883D01*
X182075000Y-82379117D01*
X182008325Y-82043919D01*
X181877537Y-81728169D01*
X181687663Y-81444002D01*
X181445998Y-81202337D01*
X181161831Y-81012463D01*
X180846081Y-80881675D01*
X180510883Y-80815000D01*
X180169117Y-80815000D01*
X179833919Y-80881675D01*
X179518169Y-81012463D01*
X179234002Y-81202337D01*
X178992337Y-81444002D01*
X178802463Y-81728169D01*
X178671675Y-82043919D01*
X178605000Y-82379117D01*
X174455000Y-82379117D01*
X174388325Y-82043919D01*
X174257537Y-81728169D01*
X174067663Y-81444002D01*
X173825998Y-81202337D01*
X173541831Y-81012463D01*
X173226081Y-80881675D01*
X172890883Y-80815000D01*
X172549117Y-80815000D01*
X172213919Y-80881675D01*
X171898169Y-81012463D01*
X171614002Y-81202337D01*
X171372337Y-81444002D01*
X171182463Y-81728169D01*
X171051675Y-82043919D01*
X170985000Y-82379117D01*
X170985000Y-82720883D01*
X171051675Y-83056081D01*
X171182463Y-83371831D01*
X171372337Y-83655998D01*
X171614002Y-83897663D01*
X171835001Y-84045329D01*
X171835001Y-84723421D01*
X171718422Y-84840000D01*
X138796579Y-84840000D01*
X138680000Y-84723422D01*
X138680000Y-84538361D01*
X138722246Y-84525546D01*
X138854275Y-84454974D01*
X138970001Y-84360001D01*
X139010244Y-84310964D01*
X139035651Y-84297384D01*
X139151376Y-84202411D01*
X139175178Y-84173408D01*
X139774014Y-83574573D01*
X139803011Y-83550776D01*
X139833665Y-83513424D01*
X139897984Y-83435052D01*
X139968556Y-83303022D01*
X139988239Y-83238134D01*
X140012013Y-83159761D01*
X140023010Y-83048108D01*
X140023010Y-83048099D01*
X140026686Y-83010776D01*
X140023010Y-82973453D01*
X140023010Y-82126547D01*
X140026686Y-82089224D01*
X140023010Y-82051901D01*
X140023010Y-82051892D01*
X140012013Y-81940239D01*
X139968556Y-81796978D01*
X139946617Y-81755933D01*
X139897984Y-81664948D01*
X139826809Y-81578222D01*
X139803011Y-81549224D01*
X139774012Y-81525425D01*
X139209930Y-80961344D01*
X139339005Y-80804067D01*
X139471084Y-80556963D01*
X139552419Y-80288839D01*
X139579882Y-80010000D01*
X139552419Y-79731161D01*
X139471084Y-79463037D01*
X139339005Y-79215933D01*
X139161255Y-78999345D01*
X138944667Y-78821595D01*
X138792013Y-78740000D01*
X138944667Y-78658405D01*
X139161255Y-78480655D01*
X139339005Y-78264067D01*
X139471084Y-78016963D01*
X139552419Y-77748839D01*
X139579882Y-77470000D01*
X139552419Y-77191161D01*
X139471084Y-76923037D01*
X139339005Y-76675933D01*
X139161255Y-76459345D01*
X138944667Y-76281595D01*
X138792013Y-76200000D01*
X138944667Y-76118405D01*
X139161255Y-75940655D01*
X139339005Y-75724067D01*
X139471084Y-75476963D01*
X139552419Y-75208839D01*
X139579882Y-74930000D01*
X139552419Y-74651161D01*
X139471084Y-74383037D01*
X139339005Y-74135933D01*
X139161255Y-73919345D01*
X138944667Y-73741595D01*
X138792013Y-73660000D01*
X138944667Y-73578405D01*
X139161255Y-73400655D01*
X139339005Y-73184067D01*
X139471084Y-72936963D01*
X139552419Y-72668839D01*
X139579882Y-72390000D01*
X139552419Y-72111161D01*
X139471084Y-71843037D01*
X139339005Y-71595933D01*
X139161255Y-71379345D01*
X138944667Y-71201595D01*
X138792013Y-71120000D01*
X138944667Y-71038405D01*
X139161255Y-70860655D01*
X139339005Y-70644067D01*
X139471084Y-70396963D01*
X139552419Y-70128839D01*
X139579882Y-69850000D01*
X139552419Y-69571161D01*
X139471084Y-69303037D01*
X139339005Y-69055933D01*
X139161255Y-68839345D01*
X139024326Y-68726970D01*
X139062482Y-68723212D01*
X139182180Y-68686902D01*
X139292494Y-68627937D01*
X139389185Y-68548585D01*
X139468537Y-68451894D01*
X139527502Y-68341580D01*
X139563812Y-68221882D01*
X139576072Y-68097400D01*
X139576072Y-66522600D01*
X139563812Y-66398118D01*
X139531015Y-66290000D01*
X150128422Y-66290000D01*
X150245000Y-66406579D01*
X150245001Y-76791521D01*
X150240719Y-76835000D01*
X150257805Y-77008490D01*
X150308412Y-77175313D01*
X150390590Y-77329059D01*
X150473468Y-77430046D01*
X150473471Y-77430049D01*
X150501184Y-77463817D01*
X150534951Y-77491529D01*
X151108470Y-78065049D01*
X151136183Y-78098817D01*
X151169951Y-78126530D01*
X151169953Y-78126532D01*
X151270941Y-78209411D01*
X151424686Y-78291589D01*
X151448873Y-78298926D01*
X151543049Y-78327494D01*
X151668745Y-78480655D01*
X151885333Y-78658405D01*
X152037987Y-78740000D01*
X151885333Y-78821595D01*
X151668745Y-78999345D01*
X151490995Y-79215933D01*
X151358916Y-79463037D01*
X151277581Y-79731161D01*
X151250118Y-80010000D01*
X151277581Y-80288839D01*
X151358916Y-80556963D01*
X151490995Y-80804067D01*
X151668745Y-81020655D01*
X151885333Y-81198405D01*
X152037987Y-81280000D01*
X151885333Y-81361595D01*
X151668745Y-81539345D01*
X151490995Y-81755933D01*
X151358916Y-82003037D01*
X151277581Y-82271161D01*
X151250118Y-82550000D01*
X151277581Y-82828839D01*
X151358916Y-83096963D01*
X151490995Y-83344067D01*
X151668745Y-83560655D01*
X151885333Y-83738405D01*
X152132437Y-83870484D01*
X152400561Y-83951819D01*
X152609525Y-83972400D01*
X153460475Y-83972400D01*
X153669439Y-83951819D01*
X153937563Y-83870484D01*
X154184667Y-83738405D01*
X154401255Y-83560655D01*
X154579005Y-83344067D01*
X154711084Y-83096963D01*
X154792419Y-82828839D01*
X154819882Y-82550000D01*
X154803052Y-82379117D01*
X158285000Y-82379117D01*
X158285000Y-82720883D01*
X158351675Y-83056081D01*
X158482463Y-83371831D01*
X158672337Y-83655998D01*
X158914002Y-83897663D01*
X159198169Y-84087537D01*
X159513919Y-84218325D01*
X159849117Y-84285000D01*
X160190883Y-84285000D01*
X160526081Y-84218325D01*
X160841831Y-84087537D01*
X161125998Y-83897663D01*
X161367663Y-83655998D01*
X161557537Y-83371831D01*
X161688325Y-83056081D01*
X161755000Y-82720883D01*
X161755000Y-82379117D01*
X165905000Y-82379117D01*
X165905000Y-82720883D01*
X165971675Y-83056081D01*
X166102463Y-83371831D01*
X166292337Y-83655998D01*
X166534002Y-83897663D01*
X166818169Y-84087537D01*
X167133919Y-84218325D01*
X167469117Y-84285000D01*
X167810883Y-84285000D01*
X168146081Y-84218325D01*
X168461831Y-84087537D01*
X168745998Y-83897663D01*
X168987663Y-83655998D01*
X169177537Y-83371831D01*
X169308325Y-83056081D01*
X169375000Y-82720883D01*
X169375000Y-82379117D01*
X169308325Y-82043919D01*
X169177537Y-81728169D01*
X168987663Y-81444002D01*
X168745998Y-81202337D01*
X168461831Y-81012463D01*
X168146081Y-80881675D01*
X167810883Y-80815000D01*
X167469117Y-80815000D01*
X167133919Y-80881675D01*
X166818169Y-81012463D01*
X166534002Y-81202337D01*
X166292337Y-81444002D01*
X166102463Y-81728169D01*
X165971675Y-82043919D01*
X165905000Y-82379117D01*
X161755000Y-82379117D01*
X161688325Y-82043919D01*
X161557537Y-81728169D01*
X161367663Y-81444002D01*
X161125998Y-81202337D01*
X160841831Y-81012463D01*
X160526081Y-80881675D01*
X160190883Y-80815000D01*
X159849117Y-80815000D01*
X159513919Y-80881675D01*
X159198169Y-81012463D01*
X158914002Y-81202337D01*
X158672337Y-81444002D01*
X158482463Y-81728169D01*
X158351675Y-82043919D01*
X158285000Y-82379117D01*
X154803052Y-82379117D01*
X154792419Y-82271161D01*
X154711084Y-82003037D01*
X154579005Y-81755933D01*
X154401255Y-81539345D01*
X154184667Y-81361595D01*
X154032013Y-81280000D01*
X154184667Y-81198405D01*
X154401255Y-81020655D01*
X154579005Y-80804067D01*
X154711084Y-80556963D01*
X154792419Y-80288839D01*
X154819882Y-80010000D01*
X154792419Y-79731161D01*
X154711084Y-79463037D01*
X154579005Y-79215933D01*
X154401255Y-78999345D01*
X154184667Y-78821595D01*
X154032013Y-78740000D01*
X154184667Y-78658405D01*
X154401255Y-78480655D01*
X154579005Y-78264067D01*
X154711084Y-78016963D01*
X154792419Y-77748839D01*
X154819882Y-77470000D01*
X154792419Y-77191161D01*
X154711084Y-76923037D01*
X154579005Y-76675933D01*
X154401255Y-76459345D01*
X154184667Y-76281595D01*
X154032013Y-76200000D01*
X154184667Y-76118405D01*
X154401255Y-75940655D01*
X154504378Y-75815000D01*
X160974857Y-75815000D01*
X160889818Y-75942269D01*
X160747747Y-76285259D01*
X160675320Y-76649375D01*
X160675320Y-77020625D01*
X160747747Y-77384741D01*
X160889818Y-77727731D01*
X161096074Y-78036413D01*
X161358587Y-78298926D01*
X161667269Y-78505182D01*
X162010259Y-78647253D01*
X162374375Y-78719680D01*
X162745625Y-78719680D01*
X163109741Y-78647253D01*
X163413616Y-78521384D01*
X163287747Y-78825259D01*
X163215320Y-79189375D01*
X163215320Y-79560625D01*
X163287747Y-79924741D01*
X163429818Y-80267731D01*
X163636074Y-80576413D01*
X163898587Y-80838926D01*
X164207269Y-81045182D01*
X164550259Y-81187253D01*
X164914375Y-81259680D01*
X165285625Y-81259680D01*
X165649741Y-81187253D01*
X165992731Y-81045182D01*
X166301413Y-80838926D01*
X166563926Y-80576413D01*
X166770182Y-80267731D01*
X166912253Y-79924741D01*
X166984680Y-79560625D01*
X166984680Y-79189375D01*
X166912253Y-78825259D01*
X166770182Y-78482269D01*
X166563926Y-78173587D01*
X166538716Y-78148377D01*
X169046229Y-78148377D01*
X169172104Y-78438315D01*
X169504262Y-78604139D01*
X169862387Y-78701975D01*
X170232719Y-78728065D01*
X170601025Y-78681405D01*
X170953151Y-78563789D01*
X171187896Y-78438315D01*
X171313771Y-78148377D01*
X170180000Y-77014605D01*
X169046229Y-78148377D01*
X166538716Y-78148377D01*
X166301413Y-77911074D01*
X165992731Y-77704818D01*
X165649741Y-77562747D01*
X165285625Y-77490320D01*
X164914375Y-77490320D01*
X164550259Y-77562747D01*
X164246384Y-77688616D01*
X164372253Y-77384741D01*
X164444680Y-77020625D01*
X164444680Y-76649375D01*
X164372253Y-76285259D01*
X164230182Y-75942269D01*
X164145143Y-75815000D01*
X168604565Y-75815000D01*
X168576685Y-75827104D01*
X168410861Y-76159262D01*
X168313025Y-76517387D01*
X168286935Y-76887719D01*
X168333595Y-77256025D01*
X168451211Y-77608151D01*
X168576685Y-77842896D01*
X168866623Y-77968771D01*
X170000395Y-76835000D01*
X169986252Y-76820858D01*
X170165858Y-76641252D01*
X170180000Y-76655395D01*
X170194142Y-76641252D01*
X170373748Y-76820858D01*
X170359605Y-76835000D01*
X171493377Y-77968771D01*
X171783315Y-77842896D01*
X171949139Y-77510738D01*
X172046975Y-77152613D01*
X172073065Y-76782281D01*
X172026405Y-76413975D01*
X171908789Y-76061849D01*
X171783315Y-75827104D01*
X171755435Y-75815000D01*
X176214857Y-75815000D01*
X176129818Y-75942269D01*
X175987747Y-76285259D01*
X175915320Y-76649375D01*
X175915320Y-77020625D01*
X175987747Y-77384741D01*
X176113616Y-77688616D01*
X175809741Y-77562747D01*
X175445625Y-77490320D01*
X175074375Y-77490320D01*
X174710259Y-77562747D01*
X174367269Y-77704818D01*
X174058587Y-77911074D01*
X173796074Y-78173587D01*
X173589818Y-78482269D01*
X173447747Y-78825259D01*
X173375320Y-79189375D01*
X173375320Y-79560625D01*
X173447747Y-79924741D01*
X173589818Y-80267731D01*
X173796074Y-80576413D01*
X174058587Y-80838926D01*
X174367269Y-81045182D01*
X174710259Y-81187253D01*
X175074375Y-81259680D01*
X175445625Y-81259680D01*
X175809741Y-81187253D01*
X176152731Y-81045182D01*
X176461413Y-80838926D01*
X176723926Y-80576413D01*
X176930182Y-80267731D01*
X177072253Y-79924741D01*
X177144680Y-79560625D01*
X177144680Y-79189375D01*
X177072253Y-78825259D01*
X176946384Y-78521384D01*
X177250259Y-78647253D01*
X177614375Y-78719680D01*
X177985625Y-78719680D01*
X178349741Y-78647253D01*
X178692731Y-78505182D01*
X179001413Y-78298926D01*
X179263926Y-78036413D01*
X179470182Y-77727731D01*
X179612253Y-77384741D01*
X179684680Y-77020625D01*
X179684680Y-76649375D01*
X179612253Y-76285259D01*
X179470182Y-75942269D01*
X179385143Y-75815000D01*
X186267502Y-75815000D01*
X186267501Y-88650000D01*
X182923469Y-88650000D01*
X182880000Y-88645719D01*
X182836531Y-88650000D01*
X182836523Y-88650000D01*
X182706510Y-88662805D01*
X182539686Y-88713411D01*
X182385941Y-88795589D01*
X182284953Y-88878468D01*
X182284951Y-88878470D01*
X182251183Y-88906183D01*
X182223470Y-88939951D01*
X181649951Y-89513471D01*
X181616184Y-89541183D01*
X181588471Y-89574951D01*
X181588468Y-89574954D01*
X181505590Y-89675941D01*
X181423412Y-89829687D01*
X181372805Y-89996510D01*
X181355719Y-90170000D01*
X181360001Y-90213479D01*
X181360000Y-96476531D01*
X181355719Y-96520000D01*
X181360000Y-96563469D01*
X181360000Y-96563476D01*
X181372805Y-96693489D01*
X181423411Y-96860312D01*
X181505589Y-97014058D01*
X181616183Y-97148817D01*
X181649956Y-97176534D01*
X182050967Y-97577545D01*
X182078684Y-97611318D01*
X182213442Y-97721912D01*
X182367188Y-97804090D01*
X182534011Y-97854696D01*
X182664024Y-97867501D01*
X182664034Y-97867501D01*
X182707500Y-97871782D01*
X182750966Y-97867501D01*
X186150923Y-97867501D01*
X186267502Y-97984081D01*
X186267501Y-111565920D01*
X185688422Y-112145000D01*
X177390329Y-112145000D01*
X177242663Y-111924002D01*
X177000998Y-111682337D01*
X176716831Y-111492463D01*
X176401081Y-111361675D01*
X176065883Y-111295000D01*
X175724117Y-111295000D01*
X175388919Y-111361675D01*
X175073169Y-111492463D01*
X174789002Y-111682337D01*
X174547337Y-111924002D01*
X174357463Y-112208169D01*
X174226675Y-112523919D01*
X174160000Y-112859117D01*
X174160000Y-113200883D01*
X174226675Y-113536081D01*
X174357463Y-113851831D01*
X174547337Y-114135998D01*
X174789002Y-114377663D01*
X175073169Y-114567537D01*
X175388919Y-114698325D01*
X175724117Y-114765000D01*
X176065883Y-114765000D01*
X176401081Y-114698325D01*
X176716831Y-114567537D01*
X177000998Y-114377663D01*
X177242663Y-114135998D01*
X177390329Y-113915000D01*
X181655188Y-113915000D01*
X181398662Y-114015726D01*
X181247784Y-114322384D01*
X181159631Y-114652585D01*
X181137591Y-114993639D01*
X181182511Y-115332439D01*
X181292664Y-115655966D01*
X181398662Y-115854274D01*
X181673288Y-115962107D01*
X182700395Y-114935000D01*
X182686253Y-114920858D01*
X182865858Y-114741253D01*
X182880000Y-114755395D01*
X182894143Y-114741253D01*
X183073748Y-114920858D01*
X183059605Y-114935000D01*
X184086712Y-115962107D01*
X184361338Y-115854274D01*
X184512216Y-115547616D01*
X184600369Y-115217415D01*
X184622409Y-114876361D01*
X184577489Y-114537561D01*
X184467336Y-114214034D01*
X184361338Y-114015726D01*
X184104812Y-113915000D01*
X186011531Y-113915000D01*
X186055000Y-113919281D01*
X186098469Y-113915000D01*
X186098477Y-113915000D01*
X186228490Y-113902195D01*
X186395313Y-113851589D01*
X186549059Y-113769411D01*
X186683817Y-113658817D01*
X186711534Y-113625044D01*
X187198000Y-113138579D01*
X187198000Y-119985020D01*
X186585626Y-121209768D01*
X185979768Y-121815626D01*
X184755020Y-122428000D01*
X166410661Y-122428000D01*
X166447663Y-122390998D01*
X166637537Y-122106831D01*
X166768325Y-121791081D01*
X166835000Y-121455883D01*
X166835000Y-121114117D01*
X166768325Y-120778919D01*
X166637537Y-120463169D01*
X166447663Y-120179002D01*
X166205998Y-119937337D01*
X165921831Y-119747463D01*
X165606081Y-119616675D01*
X165270883Y-119550000D01*
X164929117Y-119550000D01*
X164593919Y-119616675D01*
X164278169Y-119747463D01*
X163994002Y-119937337D01*
X163752337Y-120179002D01*
X163562463Y-120463169D01*
X163431675Y-120778919D01*
X163365000Y-121114117D01*
X163365000Y-121455883D01*
X163431675Y-121791081D01*
X163562463Y-122106831D01*
X163752337Y-122390998D01*
X163789339Y-122428000D01*
X158790661Y-122428000D01*
X158827663Y-122390998D01*
X159017537Y-122106831D01*
X159148325Y-121791081D01*
X159215000Y-121455883D01*
X159215000Y-121114117D01*
X159148325Y-120778919D01*
X159017537Y-120463169D01*
X158827663Y-120179002D01*
X158585998Y-119937337D01*
X158301831Y-119747463D01*
X157986081Y-119616675D01*
X157650883Y-119550000D01*
X157309117Y-119550000D01*
X156973919Y-119616675D01*
X156658169Y-119747463D01*
X156374002Y-119937337D01*
X156132337Y-120179002D01*
X155942463Y-120463169D01*
X155811675Y-120778919D01*
X155745000Y-121114117D01*
X155745000Y-121455883D01*
X155811675Y-121791081D01*
X155942463Y-122106831D01*
X156132337Y-122390998D01*
X156169339Y-122428000D01*
X106074980Y-122428000D01*
X104850232Y-121815626D01*
X104244374Y-121209768D01*
X103632000Y-119985020D01*
X103632000Y-119095852D01*
X103795000Y-119095852D01*
X103795000Y-119664148D01*
X103905869Y-120221523D01*
X104123346Y-120746560D01*
X104439074Y-121219080D01*
X104840920Y-121620926D01*
X105313440Y-121936654D01*
X105838477Y-122154131D01*
X106395852Y-122265000D01*
X106964148Y-122265000D01*
X107521523Y-122154131D01*
X108046560Y-121936654D01*
X108519080Y-121620926D01*
X108920926Y-121219080D01*
X109236654Y-120746560D01*
X109454131Y-120221523D01*
X109527242Y-119853967D01*
X124095000Y-119853967D01*
X124095000Y-120176033D01*
X124157832Y-120491912D01*
X124281082Y-120789463D01*
X124460013Y-121057252D01*
X124687748Y-121284987D01*
X124955537Y-121463918D01*
X125253088Y-121587168D01*
X125568967Y-121650000D01*
X125891033Y-121650000D01*
X126206912Y-121587168D01*
X126504463Y-121463918D01*
X126772252Y-121284987D01*
X126999987Y-121057252D01*
X127000000Y-121057233D01*
X127000013Y-121057252D01*
X127227748Y-121284987D01*
X127495537Y-121463918D01*
X127793088Y-121587168D01*
X128108967Y-121650000D01*
X128431033Y-121650000D01*
X128746912Y-121587168D01*
X129044463Y-121463918D01*
X129312252Y-121284987D01*
X129539987Y-121057252D01*
X129718918Y-120789463D01*
X129838353Y-120501122D01*
X142670825Y-120501122D01*
X142708469Y-120651622D01*
X142846843Y-120963317D01*
X143043367Y-121242027D01*
X143290489Y-121477042D01*
X143578712Y-121659330D01*
X143896959Y-121781886D01*
X144233000Y-121840000D01*
X145133000Y-121840000D01*
X145133000Y-120232000D01*
X145387000Y-120232000D01*
X145387000Y-121840000D01*
X146287000Y-121840000D01*
X146623041Y-121781886D01*
X146941288Y-121659330D01*
X147229511Y-121477042D01*
X147476633Y-121242027D01*
X147673157Y-120963317D01*
X147811531Y-120651622D01*
X147849175Y-120501122D01*
X147731125Y-120232000D01*
X145387000Y-120232000D01*
X145133000Y-120232000D01*
X142788875Y-120232000D01*
X142670825Y-120501122D01*
X129838353Y-120501122D01*
X129842168Y-120491912D01*
X129905000Y-120176033D01*
X129905000Y-119853967D01*
X129876141Y-119708878D01*
X142670825Y-119708878D01*
X142788875Y-119978000D01*
X145133000Y-119978000D01*
X145133000Y-118370000D01*
X145387000Y-118370000D01*
X145387000Y-119978000D01*
X147731125Y-119978000D01*
X147849175Y-119708878D01*
X147811531Y-119558378D01*
X147704246Y-119316712D01*
X169787893Y-119316712D01*
X169895726Y-119591338D01*
X170202384Y-119742216D01*
X170532585Y-119830369D01*
X170873639Y-119852409D01*
X171212439Y-119807489D01*
X171535966Y-119697336D01*
X171734274Y-119591338D01*
X171842107Y-119316712D01*
X170815000Y-118289605D01*
X169787893Y-119316712D01*
X147704246Y-119316712D01*
X147673157Y-119246683D01*
X147476633Y-118967973D01*
X147229511Y-118732958D01*
X146941288Y-118550670D01*
X146623041Y-118428114D01*
X146287000Y-118370000D01*
X145387000Y-118370000D01*
X145133000Y-118370000D01*
X144233000Y-118370000D01*
X143896959Y-118428114D01*
X143578712Y-118550670D01*
X143290489Y-118732958D01*
X143043367Y-118967973D01*
X142846843Y-119246683D01*
X142708469Y-119558378D01*
X142670825Y-119708878D01*
X129876141Y-119708878D01*
X129842168Y-119538088D01*
X129718918Y-119240537D01*
X129539987Y-118972748D01*
X129312252Y-118745013D01*
X129044463Y-118566082D01*
X128746912Y-118442832D01*
X128431033Y-118380000D01*
X128108967Y-118380000D01*
X127793088Y-118442832D01*
X127495537Y-118566082D01*
X127227748Y-118745013D01*
X127000013Y-118972748D01*
X127000000Y-118972767D01*
X126999987Y-118972748D01*
X126772252Y-118745013D01*
X126504463Y-118566082D01*
X126206912Y-118442832D01*
X125891033Y-118380000D01*
X125568967Y-118380000D01*
X125253088Y-118442832D01*
X124955537Y-118566082D01*
X124687748Y-118745013D01*
X124460013Y-118972748D01*
X124281082Y-119240537D01*
X124157832Y-119538088D01*
X124095000Y-119853967D01*
X109527242Y-119853967D01*
X109565000Y-119664148D01*
X109565000Y-119316712D01*
X113907893Y-119316712D01*
X114015726Y-119591338D01*
X114322384Y-119742216D01*
X114652585Y-119830369D01*
X114993639Y-119852409D01*
X115332439Y-119807489D01*
X115655966Y-119697336D01*
X115854274Y-119591338D01*
X115962107Y-119316712D01*
X114935000Y-118289605D01*
X113907893Y-119316712D01*
X109565000Y-119316712D01*
X109565000Y-119095852D01*
X109454131Y-118538477D01*
X109300940Y-118168639D01*
X113192591Y-118168639D01*
X113237511Y-118507439D01*
X113347664Y-118830966D01*
X113453662Y-119029274D01*
X113728288Y-119137107D01*
X114755395Y-118110000D01*
X115114605Y-118110000D01*
X116141712Y-119137107D01*
X116416338Y-119029274D01*
X116567216Y-118722616D01*
X116655369Y-118392415D01*
X116677409Y-118051361D01*
X116662528Y-117939117D01*
X118280000Y-117939117D01*
X118280000Y-118280883D01*
X118346675Y-118616081D01*
X118477463Y-118931831D01*
X118667337Y-119215998D01*
X118909002Y-119457663D01*
X119193169Y-119647537D01*
X119508919Y-119778325D01*
X119844117Y-119845000D01*
X120185883Y-119845000D01*
X120521081Y-119778325D01*
X120836831Y-119647537D01*
X121120998Y-119457663D01*
X121362663Y-119215998D01*
X121552537Y-118931831D01*
X121683325Y-118616081D01*
X121750000Y-118280883D01*
X121750000Y-117939117D01*
X121683325Y-117603919D01*
X121552537Y-117288169D01*
X121362663Y-117004002D01*
X121120998Y-116762337D01*
X120981485Y-116669117D01*
X130345000Y-116669117D01*
X130345000Y-117010883D01*
X130411675Y-117346081D01*
X130542463Y-117661831D01*
X130732337Y-117945998D01*
X130974002Y-118187663D01*
X131258169Y-118377537D01*
X131573919Y-118508325D01*
X131909117Y-118575000D01*
X132250883Y-118575000D01*
X132586081Y-118508325D01*
X132901831Y-118377537D01*
X133185998Y-118187663D01*
X133427663Y-117945998D01*
X133617537Y-117661831D01*
X133748325Y-117346081D01*
X133815000Y-117010883D01*
X133815000Y-116669117D01*
X133748325Y-116333919D01*
X133617537Y-116018169D01*
X133427663Y-115734002D01*
X133185998Y-115492337D01*
X132901831Y-115302463D01*
X132586081Y-115171675D01*
X132250883Y-115105000D01*
X131909117Y-115105000D01*
X131573919Y-115171675D01*
X131258169Y-115302463D01*
X130974002Y-115492337D01*
X130732337Y-115734002D01*
X130542463Y-116018169D01*
X130411675Y-116333919D01*
X130345000Y-116669117D01*
X120981485Y-116669117D01*
X120836831Y-116572463D01*
X120521081Y-116441675D01*
X120185883Y-116375000D01*
X119844117Y-116375000D01*
X119508919Y-116441675D01*
X119193169Y-116572463D01*
X118909002Y-116762337D01*
X118667337Y-117004002D01*
X118477463Y-117288169D01*
X118346675Y-117603919D01*
X118280000Y-117939117D01*
X116662528Y-117939117D01*
X116632489Y-117712561D01*
X116522336Y-117389034D01*
X116416338Y-117190726D01*
X116141712Y-117082893D01*
X115114605Y-118110000D01*
X114755395Y-118110000D01*
X113728288Y-117082893D01*
X113453662Y-117190726D01*
X113302784Y-117497384D01*
X113214631Y-117827585D01*
X113192591Y-118168639D01*
X109300940Y-118168639D01*
X109236654Y-118013440D01*
X108920926Y-117540920D01*
X108519080Y-117139074D01*
X108166202Y-116903288D01*
X113907893Y-116903288D01*
X114935000Y-117930395D01*
X115962107Y-116903288D01*
X115854274Y-116628662D01*
X115547616Y-116477784D01*
X115217415Y-116389631D01*
X114876361Y-116367591D01*
X114537561Y-116412511D01*
X114214034Y-116522664D01*
X114015726Y-116628662D01*
X113907893Y-116903288D01*
X108166202Y-116903288D01*
X108046560Y-116823346D01*
X107521523Y-116605869D01*
X106964148Y-116495000D01*
X106395852Y-116495000D01*
X105838477Y-116605869D01*
X105313440Y-116823346D01*
X104840920Y-117139074D01*
X104439074Y-117540920D01*
X104123346Y-118013440D01*
X103905869Y-118538477D01*
X103795000Y-119095852D01*
X103632000Y-119095852D01*
X103632000Y-114276712D01*
X113947893Y-114276712D01*
X114055726Y-114551338D01*
X114362384Y-114702216D01*
X114692585Y-114790369D01*
X115033639Y-114812409D01*
X115372439Y-114767489D01*
X115695966Y-114657336D01*
X115894274Y-114551338D01*
X116002107Y-114276712D01*
X114975000Y-113249605D01*
X113947893Y-114276712D01*
X103632000Y-114276712D01*
X103632000Y-113128639D01*
X113232591Y-113128639D01*
X113277511Y-113467439D01*
X113387664Y-113790966D01*
X113493662Y-113989274D01*
X113768288Y-114097107D01*
X114795395Y-113070000D01*
X115154605Y-113070000D01*
X116181712Y-114097107D01*
X116456338Y-113989274D01*
X116607216Y-113682616D01*
X116695369Y-113352415D01*
X116717409Y-113011361D01*
X116672489Y-112672561D01*
X116562336Y-112349034D01*
X116456338Y-112150726D01*
X116181712Y-112042893D01*
X115154605Y-113070000D01*
X114795395Y-113070000D01*
X113768288Y-112042893D01*
X113493662Y-112150726D01*
X113342784Y-112457384D01*
X113254631Y-112787585D01*
X113232591Y-113128639D01*
X103632000Y-113128639D01*
X103632000Y-111863288D01*
X113947893Y-111863288D01*
X114975000Y-112890395D01*
X116002107Y-111863288D01*
X115894274Y-111588662D01*
X115587616Y-111437784D01*
X115257415Y-111349631D01*
X114916361Y-111327591D01*
X114577561Y-111372511D01*
X114254034Y-111482664D01*
X114055726Y-111588662D01*
X113947893Y-111863288D01*
X103632000Y-111863288D01*
X103632000Y-100457000D01*
X106415000Y-100457000D01*
X106415000Y-100857000D01*
X106469271Y-101154023D01*
X106580446Y-101434751D01*
X106744252Y-101688396D01*
X106954394Y-101905210D01*
X107202796Y-102076862D01*
X107479913Y-102196755D01*
X107585260Y-102221036D01*
X107823000Y-102100378D01*
X107823000Y-100457000D01*
X106415000Y-100457000D01*
X103632000Y-100457000D01*
X103632000Y-99803000D01*
X106415000Y-99803000D01*
X106415000Y-100203000D01*
X107823000Y-100203000D01*
X107823000Y-98559622D01*
X108077000Y-98559622D01*
X108077000Y-100203000D01*
X108097000Y-100203000D01*
X108097000Y-100457000D01*
X108077000Y-100457000D01*
X108077000Y-102100378D01*
X108314740Y-102221036D01*
X108420087Y-102196755D01*
X108697204Y-102076862D01*
X108945606Y-101905210D01*
X109155748Y-101688396D01*
X109215219Y-101596309D01*
X109399339Y-101820661D01*
X109633074Y-102012481D01*
X109899740Y-102155017D01*
X110189088Y-102242790D01*
X110490000Y-102272427D01*
X110790913Y-102242790D01*
X111080261Y-102155017D01*
X111346927Y-102012481D01*
X111580661Y-101820661D01*
X111760000Y-101602135D01*
X111939339Y-101820661D01*
X112173074Y-102012481D01*
X112439740Y-102155017D01*
X112729088Y-102242790D01*
X113030000Y-102272427D01*
X113330913Y-102242790D01*
X113620261Y-102155017D01*
X113886927Y-102012481D01*
X114120661Y-101820661D01*
X114312481Y-101586927D01*
X114455017Y-101320261D01*
X114542790Y-101030913D01*
X114565000Y-100805407D01*
X114565000Y-99854592D01*
X114542790Y-99629087D01*
X114455017Y-99339739D01*
X114312481Y-99073073D01*
X114120661Y-98839339D01*
X113886926Y-98647519D01*
X113620260Y-98504983D01*
X113330912Y-98417210D01*
X113030000Y-98387573D01*
X112729087Y-98417210D01*
X112439739Y-98504983D01*
X112173073Y-98647519D01*
X111939339Y-98839339D01*
X111760000Y-99057865D01*
X111580661Y-98839339D01*
X111346926Y-98647519D01*
X111080260Y-98504983D01*
X110790912Y-98417210D01*
X110490000Y-98387573D01*
X110189087Y-98417210D01*
X109899739Y-98504983D01*
X109633073Y-98647519D01*
X109399339Y-98839339D01*
X109215219Y-99063692D01*
X109155748Y-98971604D01*
X108945606Y-98754790D01*
X108697204Y-98583138D01*
X108420087Y-98463245D01*
X108314740Y-98438964D01*
X108077000Y-98559622D01*
X107823000Y-98559622D01*
X107585260Y-98438964D01*
X107479913Y-98463245D01*
X107202796Y-98583138D01*
X106954394Y-98754790D01*
X106744252Y-98971604D01*
X106580446Y-99225249D01*
X106469271Y-99505977D01*
X106415000Y-99803000D01*
X103632000Y-99803000D01*
X103632000Y-94050151D01*
X103746869Y-94327469D01*
X103991462Y-94693529D01*
X104302771Y-95004838D01*
X104668831Y-95249431D01*
X105075575Y-95417910D01*
X105507372Y-95503800D01*
X105947628Y-95503800D01*
X106379425Y-95417910D01*
X106786169Y-95249431D01*
X107152229Y-95004838D01*
X107463538Y-94693529D01*
X107708131Y-94327469D01*
X107876610Y-93920725D01*
X107962500Y-93488928D01*
X107962500Y-93048672D01*
X107876610Y-92616875D01*
X107708131Y-92210131D01*
X107463538Y-91844071D01*
X107152229Y-91532762D01*
X106786169Y-91288169D01*
X106379425Y-91119690D01*
X105947628Y-91033800D01*
X105507372Y-91033800D01*
X105075575Y-91119690D01*
X104668831Y-91288169D01*
X104302771Y-91532762D01*
X103991462Y-91844071D01*
X103746869Y-92210131D01*
X103632000Y-92487449D01*
X103632000Y-76649375D01*
X111145320Y-76649375D01*
X111145320Y-77020625D01*
X111217747Y-77384741D01*
X111359818Y-77727731D01*
X111566074Y-78036413D01*
X111828587Y-78298926D01*
X112137269Y-78505182D01*
X112480259Y-78647253D01*
X112844375Y-78719680D01*
X113215625Y-78719680D01*
X113579741Y-78647253D01*
X113883616Y-78521384D01*
X113757747Y-78825259D01*
X113685320Y-79189375D01*
X113685320Y-79560625D01*
X113757747Y-79924741D01*
X113899818Y-80267731D01*
X114106074Y-80576413D01*
X114368587Y-80838926D01*
X114677269Y-81045182D01*
X115020259Y-81187253D01*
X115384375Y-81259680D01*
X115676659Y-81259680D01*
X115492337Y-81444002D01*
X115302463Y-81728169D01*
X115171675Y-82043919D01*
X115105000Y-82379117D01*
X115105000Y-82720883D01*
X115171675Y-83056081D01*
X115302463Y-83371831D01*
X115492337Y-83655998D01*
X115734002Y-83897663D01*
X116018169Y-84087537D01*
X116333919Y-84218325D01*
X116669117Y-84285000D01*
X117010883Y-84285000D01*
X117346081Y-84218325D01*
X117661831Y-84087537D01*
X117945998Y-83897663D01*
X118187663Y-83655998D01*
X118377537Y-83371831D01*
X118508325Y-83056081D01*
X118575000Y-82720883D01*
X118575000Y-82379117D01*
X118508325Y-82043919D01*
X118377537Y-81728169D01*
X118187663Y-81444002D01*
X117945998Y-81202337D01*
X117661831Y-81012463D01*
X117346081Y-80881675D01*
X117010883Y-80815000D01*
X116795339Y-80815000D01*
X117033926Y-80576413D01*
X117240182Y-80267731D01*
X117382253Y-79924741D01*
X117454680Y-79560625D01*
X117454680Y-79189375D01*
X117382253Y-78825259D01*
X117240182Y-78482269D01*
X117033926Y-78173587D01*
X116771413Y-77911074D01*
X116462731Y-77704818D01*
X116119741Y-77562747D01*
X115755625Y-77490320D01*
X115384375Y-77490320D01*
X115020259Y-77562747D01*
X114716384Y-77688616D01*
X114842253Y-77384741D01*
X114914680Y-77020625D01*
X114914680Y-76649375D01*
X114842253Y-76285259D01*
X114700182Y-75942269D01*
X114493926Y-75633587D01*
X114231413Y-75371074D01*
X113922731Y-75164818D01*
X113579741Y-75022747D01*
X113215625Y-74950320D01*
X112844375Y-74950320D01*
X112480259Y-75022747D01*
X112137269Y-75164818D01*
X111828587Y-75371074D01*
X111566074Y-75633587D01*
X111359818Y-75942269D01*
X111217747Y-76285259D01*
X111145320Y-76649375D01*
X103632000Y-76649375D01*
X103632000Y-67025852D01*
X103795000Y-67025852D01*
X103795000Y-67594148D01*
X103905869Y-68151523D01*
X104123346Y-68676560D01*
X104439074Y-69149080D01*
X104840920Y-69550926D01*
X105313440Y-69866654D01*
X105838477Y-70084131D01*
X106395852Y-70195000D01*
X106964148Y-70195000D01*
X107521523Y-70084131D01*
X108046560Y-69866654D01*
X108519080Y-69550926D01*
X108920926Y-69149080D01*
X109236654Y-68676560D01*
X109454131Y-68151523D01*
X109565000Y-67594148D01*
X109565000Y-67025852D01*
X109458288Y-66489375D01*
X113685320Y-66489375D01*
X113685320Y-66860625D01*
X113757747Y-67224741D01*
X113899818Y-67567731D01*
X114106074Y-67876413D01*
X114368587Y-68138926D01*
X114677269Y-68345182D01*
X115020259Y-68487253D01*
X115384375Y-68559680D01*
X115755625Y-68559680D01*
X116119741Y-68487253D01*
X116462731Y-68345182D01*
X116771413Y-68138926D01*
X117033926Y-67876413D01*
X117240182Y-67567731D01*
X117382253Y-67224741D01*
X117454680Y-66860625D01*
X117454680Y-66489375D01*
X123845320Y-66489375D01*
X123845320Y-66860625D01*
X123917747Y-67224741D01*
X124059818Y-67567731D01*
X124266074Y-67876413D01*
X124528587Y-68138926D01*
X124837269Y-68345182D01*
X125180259Y-68487253D01*
X125544375Y-68559680D01*
X125915625Y-68559680D01*
X126279741Y-68487253D01*
X126622731Y-68345182D01*
X126931413Y-68138926D01*
X127193926Y-67876413D01*
X127400182Y-67567731D01*
X127542253Y-67224741D01*
X127614680Y-66860625D01*
X127614680Y-66489375D01*
X127542253Y-66125259D01*
X127400182Y-65782269D01*
X127193926Y-65473587D01*
X126931413Y-65211074D01*
X126622731Y-65004818D01*
X126279741Y-64862747D01*
X125915625Y-64790320D01*
X125544375Y-64790320D01*
X125180259Y-64862747D01*
X124837269Y-65004818D01*
X124528587Y-65211074D01*
X124266074Y-65473587D01*
X124059818Y-65782269D01*
X123917747Y-66125259D01*
X123845320Y-66489375D01*
X117454680Y-66489375D01*
X117382253Y-66125259D01*
X117240182Y-65782269D01*
X117033926Y-65473587D01*
X116771413Y-65211074D01*
X116462731Y-65004818D01*
X116119741Y-64862747D01*
X115755625Y-64790320D01*
X115384375Y-64790320D01*
X115020259Y-64862747D01*
X114677269Y-65004818D01*
X114368587Y-65211074D01*
X114106074Y-65473587D01*
X113899818Y-65782269D01*
X113757747Y-66125259D01*
X113685320Y-66489375D01*
X109458288Y-66489375D01*
X109454131Y-66468477D01*
X109236654Y-65943440D01*
X108920926Y-65470920D01*
X108519080Y-65069074D01*
X108046560Y-64753346D01*
X107521523Y-64535869D01*
X106964148Y-64425000D01*
X106395852Y-64425000D01*
X105838477Y-64535869D01*
X105313440Y-64753346D01*
X104840920Y-65069074D01*
X104439074Y-65470920D01*
X104123346Y-65943440D01*
X103905869Y-66468477D01*
X103795000Y-67025852D01*
X103632000Y-67025852D01*
X103632000Y-66704980D01*
X104244374Y-65480232D01*
X104850232Y-64874374D01*
X106074980Y-64262000D01*
X184755020Y-64262000D01*
X185979768Y-64874374D01*
%TA.AperFunction,Conductor*%
D24*
G36*
X185979768Y-64874374D02*
G01*
X186880260Y-65774866D01*
X187050951Y-66090552D01*
X187198000Y-66565589D01*
X187198000Y-74202030D01*
X187184059Y-74190589D01*
X187030313Y-74108411D01*
X186863490Y-74057805D01*
X186733477Y-74045000D01*
X186733469Y-74045000D01*
X186690000Y-74040719D01*
X186646531Y-74045000D01*
X154504378Y-74045000D01*
X154401255Y-73919345D01*
X154184667Y-73741595D01*
X154032013Y-73660000D01*
X154184667Y-73578405D01*
X154401255Y-73400655D01*
X154579005Y-73184067D01*
X154711084Y-72936963D01*
X154792419Y-72668839D01*
X154819882Y-72390000D01*
X154792419Y-72111161D01*
X154711084Y-71843037D01*
X154579005Y-71595933D01*
X154401255Y-71379345D01*
X154184667Y-71201595D01*
X154035955Y-71122107D01*
X154052262Y-71115526D01*
X154286440Y-70962125D01*
X154486192Y-70765986D01*
X154643841Y-70534646D01*
X154753328Y-70276996D01*
X154770010Y-70197060D01*
X154647852Y-69977000D01*
X153162000Y-69977000D01*
X153162000Y-69997000D01*
X152908000Y-69997000D01*
X152908000Y-69977000D01*
X152888000Y-69977000D01*
X152888000Y-69723000D01*
X152908000Y-69723000D01*
X152908000Y-69703000D01*
X153162000Y-69703000D01*
X153162000Y-69723000D01*
X154647852Y-69723000D01*
X154770010Y-69502940D01*
X154753328Y-69423004D01*
X154643841Y-69165354D01*
X154486192Y-68934014D01*
X154286440Y-68737875D01*
X154052262Y-68584474D01*
X154035955Y-68577893D01*
X154184667Y-68498405D01*
X154401255Y-68320655D01*
X154579005Y-68104067D01*
X154711084Y-67856963D01*
X154792419Y-67588839D01*
X154819882Y-67310000D01*
X154792419Y-67031161D01*
X154711084Y-66763037D01*
X154579005Y-66515933D01*
X154557210Y-66489375D01*
X163215320Y-66489375D01*
X163215320Y-66860625D01*
X163287747Y-67224741D01*
X163429818Y-67567731D01*
X163636074Y-67876413D01*
X163898587Y-68138926D01*
X164207269Y-68345182D01*
X164550259Y-68487253D01*
X164914375Y-68559680D01*
X165285625Y-68559680D01*
X165649741Y-68487253D01*
X165992731Y-68345182D01*
X166301413Y-68138926D01*
X166563926Y-67876413D01*
X166770182Y-67567731D01*
X166912253Y-67224741D01*
X166984680Y-66860625D01*
X166984680Y-66489375D01*
X173375320Y-66489375D01*
X173375320Y-66860625D01*
X173447747Y-67224741D01*
X173589818Y-67567731D01*
X173796074Y-67876413D01*
X174058587Y-68138926D01*
X174367269Y-68345182D01*
X174710259Y-68487253D01*
X175074375Y-68559680D01*
X175445625Y-68559680D01*
X175809741Y-68487253D01*
X176152731Y-68345182D01*
X176461413Y-68138926D01*
X176723926Y-67876413D01*
X176930182Y-67567731D01*
X177072253Y-67224741D01*
X177111814Y-67025852D01*
X181265000Y-67025852D01*
X181265000Y-67594148D01*
X181375869Y-68151523D01*
X181593346Y-68676560D01*
X181909074Y-69149080D01*
X182310920Y-69550926D01*
X182783440Y-69866654D01*
X183308477Y-70084131D01*
X183865852Y-70195000D01*
X184434148Y-70195000D01*
X184991523Y-70084131D01*
X185516560Y-69866654D01*
X185989080Y-69550926D01*
X186390926Y-69149080D01*
X186706654Y-68676560D01*
X186924131Y-68151523D01*
X187035000Y-67594148D01*
X187035000Y-67025852D01*
X186924131Y-66468477D01*
X186706654Y-65943440D01*
X186390926Y-65470920D01*
X185989080Y-65069074D01*
X185516560Y-64753346D01*
X184991523Y-64535869D01*
X184434148Y-64425000D01*
X183865852Y-64425000D01*
X183308477Y-64535869D01*
X182783440Y-64753346D01*
X182310920Y-65069074D01*
X181909074Y-65470920D01*
X181593346Y-65943440D01*
X181375869Y-66468477D01*
X181265000Y-67025852D01*
X177111814Y-67025852D01*
X177144680Y-66860625D01*
X177144680Y-66489375D01*
X177072253Y-66125259D01*
X176930182Y-65782269D01*
X176723926Y-65473587D01*
X176461413Y-65211074D01*
X176152731Y-65004818D01*
X175809741Y-64862747D01*
X175445625Y-64790320D01*
X175074375Y-64790320D01*
X174710259Y-64862747D01*
X174367269Y-65004818D01*
X174058587Y-65211074D01*
X173796074Y-65473587D01*
X173589818Y-65782269D01*
X173447747Y-66125259D01*
X173375320Y-66489375D01*
X166984680Y-66489375D01*
X166912253Y-66125259D01*
X166770182Y-65782269D01*
X166563926Y-65473587D01*
X166301413Y-65211074D01*
X165992731Y-65004818D01*
X165649741Y-64862747D01*
X165285625Y-64790320D01*
X164914375Y-64790320D01*
X164550259Y-64862747D01*
X164207269Y-65004818D01*
X163898587Y-65211074D01*
X163636074Y-65473587D01*
X163429818Y-65782269D01*
X163287747Y-66125259D01*
X163215320Y-66489375D01*
X154557210Y-66489375D01*
X154401255Y-66299345D01*
X154184667Y-66121595D01*
X153937563Y-65989516D01*
X153669439Y-65908181D01*
X153460475Y-65887600D01*
X152609525Y-65887600D01*
X152400561Y-65908181D01*
X152132437Y-65989516D01*
X152018242Y-66050554D01*
X152019281Y-66040000D01*
X152015000Y-65996531D01*
X152015000Y-65996523D01*
X152002195Y-65866510D01*
X151985449Y-65811306D01*
X151951589Y-65699686D01*
X151869411Y-65545941D01*
X151786532Y-65444953D01*
X151786530Y-65444951D01*
X151758817Y-65411183D01*
X151725050Y-65383471D01*
X151151534Y-64809956D01*
X151123817Y-64776183D01*
X150989059Y-64665589D01*
X150835313Y-64583411D01*
X150668490Y-64532805D01*
X150538477Y-64520000D01*
X150538469Y-64520000D01*
X150495000Y-64515719D01*
X150451531Y-64520000D01*
X129583469Y-64520000D01*
X129540000Y-64515719D01*
X129496531Y-64520000D01*
X129496523Y-64520000D01*
X129366510Y-64532805D01*
X129199686Y-64583411D01*
X129045941Y-64665589D01*
X128944953Y-64748468D01*
X128944951Y-64748470D01*
X128911183Y-64776183D01*
X128883470Y-64809951D01*
X128309951Y-65383471D01*
X128276184Y-65411183D01*
X128248471Y-65444951D01*
X128248468Y-65444954D01*
X128165590Y-65545941D01*
X128083412Y-65699687D01*
X128032805Y-65866510D01*
X128015719Y-66040000D01*
X128020001Y-66083479D01*
X128020000Y-72023421D01*
X122323358Y-77720064D01*
X122462253Y-77384741D01*
X122534680Y-77020625D01*
X122534680Y-76649375D01*
X122462253Y-76285259D01*
X122320182Y-75942269D01*
X122113926Y-75633587D01*
X121851413Y-75371074D01*
X121542731Y-75164818D01*
X121199741Y-75022747D01*
X120835625Y-74950320D01*
X120464375Y-74950320D01*
X120100259Y-75022747D01*
X119757269Y-75164818D01*
X119448587Y-75371074D01*
X119186074Y-75633587D01*
X118979818Y-75942269D01*
X118837747Y-76285259D01*
X118765320Y-76649375D01*
X118765320Y-77020625D01*
X118837747Y-77384741D01*
X118979818Y-77727731D01*
X119186074Y-78036413D01*
X119448587Y-78298926D01*
X119757269Y-78505182D01*
X120100259Y-78647253D01*
X120464375Y-78719680D01*
X120835625Y-78719680D01*
X121199741Y-78647253D01*
X121535064Y-78508358D01*
X121324952Y-78718470D01*
X121291184Y-78746183D01*
X121263471Y-78779951D01*
X121263468Y-78779954D01*
X121180590Y-78880941D01*
X121098412Y-79034687D01*
X121047805Y-79201510D01*
X121030719Y-79375000D01*
X121035001Y-79418479D01*
X121035000Y-91474478D01*
X120756169Y-91288169D01*
X120349425Y-91119690D01*
X119917628Y-91033800D01*
X119477372Y-91033800D01*
X119045575Y-91119690D01*
X118638831Y-91288169D01*
X118272771Y-91532762D01*
X117961462Y-91844071D01*
X117716869Y-92210131D01*
X117548390Y-92616875D01*
X117475000Y-92985830D01*
X117401610Y-92616875D01*
X117233131Y-92210131D01*
X116988538Y-91844071D01*
X116677229Y-91532762D01*
X116311169Y-91288169D01*
X115904425Y-91119690D01*
X115472628Y-91033800D01*
X115032372Y-91033800D01*
X114600575Y-91119690D01*
X114193831Y-91288169D01*
X113827771Y-91532762D01*
X113516462Y-91844071D01*
X113271869Y-92210131D01*
X113103390Y-92616875D01*
X113017500Y-93048672D01*
X113017500Y-93488928D01*
X113103390Y-93920725D01*
X113271869Y-94327469D01*
X113516462Y-94693529D01*
X113827771Y-95004838D01*
X114193831Y-95249431D01*
X114600575Y-95417910D01*
X115032372Y-95503800D01*
X115472628Y-95503800D01*
X115904425Y-95417910D01*
X116311169Y-95249431D01*
X116677229Y-95004838D01*
X116988538Y-94693529D01*
X117233131Y-94327469D01*
X117401610Y-93920725D01*
X117475000Y-93551770D01*
X117548390Y-93920725D01*
X117716869Y-94327469D01*
X117961462Y-94693529D01*
X118272771Y-95004838D01*
X118638831Y-95249431D01*
X119045575Y-95417910D01*
X119477372Y-95503800D01*
X119917628Y-95503800D01*
X120349425Y-95417910D01*
X120756169Y-95249431D01*
X121035000Y-95063122D01*
X121035000Y-96153421D01*
X119419951Y-97768471D01*
X119386184Y-97796183D01*
X119358471Y-97829951D01*
X119358468Y-97829954D01*
X119275590Y-97930941D01*
X119193412Y-98084687D01*
X119142805Y-98251510D01*
X119125719Y-98425000D01*
X119130001Y-98468479D01*
X119130000Y-111534671D01*
X118909002Y-111682337D01*
X118667337Y-111924002D01*
X118477463Y-112208169D01*
X118346675Y-112523919D01*
X118280000Y-112859117D01*
X118280000Y-113200883D01*
X118346675Y-113536081D01*
X118477463Y-113851831D01*
X118667337Y-114135998D01*
X118909002Y-114377663D01*
X119193169Y-114567537D01*
X119508919Y-114698325D01*
X119844117Y-114765000D01*
X120185883Y-114765000D01*
X120521081Y-114698325D01*
X120836831Y-114567537D01*
X121120998Y-114377663D01*
X121362663Y-114135998D01*
X121367260Y-114129117D01*
X134155000Y-114129117D01*
X134155000Y-114470883D01*
X134221675Y-114806081D01*
X134352463Y-115121831D01*
X134542337Y-115405998D01*
X134784002Y-115647663D01*
X135068169Y-115837537D01*
X135383919Y-115968325D01*
X135719117Y-116035000D01*
X136060883Y-116035000D01*
X136396081Y-115968325D01*
X136711831Y-115837537D01*
X136995998Y-115647663D01*
X137237663Y-115405998D01*
X137427537Y-115121831D01*
X137558325Y-114806081D01*
X137625000Y-114470883D01*
X137625000Y-114129117D01*
X137558325Y-113793919D01*
X137427537Y-113478169D01*
X137237663Y-113194002D01*
X136995998Y-112952337D01*
X136711831Y-112762463D01*
X136396081Y-112631675D01*
X136060883Y-112565000D01*
X135719117Y-112565000D01*
X135383919Y-112631675D01*
X135068169Y-112762463D01*
X134784002Y-112952337D01*
X134542337Y-113194002D01*
X134352463Y-113478169D01*
X134221675Y-113793919D01*
X134155000Y-114129117D01*
X121367260Y-114129117D01*
X121552537Y-113851831D01*
X121683325Y-113536081D01*
X121750000Y-113200883D01*
X121750000Y-112859117D01*
X121683325Y-112523919D01*
X121552537Y-112208169D01*
X121362663Y-111924002D01*
X121120998Y-111682337D01*
X120900000Y-111534671D01*
X120900000Y-111119776D01*
X138325000Y-111119776D01*
X138325000Y-113090225D01*
X138350106Y-113345119D01*
X138449315Y-113672168D01*
X138610422Y-113973578D01*
X138827235Y-114237766D01*
X139091423Y-114454579D01*
X139392833Y-114615686D01*
X139719882Y-114714895D01*
X140060000Y-114748394D01*
X140400119Y-114714895D01*
X140727168Y-114615686D01*
X141028578Y-114454579D01*
X141040245Y-114445004D01*
X141050106Y-114545119D01*
X141149315Y-114872168D01*
X141310422Y-115173578D01*
X141527235Y-115437766D01*
X141791423Y-115654579D01*
X142092833Y-115815686D01*
X142419882Y-115914895D01*
X142760000Y-115948394D01*
X143100119Y-115914895D01*
X143427168Y-115815686D01*
X143728578Y-115654579D01*
X143992766Y-115437766D01*
X144171665Y-115219776D01*
X148125000Y-115219776D01*
X148125000Y-117190225D01*
X148150106Y-117445119D01*
X148249315Y-117772168D01*
X148410422Y-118073578D01*
X148627235Y-118337766D01*
X148891423Y-118554579D01*
X149192833Y-118715686D01*
X149519882Y-118814895D01*
X149860000Y-118848394D01*
X150200119Y-118814895D01*
X150527168Y-118715686D01*
X150828578Y-118554579D01*
X151092766Y-118337766D01*
X151309579Y-118073578D01*
X151470686Y-117772168D01*
X151569895Y-117445119D01*
X151595000Y-117190225D01*
X151595000Y-115219775D01*
X151569895Y-114964881D01*
X151470686Y-114637832D01*
X151309579Y-114336422D01*
X151092766Y-114072234D01*
X150828577Y-113855421D01*
X150527167Y-113694314D01*
X150200118Y-113595105D01*
X149860000Y-113561606D01*
X149519881Y-113595105D01*
X149192832Y-113694314D01*
X148891422Y-113855421D01*
X148627234Y-114072234D01*
X148410421Y-114336423D01*
X148249314Y-114637833D01*
X148150105Y-114964882D01*
X148125000Y-115219776D01*
X144171665Y-115219776D01*
X144209579Y-115173578D01*
X144370686Y-114872168D01*
X144469895Y-114545119D01*
X144495000Y-114290225D01*
X144495000Y-113503967D01*
X152035000Y-113503967D01*
X152035000Y-113826033D01*
X152097832Y-114141912D01*
X152221082Y-114439463D01*
X152400013Y-114707252D01*
X152627748Y-114934987D01*
X152895537Y-115113918D01*
X153193088Y-115237168D01*
X153508967Y-115300000D01*
X153831033Y-115300000D01*
X154146912Y-115237168D01*
X154444463Y-115113918D01*
X154712252Y-114934987D01*
X154939987Y-114707252D01*
X155118918Y-114439463D01*
X155242168Y-114141912D01*
X155305000Y-113826033D01*
X155305000Y-113503967D01*
X155242168Y-113188088D01*
X155118918Y-112890537D01*
X154939987Y-112622748D01*
X154712252Y-112395013D01*
X154712233Y-112395000D01*
X155695118Y-112395000D01*
X155722581Y-112673839D01*
X155803916Y-112941963D01*
X155935995Y-113189067D01*
X156113745Y-113405655D01*
X156330333Y-113583405D01*
X156482987Y-113665000D01*
X156330333Y-113746595D01*
X156113745Y-113924345D01*
X155935995Y-114140933D01*
X155803916Y-114388037D01*
X155722581Y-114656161D01*
X155695118Y-114935000D01*
X155722581Y-115213839D01*
X155803916Y-115481963D01*
X155935995Y-115729067D01*
X156113745Y-115945655D01*
X156330333Y-116123405D01*
X156482987Y-116205000D01*
X156330333Y-116286595D01*
X156113745Y-116464345D01*
X155935995Y-116680933D01*
X155803916Y-116928037D01*
X155722581Y-117196161D01*
X155695118Y-117475000D01*
X155722581Y-117753839D01*
X155803916Y-118021963D01*
X155935995Y-118269067D01*
X156113745Y-118485655D01*
X156330333Y-118663405D01*
X156577437Y-118795484D01*
X156845561Y-118876819D01*
X157054525Y-118897400D01*
X157905475Y-118897400D01*
X158114439Y-118876819D01*
X158382563Y-118795484D01*
X158629667Y-118663405D01*
X158846255Y-118485655D01*
X159024005Y-118269067D01*
X159156084Y-118021963D01*
X159216724Y-117822060D01*
X163364990Y-117822060D01*
X163381672Y-117901996D01*
X163491159Y-118159646D01*
X163648808Y-118390986D01*
X163848560Y-118587125D01*
X164082738Y-118740526D01*
X164342344Y-118845293D01*
X164617400Y-118897400D01*
X164973000Y-118897400D01*
X164973000Y-117602000D01*
X165227000Y-117602000D01*
X165227000Y-118897400D01*
X165582600Y-118897400D01*
X165857656Y-118845293D01*
X166117262Y-118740526D01*
X166351440Y-118587125D01*
X166551192Y-118390986D01*
X166702712Y-118168639D01*
X169072591Y-118168639D01*
X169117511Y-118507439D01*
X169227664Y-118830966D01*
X169333662Y-119029274D01*
X169608288Y-119137107D01*
X170635395Y-118110000D01*
X170994605Y-118110000D01*
X172021712Y-119137107D01*
X172296338Y-119029274D01*
X172447216Y-118722616D01*
X172535369Y-118392415D01*
X172557409Y-118051361D01*
X172542528Y-117939117D01*
X174160000Y-117939117D01*
X174160000Y-118280883D01*
X174226675Y-118616081D01*
X174357463Y-118931831D01*
X174547337Y-119215998D01*
X174789002Y-119457663D01*
X175073169Y-119647537D01*
X175388919Y-119778325D01*
X175724117Y-119845000D01*
X176065883Y-119845000D01*
X176401081Y-119778325D01*
X176716831Y-119647537D01*
X177000998Y-119457663D01*
X177242663Y-119215998D01*
X177322941Y-119095852D01*
X181265000Y-119095852D01*
X181265000Y-119664148D01*
X181375869Y-120221523D01*
X181593346Y-120746560D01*
X181909074Y-121219080D01*
X182310920Y-121620926D01*
X182783440Y-121936654D01*
X183308477Y-122154131D01*
X183865852Y-122265000D01*
X184434148Y-122265000D01*
X184991523Y-122154131D01*
X185516560Y-121936654D01*
X185989080Y-121620926D01*
X186390926Y-121219080D01*
X186706654Y-120746560D01*
X186924131Y-120221523D01*
X187035000Y-119664148D01*
X187035000Y-119095852D01*
X186924131Y-118538477D01*
X186706654Y-118013440D01*
X186390926Y-117540920D01*
X185989080Y-117139074D01*
X185516560Y-116823346D01*
X184991523Y-116605869D01*
X184434148Y-116495000D01*
X183865852Y-116495000D01*
X183421871Y-116583314D01*
X183600966Y-116522336D01*
X183799274Y-116416338D01*
X183907107Y-116141712D01*
X182880000Y-115114605D01*
X181852893Y-116141712D01*
X181960726Y-116416338D01*
X182267384Y-116567216D01*
X182597585Y-116655369D01*
X182938639Y-116677409D01*
X183228567Y-116638969D01*
X182783440Y-116823346D01*
X182310920Y-117139074D01*
X181909074Y-117540920D01*
X181593346Y-118013440D01*
X181375869Y-118538477D01*
X181265000Y-119095852D01*
X177322941Y-119095852D01*
X177432537Y-118931831D01*
X177563325Y-118616081D01*
X177630000Y-118280883D01*
X177630000Y-117939117D01*
X177563325Y-117603919D01*
X177432537Y-117288169D01*
X177242663Y-117004002D01*
X177000998Y-116762337D01*
X176716831Y-116572463D01*
X176401081Y-116441675D01*
X176065883Y-116375000D01*
X175724117Y-116375000D01*
X175388919Y-116441675D01*
X175073169Y-116572463D01*
X174789002Y-116762337D01*
X174547337Y-117004002D01*
X174357463Y-117288169D01*
X174226675Y-117603919D01*
X174160000Y-117939117D01*
X172542528Y-117939117D01*
X172512489Y-117712561D01*
X172402336Y-117389034D01*
X172296338Y-117190726D01*
X172021712Y-117082893D01*
X170994605Y-118110000D01*
X170635395Y-118110000D01*
X169608288Y-117082893D01*
X169333662Y-117190726D01*
X169182784Y-117497384D01*
X169094631Y-117827585D01*
X169072591Y-118168639D01*
X166702712Y-118168639D01*
X166708841Y-118159646D01*
X166818328Y-117901996D01*
X166835010Y-117822060D01*
X166712852Y-117602000D01*
X165227000Y-117602000D01*
X164973000Y-117602000D01*
X163487148Y-117602000D01*
X163364990Y-117822060D01*
X159216724Y-117822060D01*
X159237419Y-117753839D01*
X159264882Y-117475000D01*
X159237419Y-117196161D01*
X159156084Y-116928037D01*
X159024005Y-116680933D01*
X158846255Y-116464345D01*
X158629667Y-116286595D01*
X158477013Y-116205000D01*
X158629667Y-116123405D01*
X158846255Y-115945655D01*
X159024005Y-115729067D01*
X159156084Y-115481963D01*
X159237419Y-115213839D01*
X159264882Y-114935000D01*
X159244317Y-114726197D01*
X159280589Y-114794058D01*
X159391183Y-114928817D01*
X159424956Y-114956534D01*
X159998470Y-115530049D01*
X160026183Y-115563817D01*
X160059951Y-115591530D01*
X160059953Y-115591532D01*
X160160941Y-115674411D01*
X160314686Y-115756589D01*
X160481510Y-115807195D01*
X160611523Y-115820000D01*
X160611531Y-115820000D01*
X160655000Y-115824281D01*
X160698469Y-115820000D01*
X163630622Y-115820000D01*
X163733745Y-115945655D01*
X163950333Y-116123405D01*
X164099045Y-116202893D01*
X164082738Y-116209474D01*
X163848560Y-116362875D01*
X163648808Y-116559014D01*
X163491159Y-116790354D01*
X163381672Y-117048004D01*
X163364990Y-117127940D01*
X163487148Y-117348000D01*
X164973000Y-117348000D01*
X164973000Y-117328000D01*
X165227000Y-117328000D01*
X165227000Y-117348000D01*
X166712852Y-117348000D01*
X166835010Y-117127940D01*
X166818328Y-117048004D01*
X166756832Y-116903288D01*
X169787893Y-116903288D01*
X170815000Y-117930395D01*
X171842107Y-116903288D01*
X171734274Y-116628662D01*
X171427616Y-116477784D01*
X171097415Y-116389631D01*
X170756361Y-116367591D01*
X170417561Y-116412511D01*
X170094034Y-116522664D01*
X169895726Y-116628662D01*
X169787893Y-116903288D01*
X166756832Y-116903288D01*
X166708841Y-116790354D01*
X166551192Y-116559014D01*
X166351440Y-116362875D01*
X166117262Y-116209474D01*
X166100955Y-116202893D01*
X166249667Y-116123405D01*
X166466255Y-115945655D01*
X166644005Y-115729067D01*
X166776084Y-115481963D01*
X166857419Y-115213839D01*
X166884882Y-114935000D01*
X166857419Y-114656161D01*
X166776084Y-114388037D01*
X166716580Y-114276712D01*
X169827893Y-114276712D01*
X169935726Y-114551338D01*
X170242384Y-114702216D01*
X170572585Y-114790369D01*
X170913639Y-114812409D01*
X171252439Y-114767489D01*
X171575966Y-114657336D01*
X171774274Y-114551338D01*
X171882107Y-114276712D01*
X170855000Y-113249605D01*
X169827893Y-114276712D01*
X166716580Y-114276712D01*
X166644005Y-114140933D01*
X166466255Y-113924345D01*
X166249667Y-113746595D01*
X166097013Y-113665000D01*
X166249667Y-113583405D01*
X166466255Y-113405655D01*
X166569378Y-113280000D01*
X167596531Y-113280000D01*
X167640000Y-113284281D01*
X167683469Y-113280000D01*
X167683477Y-113280000D01*
X167813490Y-113267195D01*
X167980313Y-113216589D01*
X168134059Y-113134411D01*
X168141092Y-113128639D01*
X169112591Y-113128639D01*
X169157511Y-113467439D01*
X169267664Y-113790966D01*
X169373662Y-113989274D01*
X169648288Y-114097107D01*
X170675395Y-113070000D01*
X171034605Y-113070000D01*
X172061712Y-114097107D01*
X172336338Y-113989274D01*
X172487216Y-113682616D01*
X172575369Y-113352415D01*
X172597409Y-113011361D01*
X172552489Y-112672561D01*
X172442336Y-112349034D01*
X172336338Y-112150726D01*
X172061712Y-112042893D01*
X171034605Y-113070000D01*
X170675395Y-113070000D01*
X169648288Y-112042893D01*
X169373662Y-112150726D01*
X169222784Y-112457384D01*
X169134631Y-112787585D01*
X169112591Y-113128639D01*
X168141092Y-113128639D01*
X168268817Y-113023817D01*
X168296534Y-112990044D01*
X168870050Y-112416529D01*
X168903817Y-112388817D01*
X168936467Y-112349034D01*
X169014411Y-112254059D01*
X169096589Y-112100314D01*
X169147195Y-111933490D01*
X169154108Y-111863288D01*
X169827893Y-111863288D01*
X170855000Y-112890395D01*
X171882107Y-111863288D01*
X171774274Y-111588662D01*
X171467616Y-111437784D01*
X171137415Y-111349631D01*
X170796361Y-111327591D01*
X170457561Y-111372511D01*
X170134034Y-111482664D01*
X169935726Y-111588662D01*
X169827893Y-111863288D01*
X169154108Y-111863288D01*
X169155611Y-111848037D01*
X169160000Y-111803477D01*
X169160000Y-111803469D01*
X169164281Y-111760000D01*
X169160000Y-111716531D01*
X169160000Y-108316578D01*
X169276579Y-108200000D01*
X181384671Y-108200000D01*
X181532337Y-108420998D01*
X181774002Y-108662663D01*
X182058169Y-108852537D01*
X182341624Y-108969948D01*
X182341546Y-108970000D01*
X173893454Y-108970000D01*
X173845256Y-108937795D01*
X173656898Y-108859774D01*
X173456939Y-108820000D01*
X173253061Y-108820000D01*
X173053102Y-108859774D01*
X172864744Y-108937795D01*
X172695226Y-109051063D01*
X172551063Y-109195226D01*
X172437795Y-109364744D01*
X172359774Y-109553102D01*
X172320000Y-109753061D01*
X172320000Y-109956939D01*
X172359774Y-110156898D01*
X172437795Y-110345256D01*
X172551063Y-110514774D01*
X172695226Y-110658937D01*
X172864744Y-110772205D01*
X173053102Y-110850226D01*
X173253061Y-110890000D01*
X173456939Y-110890000D01*
X173656898Y-110850226D01*
X173845256Y-110772205D01*
X173893454Y-110740000D01*
X182341546Y-110740000D01*
X182389744Y-110772205D01*
X182578102Y-110850226D01*
X182778061Y-110890000D01*
X182981939Y-110890000D01*
X183181898Y-110850226D01*
X183370256Y-110772205D01*
X183539774Y-110658937D01*
X183683937Y-110514774D01*
X183797205Y-110345256D01*
X183875226Y-110156898D01*
X183915000Y-109956939D01*
X183915000Y-109753061D01*
X183875226Y-109553102D01*
X183797205Y-109364744D01*
X183683937Y-109195226D01*
X183539774Y-109051063D01*
X183418376Y-108969948D01*
X183701831Y-108852537D01*
X183985998Y-108662663D01*
X184227663Y-108420998D01*
X184417537Y-108136831D01*
X184548325Y-107821081D01*
X184615000Y-107485883D01*
X184615000Y-107144117D01*
X184548325Y-106808919D01*
X184417537Y-106493169D01*
X184227663Y-106209002D01*
X183985998Y-105967337D01*
X183701831Y-105777463D01*
X183386081Y-105646675D01*
X183050883Y-105580000D01*
X182709117Y-105580000D01*
X182373919Y-105646675D01*
X182058169Y-105777463D01*
X181774002Y-105967337D01*
X181532337Y-106209002D01*
X181384671Y-106430000D01*
X168953469Y-106430000D01*
X168910000Y-106425719D01*
X168866531Y-106430000D01*
X168866523Y-106430000D01*
X168736510Y-106442805D01*
X168569686Y-106493411D01*
X168415941Y-106575589D01*
X168314953Y-106658468D01*
X168314951Y-106658470D01*
X168281183Y-106686183D01*
X168253470Y-106719951D01*
X167679951Y-107293471D01*
X167646184Y-107321183D01*
X167618471Y-107354951D01*
X167618468Y-107354954D01*
X167535590Y-107455941D01*
X167453412Y-107609687D01*
X167402805Y-107776510D01*
X167385719Y-107950000D01*
X167390001Y-107993479D01*
X167390000Y-111393421D01*
X167273422Y-111510000D01*
X166569378Y-111510000D01*
X166466255Y-111384345D01*
X166249667Y-111206595D01*
X166097013Y-111125000D01*
X166249667Y-111043405D01*
X166466255Y-110865655D01*
X166644005Y-110649067D01*
X166776084Y-110401963D01*
X166857419Y-110133839D01*
X166884882Y-109855000D01*
X166857419Y-109576161D01*
X166776084Y-109308037D01*
X166644005Y-109060933D01*
X166466255Y-108844345D01*
X166249667Y-108666595D01*
X166002563Y-108534516D01*
X165734439Y-108453181D01*
X165525475Y-108432600D01*
X164674525Y-108432600D01*
X164465561Y-108453181D01*
X164197437Y-108534516D01*
X163950333Y-108666595D01*
X163733745Y-108844345D01*
X163555995Y-109060933D01*
X163423916Y-109308037D01*
X163342581Y-109576161D01*
X163315118Y-109855000D01*
X163342581Y-110133839D01*
X163423916Y-110401963D01*
X163555995Y-110649067D01*
X163733745Y-110865655D01*
X163950333Y-111043405D01*
X164102987Y-111125000D01*
X163950333Y-111206595D01*
X163733745Y-111384345D01*
X163555995Y-111600933D01*
X163423916Y-111848037D01*
X163342581Y-112116161D01*
X163315118Y-112395000D01*
X163342581Y-112673839D01*
X163423916Y-112941963D01*
X163555995Y-113189067D01*
X163733745Y-113405655D01*
X163950333Y-113583405D01*
X164102987Y-113665000D01*
X163950333Y-113746595D01*
X163733745Y-113924345D01*
X163630622Y-114050000D01*
X161021579Y-114050000D01*
X160905000Y-113933422D01*
X160905000Y-100868454D01*
X160937205Y-100820256D01*
X161015226Y-100631898D01*
X161050015Y-100457000D01*
X162295000Y-100457000D01*
X162295000Y-100857000D01*
X162349271Y-101154023D01*
X162460446Y-101434751D01*
X162624252Y-101688396D01*
X162834394Y-101905210D01*
X163082796Y-102076862D01*
X163359913Y-102196755D01*
X163465260Y-102221036D01*
X163703000Y-102100378D01*
X163703000Y-100457000D01*
X162295000Y-100457000D01*
X161050015Y-100457000D01*
X161055000Y-100431939D01*
X161055000Y-100228061D01*
X161015226Y-100028102D01*
X160937205Y-99839744D01*
X160912654Y-99803000D01*
X162295000Y-99803000D01*
X162295000Y-100203000D01*
X163703000Y-100203000D01*
X163703000Y-98559622D01*
X163957000Y-98559622D01*
X163957000Y-100203000D01*
X163977000Y-100203000D01*
X163977000Y-100457000D01*
X163957000Y-100457000D01*
X163957000Y-102100378D01*
X164194740Y-102221036D01*
X164300087Y-102196755D01*
X164577204Y-102076862D01*
X164825606Y-101905210D01*
X165035748Y-101688396D01*
X165095219Y-101596309D01*
X165279339Y-101820661D01*
X165513074Y-102012481D01*
X165779740Y-102155017D01*
X166069088Y-102242790D01*
X166370000Y-102272427D01*
X166670913Y-102242790D01*
X166960261Y-102155017D01*
X167226927Y-102012481D01*
X167460661Y-101820661D01*
X167640000Y-101602135D01*
X167819339Y-101820661D01*
X168053074Y-102012481D01*
X168319740Y-102155017D01*
X168609088Y-102242790D01*
X168910000Y-102272427D01*
X169210913Y-102242790D01*
X169500261Y-102155017D01*
X169766927Y-102012481D01*
X170000661Y-101820661D01*
X170192481Y-101586927D01*
X170335017Y-101320261D01*
X170422790Y-101030913D01*
X170445000Y-100805407D01*
X170445000Y-100457000D01*
X176265000Y-100457000D01*
X176265000Y-100857000D01*
X176319271Y-101154023D01*
X176430446Y-101434751D01*
X176594252Y-101688396D01*
X176804394Y-101905210D01*
X177052796Y-102076862D01*
X177329913Y-102196755D01*
X177435260Y-102221036D01*
X177673000Y-102100378D01*
X177673000Y-100457000D01*
X176265000Y-100457000D01*
X170445000Y-100457000D01*
X170445000Y-99854592D01*
X170439919Y-99803000D01*
X176265000Y-99803000D01*
X176265000Y-100203000D01*
X177673000Y-100203000D01*
X177673000Y-98559622D01*
X177927000Y-98559622D01*
X177927000Y-100203000D01*
X177947000Y-100203000D01*
X177947000Y-100457000D01*
X177927000Y-100457000D01*
X177927000Y-102100378D01*
X178164740Y-102221036D01*
X178270087Y-102196755D01*
X178547204Y-102076862D01*
X178795606Y-101905210D01*
X179005748Y-101688396D01*
X179065219Y-101596309D01*
X179249339Y-101820661D01*
X179483074Y-102012481D01*
X179749740Y-102155017D01*
X180039088Y-102242790D01*
X180340000Y-102272427D01*
X180640913Y-102242790D01*
X180930261Y-102155017D01*
X181196927Y-102012481D01*
X181430661Y-101820661D01*
X181610000Y-101602135D01*
X181789339Y-101820661D01*
X182023074Y-102012481D01*
X182289740Y-102155017D01*
X182579088Y-102242790D01*
X182880000Y-102272427D01*
X183180913Y-102242790D01*
X183470261Y-102155017D01*
X183736927Y-102012481D01*
X183970661Y-101820661D01*
X184162481Y-101586927D01*
X184305017Y-101320261D01*
X184392790Y-101030913D01*
X184415000Y-100805407D01*
X184415000Y-99854592D01*
X184392790Y-99629087D01*
X184305017Y-99339739D01*
X184162481Y-99073073D01*
X183970661Y-98839339D01*
X183736926Y-98647519D01*
X183470260Y-98504983D01*
X183180912Y-98417210D01*
X182880000Y-98387573D01*
X182579087Y-98417210D01*
X182289739Y-98504983D01*
X182023073Y-98647519D01*
X181789339Y-98839339D01*
X181610000Y-99057865D01*
X181430661Y-98839339D01*
X181196926Y-98647519D01*
X180930260Y-98504983D01*
X180640912Y-98417210D01*
X180340000Y-98387573D01*
X180039087Y-98417210D01*
X179749739Y-98504983D01*
X179483073Y-98647519D01*
X179249339Y-98839339D01*
X179065219Y-99063692D01*
X179005748Y-98971604D01*
X178795606Y-98754790D01*
X178547204Y-98583138D01*
X178270087Y-98463245D01*
X178164740Y-98438964D01*
X177927000Y-98559622D01*
X177673000Y-98559622D01*
X177435260Y-98438964D01*
X177329913Y-98463245D01*
X177052796Y-98583138D01*
X176804394Y-98754790D01*
X176594252Y-98971604D01*
X176430446Y-99225249D01*
X176319271Y-99505977D01*
X176265000Y-99803000D01*
X170439919Y-99803000D01*
X170422790Y-99629087D01*
X170335017Y-99339739D01*
X170192481Y-99073073D01*
X170000661Y-98839339D01*
X169766926Y-98647519D01*
X169500260Y-98504983D01*
X169210912Y-98417210D01*
X168910000Y-98387573D01*
X168609087Y-98417210D01*
X168319739Y-98504983D01*
X168053073Y-98647519D01*
X167819339Y-98839339D01*
X167640000Y-99057865D01*
X167460661Y-98839339D01*
X167226926Y-98647519D01*
X166960260Y-98504983D01*
X166670912Y-98417210D01*
X166370000Y-98387573D01*
X166069087Y-98417210D01*
X165779739Y-98504983D01*
X165513073Y-98647519D01*
X165279339Y-98839339D01*
X165095219Y-99063692D01*
X165035748Y-98971604D01*
X164825606Y-98754790D01*
X164577204Y-98583138D01*
X164300087Y-98463245D01*
X164194740Y-98438964D01*
X163957000Y-98559622D01*
X163703000Y-98559622D01*
X163465260Y-98438964D01*
X163359913Y-98463245D01*
X163082796Y-98583138D01*
X162834394Y-98754790D01*
X162624252Y-98971604D01*
X162460446Y-99225249D01*
X162349271Y-99505977D01*
X162295000Y-99803000D01*
X160912654Y-99803000D01*
X160823937Y-99670226D01*
X160679774Y-99526063D01*
X160510256Y-99412795D01*
X160321898Y-99334774D01*
X160121939Y-99295000D01*
X159918061Y-99295000D01*
X159718102Y-99334774D01*
X159529744Y-99412795D01*
X159360226Y-99526063D01*
X159216063Y-99670226D01*
X159102795Y-99839744D01*
X159024774Y-100028102D01*
X158985000Y-100228061D01*
X158985000Y-100431939D01*
X159024774Y-100631898D01*
X159102795Y-100820256D01*
X159135000Y-100868454D01*
X159135001Y-108690519D01*
X159074185Y-108616415D01*
X158977494Y-108537063D01*
X158867180Y-108478098D01*
X158747482Y-108441788D01*
X158623000Y-108429528D01*
X156337000Y-108429528D01*
X156212518Y-108441788D01*
X156092820Y-108478098D01*
X155982506Y-108537063D01*
X155885815Y-108616415D01*
X155806463Y-108713106D01*
X155747498Y-108823420D01*
X155711188Y-108943118D01*
X155698928Y-109067600D01*
X155698928Y-110642400D01*
X155711188Y-110766882D01*
X155747498Y-110886580D01*
X155806463Y-110996894D01*
X155885815Y-111093585D01*
X155982506Y-111172937D01*
X156092820Y-111231902D01*
X156212518Y-111268212D01*
X156250674Y-111271970D01*
X156113745Y-111384345D01*
X155935995Y-111600933D01*
X155803916Y-111848037D01*
X155722581Y-112116161D01*
X155695118Y-112395000D01*
X154712233Y-112395000D01*
X154444463Y-112216082D01*
X154146912Y-112092832D01*
X153831033Y-112030000D01*
X153508967Y-112030000D01*
X153193088Y-112092832D01*
X152895537Y-112216082D01*
X152627748Y-112395013D01*
X152400013Y-112622748D01*
X152221082Y-112890537D01*
X152097832Y-113188088D01*
X152035000Y-113503967D01*
X144495000Y-113503967D01*
X144495000Y-112319775D01*
X144469895Y-112064881D01*
X144370686Y-111737832D01*
X144209579Y-111436422D01*
X143992766Y-111172234D01*
X143728577Y-110955421D01*
X143427167Y-110794314D01*
X143100118Y-110695105D01*
X142760000Y-110661606D01*
X142419881Y-110695105D01*
X142092832Y-110794314D01*
X141791422Y-110955421D01*
X141779755Y-110964995D01*
X141769895Y-110864881D01*
X141670686Y-110537832D01*
X141509579Y-110236422D01*
X141292766Y-109972234D01*
X141028577Y-109755421D01*
X140727167Y-109594314D01*
X140400118Y-109495105D01*
X140060000Y-109461606D01*
X139719881Y-109495105D01*
X139392832Y-109594314D01*
X139091422Y-109755421D01*
X138827234Y-109972234D01*
X138610421Y-110236423D01*
X138449314Y-110537833D01*
X138350105Y-110864882D01*
X138325000Y-111119776D01*
X120900000Y-111119776D01*
X120900000Y-101880041D01*
X120924394Y-101905210D01*
X121172796Y-102076862D01*
X121449913Y-102196755D01*
X121555260Y-102221036D01*
X121793000Y-102100378D01*
X121793000Y-100457000D01*
X121773000Y-100457000D01*
X121773000Y-100203000D01*
X121793000Y-100203000D01*
X121793000Y-98559622D01*
X122047000Y-98559622D01*
X122047000Y-100203000D01*
X122067000Y-100203000D01*
X122067000Y-100457000D01*
X122047000Y-100457000D01*
X122047000Y-102100378D01*
X122284740Y-102221036D01*
X122390087Y-102196755D01*
X122667204Y-102076862D01*
X122915606Y-101905210D01*
X123125748Y-101688396D01*
X123185219Y-101596309D01*
X123369339Y-101820661D01*
X123603074Y-102012481D01*
X123869740Y-102155017D01*
X124159088Y-102242790D01*
X124460000Y-102272427D01*
X124760913Y-102242790D01*
X125050261Y-102155017D01*
X125316927Y-102012481D01*
X125550661Y-101820661D01*
X125730000Y-101602135D01*
X125909339Y-101820661D01*
X126143074Y-102012481D01*
X126409740Y-102155017D01*
X126699088Y-102242790D01*
X127000000Y-102272427D01*
X127300913Y-102242790D01*
X127590261Y-102155017D01*
X127856927Y-102012481D01*
X128090661Y-101820661D01*
X128282481Y-101586927D01*
X128425017Y-101320261D01*
X128512790Y-101030913D01*
X128535000Y-100805407D01*
X128535000Y-99854592D01*
X128512790Y-99629087D01*
X128425017Y-99339739D01*
X128282481Y-99073073D01*
X128090661Y-98839339D01*
X127856926Y-98647519D01*
X127590260Y-98504983D01*
X127300912Y-98417210D01*
X127000000Y-98387573D01*
X126699087Y-98417210D01*
X126409739Y-98504983D01*
X126143073Y-98647519D01*
X125909339Y-98839339D01*
X125730000Y-99057865D01*
X125550661Y-98839339D01*
X125316926Y-98647519D01*
X125050260Y-98504983D01*
X124760912Y-98417210D01*
X124460000Y-98387573D01*
X124159087Y-98417210D01*
X123869739Y-98504983D01*
X123603073Y-98647519D01*
X123369339Y-98839339D01*
X123185219Y-99063692D01*
X123125748Y-98971604D01*
X122915606Y-98754790D01*
X122667204Y-98583138D01*
X122390087Y-98463245D01*
X122284740Y-98438964D01*
X122047000Y-98559622D01*
X121793000Y-98559622D01*
X121555260Y-98438964D01*
X121449913Y-98463245D01*
X121172796Y-98583138D01*
X120964508Y-98727070D01*
X122515050Y-97176529D01*
X122548817Y-97148817D01*
X122576533Y-97115046D01*
X122659411Y-97014059D01*
X122741588Y-96860314D01*
X122741589Y-96860313D01*
X122792195Y-96693490D01*
X122805000Y-96563477D01*
X122805000Y-96563469D01*
X122809281Y-96520000D01*
X122805000Y-96476531D01*
X122805000Y-83088250D01*
X122922463Y-83371831D01*
X123112337Y-83655998D01*
X123354002Y-83897663D01*
X123638169Y-84087537D01*
X123953919Y-84218325D01*
X124289117Y-84285000D01*
X124630883Y-84285000D01*
X124966081Y-84218325D01*
X125281831Y-84087537D01*
X125565998Y-83897663D01*
X125807663Y-83655998D01*
X125997537Y-83371831D01*
X126128325Y-83056081D01*
X126195000Y-82720883D01*
X126195000Y-82379117D01*
X126128325Y-82043919D01*
X125997537Y-81728169D01*
X125807663Y-81444002D01*
X125623341Y-81259680D01*
X125915625Y-81259680D01*
X126279741Y-81187253D01*
X126622731Y-81045182D01*
X126931413Y-80838926D01*
X127193926Y-80576413D01*
X127400182Y-80267731D01*
X127542253Y-79924741D01*
X127614680Y-79560625D01*
X127614680Y-79189375D01*
X127542253Y-78825259D01*
X127416384Y-78521384D01*
X127720259Y-78647253D01*
X128084375Y-78719680D01*
X128455625Y-78719680D01*
X128819741Y-78647253D01*
X129162731Y-78505182D01*
X129471413Y-78298926D01*
X129733926Y-78036413D01*
X129940182Y-77727731D01*
X130082253Y-77384741D01*
X130154680Y-77020625D01*
X130154680Y-76649375D01*
X130082253Y-76285259D01*
X129940182Y-75942269D01*
X129733926Y-75633587D01*
X129471413Y-75371074D01*
X129162731Y-75164818D01*
X128819741Y-75022747D01*
X128455625Y-74950320D01*
X128084375Y-74950320D01*
X127720259Y-75022747D01*
X127384937Y-75161642D01*
X129500051Y-73046528D01*
X129533817Y-73018817D01*
X129600994Y-72936963D01*
X129644411Y-72884059D01*
X129726588Y-72730314D01*
X129726589Y-72730313D01*
X129777195Y-72563490D01*
X129790000Y-72433477D01*
X129790000Y-72433469D01*
X129794281Y-72390000D01*
X129790000Y-72346531D01*
X129790000Y-66406578D01*
X129906579Y-66290000D01*
X136058985Y-66290000D01*
X136026188Y-66398118D01*
X136023540Y-66425000D01*
X132123469Y-66425000D01*
X132080000Y-66420719D01*
X132036531Y-66425000D01*
X132036523Y-66425000D01*
X131906510Y-66437805D01*
X131739686Y-66488411D01*
X131585941Y-66570589D01*
X131484953Y-66653468D01*
X131484951Y-66653470D01*
X131451183Y-66681183D01*
X131423470Y-66714951D01*
X130849956Y-67288466D01*
X130816183Y-67316183D01*
X130705589Y-67450942D01*
X130623411Y-67604688D01*
X130572805Y-67771511D01*
X130560000Y-67901524D01*
X130560000Y-67901531D01*
X130555719Y-67945000D01*
X130560000Y-67988469D01*
X130560001Y-88533420D01*
X130443422Y-88650000D01*
X127043469Y-88650000D01*
X127000000Y-88645719D01*
X126956531Y-88650000D01*
X126956523Y-88650000D01*
X126826510Y-88662805D01*
X126659686Y-88713411D01*
X126505941Y-88795589D01*
X126404953Y-88878468D01*
X126404951Y-88878470D01*
X126371183Y-88906183D01*
X126343470Y-88939951D01*
X125769956Y-89513466D01*
X125736183Y-89541183D01*
X125625589Y-89675942D01*
X125543411Y-89829688D01*
X125492805Y-89996511D01*
X125480000Y-90126524D01*
X125480000Y-90126531D01*
X125475719Y-90170000D01*
X125480000Y-90213469D01*
X125480001Y-96476521D01*
X125475719Y-96520000D01*
X125492805Y-96693490D01*
X125543412Y-96860313D01*
X125625590Y-97014059D01*
X125708468Y-97115046D01*
X125708469Y-97115047D01*
X125736184Y-97148817D01*
X125769952Y-97176530D01*
X126170967Y-97577545D01*
X126198684Y-97611318D01*
X126333442Y-97721912D01*
X126487188Y-97804090D01*
X126654011Y-97854696D01*
X126784024Y-97867501D01*
X126784034Y-97867501D01*
X126827500Y-97871782D01*
X126870966Y-97867501D01*
X131195000Y-97867501D01*
X131195001Y-107724671D01*
X130974002Y-107872337D01*
X130732337Y-108114002D01*
X130542463Y-108398169D01*
X130411675Y-108713919D01*
X130345000Y-109049117D01*
X130345000Y-109390883D01*
X130411675Y-109726081D01*
X130542463Y-110041831D01*
X130732337Y-110325998D01*
X130974002Y-110567663D01*
X131258169Y-110757537D01*
X131573919Y-110888325D01*
X131909117Y-110955000D01*
X132250883Y-110955000D01*
X132586081Y-110888325D01*
X132901831Y-110757537D01*
X133185998Y-110567663D01*
X133326949Y-110426712D01*
X134862893Y-110426712D01*
X134970726Y-110701338D01*
X135277384Y-110852216D01*
X135607585Y-110940369D01*
X135948639Y-110962409D01*
X136287439Y-110917489D01*
X136610966Y-110807336D01*
X136809274Y-110701338D01*
X136917107Y-110426712D01*
X135890000Y-109399605D01*
X134862893Y-110426712D01*
X133326949Y-110426712D01*
X133427663Y-110325998D01*
X133617537Y-110041831D01*
X133748325Y-109726081D01*
X133815000Y-109390883D01*
X133815000Y-109278639D01*
X134147591Y-109278639D01*
X134192511Y-109617439D01*
X134302664Y-109940966D01*
X134408662Y-110139274D01*
X134683288Y-110247107D01*
X135710395Y-109220000D01*
X136069605Y-109220000D01*
X137096712Y-110247107D01*
X137371338Y-110139274D01*
X137522216Y-109832616D01*
X137610369Y-109502415D01*
X137632409Y-109161361D01*
X137598420Y-108905000D01*
X146716606Y-108905000D01*
X146750105Y-109245119D01*
X146849314Y-109572168D01*
X147010421Y-109873578D01*
X147227234Y-110137766D01*
X147491422Y-110354579D01*
X147792832Y-110515686D01*
X148119881Y-110614895D01*
X148374775Y-110640000D01*
X150345225Y-110640000D01*
X150600119Y-110614895D01*
X150927168Y-110515686D01*
X151228578Y-110354579D01*
X151492766Y-110137766D01*
X151709579Y-109873578D01*
X151870686Y-109572168D01*
X151969895Y-109245119D01*
X152003394Y-108905000D01*
X151969895Y-108564881D01*
X151927150Y-108423967D01*
X152035000Y-108423967D01*
X152035000Y-108746033D01*
X152097832Y-109061912D01*
X152221082Y-109359463D01*
X152400013Y-109627252D01*
X152627748Y-109854987D01*
X152895537Y-110033918D01*
X153193088Y-110157168D01*
X153508967Y-110220000D01*
X153831033Y-110220000D01*
X154146912Y-110157168D01*
X154444463Y-110033918D01*
X154712252Y-109854987D01*
X154939987Y-109627252D01*
X155118918Y-109359463D01*
X155242168Y-109061912D01*
X155305000Y-108746033D01*
X155305000Y-108423967D01*
X155242168Y-108108088D01*
X155118918Y-107810537D01*
X154939987Y-107542748D01*
X154712252Y-107315013D01*
X154444463Y-107136082D01*
X154146912Y-107012832D01*
X153831033Y-106950000D01*
X153508967Y-106950000D01*
X153193088Y-107012832D01*
X152895537Y-107136082D01*
X152627748Y-107315013D01*
X152400013Y-107542748D01*
X152221082Y-107810537D01*
X152097832Y-108108088D01*
X152035000Y-108423967D01*
X151927150Y-108423967D01*
X151870686Y-108237832D01*
X151709579Y-107936422D01*
X151492766Y-107672234D01*
X151228578Y-107455421D01*
X150927168Y-107294314D01*
X150600119Y-107195105D01*
X150345225Y-107170000D01*
X148374775Y-107170000D01*
X148119881Y-107195105D01*
X147792832Y-107294314D01*
X147491422Y-107455421D01*
X147227234Y-107672234D01*
X147010421Y-107936422D01*
X146849314Y-108237832D01*
X146750105Y-108564881D01*
X146716606Y-108905000D01*
X137598420Y-108905000D01*
X137587489Y-108822561D01*
X137477336Y-108499034D01*
X137371338Y-108300726D01*
X137096712Y-108192893D01*
X136069605Y-109220000D01*
X135710395Y-109220000D01*
X134683288Y-108192893D01*
X134408662Y-108300726D01*
X134257784Y-108607384D01*
X134169631Y-108937585D01*
X134147591Y-109278639D01*
X133815000Y-109278639D01*
X133815000Y-109049117D01*
X133748325Y-108713919D01*
X133617537Y-108398169D01*
X133427663Y-108114002D01*
X133326949Y-108013288D01*
X134862893Y-108013288D01*
X135890000Y-109040395D01*
X136917107Y-108013288D01*
X136809274Y-107738662D01*
X136502616Y-107587784D01*
X136172415Y-107499631D01*
X135831361Y-107477591D01*
X135492561Y-107522511D01*
X135169034Y-107632664D01*
X134970726Y-107738662D01*
X134862893Y-108013288D01*
X133326949Y-108013288D01*
X133185998Y-107872337D01*
X132965000Y-107724671D01*
X132965000Y-100457000D01*
X134355000Y-100457000D01*
X134355000Y-100857000D01*
X134409271Y-101154023D01*
X134520446Y-101434751D01*
X134684252Y-101688396D01*
X134894394Y-101905210D01*
X135142796Y-102076862D01*
X135419913Y-102196755D01*
X135525260Y-102221036D01*
X135763000Y-102100378D01*
X135763000Y-100457000D01*
X134355000Y-100457000D01*
X132965000Y-100457000D01*
X132965000Y-99803000D01*
X134355000Y-99803000D01*
X134355000Y-100203000D01*
X135763000Y-100203000D01*
X135763000Y-98559622D01*
X136017000Y-98559622D01*
X136017000Y-100203000D01*
X136037000Y-100203000D01*
X136037000Y-100457000D01*
X136017000Y-100457000D01*
X136017000Y-102100378D01*
X136254740Y-102221036D01*
X136360087Y-102196755D01*
X136637204Y-102076862D01*
X136885606Y-101905210D01*
X137095748Y-101688396D01*
X137155219Y-101596309D01*
X137339339Y-101820661D01*
X137573074Y-102012481D01*
X137839740Y-102155017D01*
X138129088Y-102242790D01*
X138430000Y-102272427D01*
X138730913Y-102242790D01*
X139020261Y-102155017D01*
X139286927Y-102012481D01*
X139520661Y-101820661D01*
X139700000Y-101602135D01*
X139879339Y-101820661D01*
X140113074Y-102012481D01*
X140379740Y-102155017D01*
X140669088Y-102242790D01*
X140970000Y-102272427D01*
X141270913Y-102242790D01*
X141560261Y-102155017D01*
X141826927Y-102012481D01*
X142060661Y-101820661D01*
X142252481Y-101586927D01*
X142395017Y-101320261D01*
X142482790Y-101030913D01*
X142505000Y-100805407D01*
X142505000Y-100457000D01*
X148325000Y-100457000D01*
X148325000Y-100857000D01*
X148379271Y-101154023D01*
X148490446Y-101434751D01*
X148654252Y-101688396D01*
X148864394Y-101905210D01*
X149112796Y-102076862D01*
X149389913Y-102196755D01*
X149495260Y-102221036D01*
X149733000Y-102100378D01*
X149733000Y-100457000D01*
X148325000Y-100457000D01*
X142505000Y-100457000D01*
X142505000Y-99854592D01*
X142499919Y-99803000D01*
X148325000Y-99803000D01*
X148325000Y-100203000D01*
X149733000Y-100203000D01*
X149733000Y-98559622D01*
X149987000Y-98559622D01*
X149987000Y-100203000D01*
X150007000Y-100203000D01*
X150007000Y-100457000D01*
X149987000Y-100457000D01*
X149987000Y-102100378D01*
X150224740Y-102221036D01*
X150330087Y-102196755D01*
X150607204Y-102076862D01*
X150855606Y-101905210D01*
X151065748Y-101688396D01*
X151125219Y-101596309D01*
X151309339Y-101820661D01*
X151543074Y-102012481D01*
X151809740Y-102155017D01*
X152099088Y-102242790D01*
X152400000Y-102272427D01*
X152700913Y-102242790D01*
X152990261Y-102155017D01*
X153256927Y-102012481D01*
X153490661Y-101820661D01*
X153670000Y-101602135D01*
X153849339Y-101820661D01*
X154083074Y-102012481D01*
X154349740Y-102155017D01*
X154639088Y-102242790D01*
X154940000Y-102272427D01*
X155240913Y-102242790D01*
X155530261Y-102155017D01*
X155796927Y-102012481D01*
X156030661Y-101820661D01*
X156222481Y-101586927D01*
X156365017Y-101320261D01*
X156452790Y-101030913D01*
X156475000Y-100805407D01*
X156475000Y-99854592D01*
X156452790Y-99629087D01*
X156365017Y-99339739D01*
X156222481Y-99073073D01*
X156030661Y-98839339D01*
X155796926Y-98647519D01*
X155530260Y-98504983D01*
X155240912Y-98417210D01*
X154940000Y-98387573D01*
X154639087Y-98417210D01*
X154349739Y-98504983D01*
X154083073Y-98647519D01*
X153849339Y-98839339D01*
X153670000Y-99057865D01*
X153490661Y-98839339D01*
X153256926Y-98647519D01*
X152990260Y-98504983D01*
X152700912Y-98417210D01*
X152400000Y-98387573D01*
X152099087Y-98417210D01*
X151809739Y-98504983D01*
X151543073Y-98647519D01*
X151309339Y-98839339D01*
X151125219Y-99063692D01*
X151065748Y-98971604D01*
X150855606Y-98754790D01*
X150607204Y-98583138D01*
X150330087Y-98463245D01*
X150224740Y-98438964D01*
X149987000Y-98559622D01*
X149733000Y-98559622D01*
X149495260Y-98438964D01*
X149389913Y-98463245D01*
X149112796Y-98583138D01*
X148864394Y-98754790D01*
X148654252Y-98971604D01*
X148490446Y-99225249D01*
X148379271Y-99505977D01*
X148325000Y-99803000D01*
X142499919Y-99803000D01*
X142482790Y-99629087D01*
X142395017Y-99339739D01*
X142252481Y-99073073D01*
X142060661Y-98839339D01*
X141826926Y-98647519D01*
X141560260Y-98504983D01*
X141270912Y-98417210D01*
X140970000Y-98387573D01*
X140669087Y-98417210D01*
X140379739Y-98504983D01*
X140113073Y-98647519D01*
X139879339Y-98839339D01*
X139700000Y-99057865D01*
X139520661Y-98839339D01*
X139286926Y-98647519D01*
X139020260Y-98504983D01*
X138730912Y-98417210D01*
X138430000Y-98387573D01*
X138129087Y-98417210D01*
X137839739Y-98504983D01*
X137573073Y-98647519D01*
X137339339Y-98839339D01*
X137155219Y-99063692D01*
X137095748Y-98971604D01*
X136885606Y-98754790D01*
X136637204Y-98583138D01*
X136360087Y-98463245D01*
X136254740Y-98438964D01*
X136017000Y-98559622D01*
X135763000Y-98559622D01*
X135525260Y-98438964D01*
X135419913Y-98463245D01*
X135142796Y-98583138D01*
X134894394Y-98754790D01*
X134684252Y-98971604D01*
X134520446Y-99225249D01*
X134409271Y-99505977D01*
X134355000Y-99803000D01*
X132965000Y-99803000D01*
X132965000Y-97198465D01*
X132969281Y-97154999D01*
X132965000Y-97111533D01*
X132965000Y-97111523D01*
X132952195Y-96981510D01*
X132901589Y-96814687D01*
X132819411Y-96660941D01*
X132708817Y-96526183D01*
X132675045Y-96498467D01*
X132564033Y-96387455D01*
X132536318Y-96353684D01*
X132401560Y-96243090D01*
X132247814Y-96160912D01*
X132080991Y-96110306D01*
X131950978Y-96097501D01*
X131950970Y-96097501D01*
X131907501Y-96093220D01*
X131864032Y-96097501D01*
X127250000Y-96097501D01*
X127250000Y-94339638D01*
X127486462Y-94693529D01*
X127797771Y-95004838D01*
X128163831Y-95249431D01*
X128570575Y-95417910D01*
X129002372Y-95503800D01*
X129442628Y-95503800D01*
X129874425Y-95417910D01*
X130281169Y-95249431D01*
X130647229Y-95004838D01*
X130958538Y-94693529D01*
X131203131Y-94327469D01*
X131371610Y-93920725D01*
X131445000Y-93551770D01*
X131518390Y-93920725D01*
X131686869Y-94327469D01*
X131931462Y-94693529D01*
X132242771Y-95004838D01*
X132608831Y-95249431D01*
X133015575Y-95417910D01*
X133447372Y-95503800D01*
X133887628Y-95503800D01*
X134319425Y-95417910D01*
X134726169Y-95249431D01*
X135092229Y-95004838D01*
X135403538Y-94693529D01*
X135648131Y-94327469D01*
X135816610Y-93920725D01*
X135902500Y-93488928D01*
X135902500Y-93048672D01*
X140957500Y-93048672D01*
X140957500Y-93488928D01*
X141043390Y-93920725D01*
X141211869Y-94327469D01*
X141456462Y-94693529D01*
X141767771Y-95004838D01*
X142133831Y-95249431D01*
X142540575Y-95417910D01*
X142972372Y-95503800D01*
X143412628Y-95503800D01*
X143844425Y-95417910D01*
X144251169Y-95249431D01*
X144617229Y-95004838D01*
X144928538Y-94693529D01*
X145173131Y-94327469D01*
X145341610Y-93920725D01*
X145415000Y-93551770D01*
X145488390Y-93920725D01*
X145656869Y-94327469D01*
X145901462Y-94693529D01*
X146212771Y-95004838D01*
X146578831Y-95249431D01*
X146985575Y-95417910D01*
X147417372Y-95503800D01*
X147857628Y-95503800D01*
X148289425Y-95417910D01*
X148696169Y-95249431D01*
X149062229Y-95004838D01*
X149373538Y-94693529D01*
X149618131Y-94327469D01*
X149786610Y-93920725D01*
X149872500Y-93488928D01*
X149872500Y-93048672D01*
X149786610Y-92616875D01*
X149618131Y-92210131D01*
X149373538Y-91844071D01*
X149219467Y-91690000D01*
X155580533Y-91690000D01*
X155426462Y-91844071D01*
X155181869Y-92210131D01*
X155013390Y-92616875D01*
X154927500Y-93048672D01*
X154927500Y-93488928D01*
X155013390Y-93920725D01*
X155181869Y-94327469D01*
X155426462Y-94693529D01*
X155737771Y-95004838D01*
X156103831Y-95249431D01*
X156510575Y-95417910D01*
X156942372Y-95503800D01*
X157382628Y-95503800D01*
X157814425Y-95417910D01*
X158221169Y-95249431D01*
X158587229Y-95004838D01*
X158898538Y-94693529D01*
X159143131Y-94327469D01*
X159311610Y-93920725D01*
X159385000Y-93551770D01*
X159458390Y-93920725D01*
X159626869Y-94327469D01*
X159871462Y-94693529D01*
X160182771Y-95004838D01*
X160548831Y-95249431D01*
X160955575Y-95417910D01*
X161387372Y-95503800D01*
X161827628Y-95503800D01*
X162259425Y-95417910D01*
X162666169Y-95249431D01*
X163032229Y-95004838D01*
X163343538Y-94693529D01*
X163588131Y-94327469D01*
X163756610Y-93920725D01*
X163842500Y-93488928D01*
X163842500Y-93048672D01*
X168897500Y-93048672D01*
X168897500Y-93488928D01*
X168983390Y-93920725D01*
X169151869Y-94327469D01*
X169396462Y-94693529D01*
X169707771Y-95004838D01*
X170073831Y-95249431D01*
X170480575Y-95417910D01*
X170912372Y-95503800D01*
X171352628Y-95503800D01*
X171784425Y-95417910D01*
X172191169Y-95249431D01*
X172557229Y-95004838D01*
X172868538Y-94693529D01*
X173113131Y-94327469D01*
X173281610Y-93920725D01*
X173355000Y-93551770D01*
X173428390Y-93920725D01*
X173596869Y-94327469D01*
X173841462Y-94693529D01*
X174152771Y-95004838D01*
X174518831Y-95249431D01*
X174925575Y-95417910D01*
X175357372Y-95503800D01*
X175797628Y-95503800D01*
X176229425Y-95417910D01*
X176636169Y-95249431D01*
X177002229Y-95004838D01*
X177313538Y-94693529D01*
X177558131Y-94327469D01*
X177726610Y-93920725D01*
X177812500Y-93488928D01*
X177812500Y-93048672D01*
X177726610Y-92616875D01*
X177558131Y-92210131D01*
X177313538Y-91844071D01*
X177002229Y-91532762D01*
X176636169Y-91288169D01*
X176229425Y-91119690D01*
X175797628Y-91033800D01*
X175357372Y-91033800D01*
X174925575Y-91119690D01*
X174518831Y-91288169D01*
X174152771Y-91532762D01*
X173841462Y-91844071D01*
X173596869Y-92210131D01*
X173428390Y-92616875D01*
X173355000Y-92985830D01*
X173281610Y-92616875D01*
X173113131Y-92210131D01*
X172868538Y-91844071D01*
X172557229Y-91532762D01*
X172191169Y-91288169D01*
X171784425Y-91119690D01*
X171352628Y-91033800D01*
X170912372Y-91033800D01*
X170480575Y-91119690D01*
X170073831Y-91288169D01*
X169707771Y-91532762D01*
X169396462Y-91844071D01*
X169151869Y-92210131D01*
X168983390Y-92616875D01*
X168897500Y-93048672D01*
X163842500Y-93048672D01*
X163756610Y-92616875D01*
X163588131Y-92210131D01*
X163343538Y-91844071D01*
X163189467Y-91690000D01*
X165831546Y-91690000D01*
X165879744Y-91722205D01*
X166068102Y-91800226D01*
X166268061Y-91840000D01*
X166471939Y-91840000D01*
X166671898Y-91800226D01*
X166860256Y-91722205D01*
X167029774Y-91608937D01*
X167173937Y-91464774D01*
X167287205Y-91295256D01*
X167365226Y-91106898D01*
X167405000Y-90906939D01*
X167405000Y-90703061D01*
X167365226Y-90503102D01*
X167287205Y-90314744D01*
X167173937Y-90145226D01*
X167029774Y-90001063D01*
X166860256Y-89887795D01*
X166671898Y-89809774D01*
X166547350Y-89785000D01*
X179801546Y-89785000D01*
X179849744Y-89817205D01*
X180038102Y-89895226D01*
X180238061Y-89935000D01*
X180441939Y-89935000D01*
X180641898Y-89895226D01*
X180830256Y-89817205D01*
X180999774Y-89703937D01*
X181143937Y-89559774D01*
X181257205Y-89390256D01*
X181335226Y-89201898D01*
X181375000Y-89001939D01*
X181375000Y-88798061D01*
X181335226Y-88598102D01*
X181257205Y-88409744D01*
X181143937Y-88240226D01*
X180999774Y-88096063D01*
X180830256Y-87982795D01*
X180641898Y-87904774D01*
X180441939Y-87865000D01*
X180238061Y-87865000D01*
X180038102Y-87904774D01*
X179849744Y-87982795D01*
X179801546Y-88015000D01*
X157383454Y-88015000D01*
X157335256Y-87982795D01*
X157146898Y-87904774D01*
X156946939Y-87865000D01*
X156743061Y-87865000D01*
X156543102Y-87904774D01*
X156354744Y-87982795D01*
X156185226Y-88096063D01*
X156041063Y-88240226D01*
X155927795Y-88409744D01*
X155849774Y-88598102D01*
X155810000Y-88798061D01*
X155810000Y-89001939D01*
X155849774Y-89201898D01*
X155927795Y-89390256D01*
X156041063Y-89559774D01*
X156185226Y-89703937D01*
X156354744Y-89817205D01*
X156543102Y-89895226D01*
X156667650Y-89920000D01*
X144515549Y-89920000D01*
X144505226Y-89868102D01*
X144427205Y-89679744D01*
X144313937Y-89510226D01*
X144169774Y-89366063D01*
X144000256Y-89252795D01*
X143811898Y-89174774D01*
X143611939Y-89135000D01*
X143408061Y-89135000D01*
X143208102Y-89174774D01*
X143019744Y-89252795D01*
X142850226Y-89366063D01*
X142706063Y-89510226D01*
X142592795Y-89679744D01*
X142514774Y-89868102D01*
X142475000Y-90068061D01*
X142475000Y-90271939D01*
X142514774Y-90471898D01*
X142592795Y-90660256D01*
X142706063Y-90829774D01*
X142850226Y-90973937D01*
X142947286Y-91038790D01*
X142540575Y-91119690D01*
X142133831Y-91288169D01*
X141767771Y-91532762D01*
X141456462Y-91844071D01*
X141211869Y-92210131D01*
X141043390Y-92616875D01*
X140957500Y-93048672D01*
X135902500Y-93048672D01*
X135816610Y-92616875D01*
X135648131Y-92210131D01*
X135403538Y-91844071D01*
X135092229Y-91532762D01*
X134726169Y-91288169D01*
X134319425Y-91119690D01*
X133887628Y-91033800D01*
X133447372Y-91033800D01*
X133015575Y-91119690D01*
X132608831Y-91288169D01*
X132242771Y-91532762D01*
X131931462Y-91844071D01*
X131686869Y-92210131D01*
X131518390Y-92616875D01*
X131445000Y-92985830D01*
X131371610Y-92616875D01*
X131203131Y-92210131D01*
X130958538Y-91844071D01*
X130647229Y-91532762D01*
X130281169Y-91288169D01*
X129874425Y-91119690D01*
X129442628Y-91033800D01*
X129002372Y-91033800D01*
X128570575Y-91119690D01*
X128163831Y-91288169D01*
X127797771Y-91532762D01*
X127486462Y-91844071D01*
X127250000Y-92197962D01*
X127250000Y-90536578D01*
X127366579Y-90420000D01*
X130766531Y-90420000D01*
X130810000Y-90424281D01*
X130853469Y-90420000D01*
X130853477Y-90420000D01*
X130983490Y-90407195D01*
X131150313Y-90356589D01*
X131304059Y-90274411D01*
X131438817Y-90163817D01*
X131466534Y-90130044D01*
X132040049Y-89556530D01*
X132073817Y-89528817D01*
X132169022Y-89412811D01*
X132184411Y-89394059D01*
X132266589Y-89240314D01*
X132317195Y-89073490D01*
X132330000Y-88943477D01*
X132330000Y-88943469D01*
X132334281Y-88900000D01*
X132330000Y-88856531D01*
X132330000Y-68311578D01*
X132446579Y-68195000D01*
X136023540Y-68195000D01*
X136026188Y-68221882D01*
X136062498Y-68341580D01*
X136121463Y-68451894D01*
X136200815Y-68548585D01*
X136297506Y-68627937D01*
X136407820Y-68686902D01*
X136527518Y-68723212D01*
X136565674Y-68726970D01*
X136428745Y-68839345D01*
X136250995Y-69055933D01*
X136118916Y-69303037D01*
X136037581Y-69571161D01*
X136010118Y-69850000D01*
X136037581Y-70128839D01*
X136118916Y-70396963D01*
X136250995Y-70644067D01*
X136428745Y-70860655D01*
X136645333Y-71038405D01*
X136797987Y-71120000D01*
X136645333Y-71201595D01*
X136428745Y-71379345D01*
X136250995Y-71595933D01*
X136118916Y-71843037D01*
X136037581Y-72111161D01*
X136010118Y-72390000D01*
X136037581Y-72668839D01*
X136118916Y-72936963D01*
X136250995Y-73184067D01*
X136428745Y-73400655D01*
X136645333Y-73578405D01*
X136797987Y-73660000D01*
X136645333Y-73741595D01*
X136428745Y-73919345D01*
X136250995Y-74135933D01*
X136118916Y-74383037D01*
X136037581Y-74651161D01*
X136010118Y-74930000D01*
X136037581Y-75208839D01*
X136118916Y-75476963D01*
X136250995Y-75724067D01*
X136428745Y-75940655D01*
X136645333Y-76118405D01*
X136797987Y-76200000D01*
X136645333Y-76281595D01*
X136428745Y-76459345D01*
X136250995Y-76675933D01*
X136118916Y-76923037D01*
X136037581Y-77191161D01*
X136010118Y-77470000D01*
X136037581Y-77748839D01*
X136118916Y-78016963D01*
X136250995Y-78264067D01*
X136428745Y-78480655D01*
X136645333Y-78658405D01*
X136797987Y-78740000D01*
X136645333Y-78821595D01*
X136428745Y-78999345D01*
X136250995Y-79215933D01*
X136118916Y-79463037D01*
X136037581Y-79731161D01*
X136010118Y-80010000D01*
X136037581Y-80288839D01*
X136118916Y-80556963D01*
X136250995Y-80804067D01*
X136428745Y-81020655D01*
X136645333Y-81198405D01*
X136797987Y-81280000D01*
X136645333Y-81361595D01*
X136428745Y-81539345D01*
X136250995Y-81755933D01*
X136118916Y-82003037D01*
X136037581Y-82271161D01*
X136010118Y-82550000D01*
X136037581Y-82828839D01*
X136118916Y-83096963D01*
X136250995Y-83344067D01*
X136428745Y-83560655D01*
X136645333Y-83738405D01*
X136892437Y-83870484D01*
X136910000Y-83875812D01*
X136910000Y-85046531D01*
X136905719Y-85090000D01*
X136910000Y-85133469D01*
X136910000Y-85133476D01*
X136922805Y-85263489D01*
X136973411Y-85430312D01*
X137055589Y-85584058D01*
X137166183Y-85718817D01*
X137199956Y-85746534D01*
X137773470Y-86320049D01*
X137801183Y-86353817D01*
X137834951Y-86381530D01*
X137834953Y-86381532D01*
X137935941Y-86464411D01*
X138089686Y-86546589D01*
X138256510Y-86597195D01*
X138386523Y-86610000D01*
X138386531Y-86610000D01*
X138430000Y-86614281D01*
X138473469Y-86610000D01*
X172041531Y-86610000D01*
X172085000Y-86614281D01*
X172128469Y-86610000D01*
X172128477Y-86610000D01*
X172258490Y-86597195D01*
X172425313Y-86546589D01*
X172579059Y-86464411D01*
X172713817Y-86353817D01*
X172741534Y-86320044D01*
X173315049Y-85746530D01*
X173348817Y-85718817D01*
X173376533Y-85685046D01*
X173459411Y-85584059D01*
X173541589Y-85430314D01*
X173592195Y-85263490D01*
X173595401Y-85230941D01*
X173605000Y-85133477D01*
X173605000Y-85133469D01*
X173609281Y-85090000D01*
X173605000Y-85046531D01*
X173605000Y-84045329D01*
X173825998Y-83897663D01*
X174067663Y-83655998D01*
X174257537Y-83371831D01*
X174388325Y-83056081D01*
X174455000Y-82720883D01*
X174455000Y-82379117D01*
X178605000Y-82379117D01*
X178605000Y-82720883D01*
X178671675Y-83056081D01*
X178802463Y-83371831D01*
X178992337Y-83655998D01*
X179234002Y-83897663D01*
X179518169Y-84087537D01*
X179833919Y-84218325D01*
X180169117Y-84285000D01*
X180510883Y-84285000D01*
X180846081Y-84218325D01*
X181161831Y-84087537D01*
X181445998Y-83897663D01*
X181687663Y-83655998D01*
X181877537Y-83371831D01*
X182008325Y-83056081D01*
X182075000Y-82720883D01*
X182075000Y-82379117D01*
X182008325Y-82043919D01*
X181877537Y-81728169D01*
X181687663Y-81444002D01*
X181445998Y-81202337D01*
X181161831Y-81012463D01*
X180846081Y-80881675D01*
X180510883Y-80815000D01*
X180169117Y-80815000D01*
X179833919Y-80881675D01*
X179518169Y-81012463D01*
X179234002Y-81202337D01*
X178992337Y-81444002D01*
X178802463Y-81728169D01*
X178671675Y-82043919D01*
X178605000Y-82379117D01*
X174455000Y-82379117D01*
X174388325Y-82043919D01*
X174257537Y-81728169D01*
X174067663Y-81444002D01*
X173825998Y-81202337D01*
X173541831Y-81012463D01*
X173226081Y-80881675D01*
X172890883Y-80815000D01*
X172549117Y-80815000D01*
X172213919Y-80881675D01*
X171898169Y-81012463D01*
X171614002Y-81202337D01*
X171372337Y-81444002D01*
X171182463Y-81728169D01*
X171051675Y-82043919D01*
X170985000Y-82379117D01*
X170985000Y-82720883D01*
X171051675Y-83056081D01*
X171182463Y-83371831D01*
X171372337Y-83655998D01*
X171614002Y-83897663D01*
X171835001Y-84045329D01*
X171835001Y-84723421D01*
X171718422Y-84840000D01*
X138796579Y-84840000D01*
X138680000Y-84723422D01*
X138680000Y-84538361D01*
X138722246Y-84525546D01*
X138854275Y-84454974D01*
X138970001Y-84360001D01*
X139010244Y-84310964D01*
X139035651Y-84297384D01*
X139151376Y-84202411D01*
X139175178Y-84173408D01*
X139774014Y-83574573D01*
X139803011Y-83550776D01*
X139833665Y-83513424D01*
X139897984Y-83435052D01*
X139968556Y-83303022D01*
X139988239Y-83238134D01*
X140012013Y-83159761D01*
X140023010Y-83048108D01*
X140023010Y-83048099D01*
X140026686Y-83010776D01*
X140023010Y-82973453D01*
X140023010Y-82126547D01*
X140026686Y-82089224D01*
X140023010Y-82051901D01*
X140023010Y-82051892D01*
X140012013Y-81940239D01*
X139968556Y-81796978D01*
X139946617Y-81755933D01*
X139897984Y-81664948D01*
X139826809Y-81578222D01*
X139803011Y-81549224D01*
X139774012Y-81525425D01*
X139209930Y-80961344D01*
X139339005Y-80804067D01*
X139471084Y-80556963D01*
X139552419Y-80288839D01*
X139579882Y-80010000D01*
X139552419Y-79731161D01*
X139471084Y-79463037D01*
X139339005Y-79215933D01*
X139161255Y-78999345D01*
X138944667Y-78821595D01*
X138792013Y-78740000D01*
X138944667Y-78658405D01*
X139161255Y-78480655D01*
X139339005Y-78264067D01*
X139471084Y-78016963D01*
X139552419Y-77748839D01*
X139579882Y-77470000D01*
X139552419Y-77191161D01*
X139471084Y-76923037D01*
X139339005Y-76675933D01*
X139161255Y-76459345D01*
X138944667Y-76281595D01*
X138792013Y-76200000D01*
X138944667Y-76118405D01*
X139161255Y-75940655D01*
X139339005Y-75724067D01*
X139471084Y-75476963D01*
X139552419Y-75208839D01*
X139579882Y-74930000D01*
X139552419Y-74651161D01*
X139471084Y-74383037D01*
X139339005Y-74135933D01*
X139161255Y-73919345D01*
X138944667Y-73741595D01*
X138792013Y-73660000D01*
X138944667Y-73578405D01*
X139161255Y-73400655D01*
X139339005Y-73184067D01*
X139471084Y-72936963D01*
X139552419Y-72668839D01*
X139579882Y-72390000D01*
X139552419Y-72111161D01*
X139471084Y-71843037D01*
X139339005Y-71595933D01*
X139161255Y-71379345D01*
X138944667Y-71201595D01*
X138792013Y-71120000D01*
X138944667Y-71038405D01*
X139161255Y-70860655D01*
X139339005Y-70644067D01*
X139471084Y-70396963D01*
X139552419Y-70128839D01*
X139579882Y-69850000D01*
X139552419Y-69571161D01*
X139471084Y-69303037D01*
X139339005Y-69055933D01*
X139161255Y-68839345D01*
X139024326Y-68726970D01*
X139062482Y-68723212D01*
X139182180Y-68686902D01*
X139292494Y-68627937D01*
X139389185Y-68548585D01*
X139468537Y-68451894D01*
X139527502Y-68341580D01*
X139563812Y-68221882D01*
X139576072Y-68097400D01*
X139576072Y-66522600D01*
X139563812Y-66398118D01*
X139531015Y-66290000D01*
X150128422Y-66290000D01*
X150245000Y-66406579D01*
X150245001Y-76791521D01*
X150240719Y-76835000D01*
X150257805Y-77008490D01*
X150308412Y-77175313D01*
X150390590Y-77329059D01*
X150473468Y-77430046D01*
X150473471Y-77430049D01*
X150501184Y-77463817D01*
X150534951Y-77491529D01*
X151108470Y-78065049D01*
X151136183Y-78098817D01*
X151169951Y-78126530D01*
X151169953Y-78126532D01*
X151270941Y-78209411D01*
X151424686Y-78291589D01*
X151448873Y-78298926D01*
X151543049Y-78327494D01*
X151668745Y-78480655D01*
X151885333Y-78658405D01*
X152037987Y-78740000D01*
X151885333Y-78821595D01*
X151668745Y-78999345D01*
X151490995Y-79215933D01*
X151358916Y-79463037D01*
X151277581Y-79731161D01*
X151250118Y-80010000D01*
X151277581Y-80288839D01*
X151358916Y-80556963D01*
X151490995Y-80804067D01*
X151668745Y-81020655D01*
X151885333Y-81198405D01*
X152037987Y-81280000D01*
X151885333Y-81361595D01*
X151668745Y-81539345D01*
X151490995Y-81755933D01*
X151358916Y-82003037D01*
X151277581Y-82271161D01*
X151250118Y-82550000D01*
X151277581Y-82828839D01*
X151358916Y-83096963D01*
X151490995Y-83344067D01*
X151668745Y-83560655D01*
X151885333Y-83738405D01*
X152132437Y-83870484D01*
X152400561Y-83951819D01*
X152609525Y-83972400D01*
X153460475Y-83972400D01*
X153669439Y-83951819D01*
X153937563Y-83870484D01*
X154184667Y-83738405D01*
X154401255Y-83560655D01*
X154579005Y-83344067D01*
X154711084Y-83096963D01*
X154792419Y-82828839D01*
X154819882Y-82550000D01*
X154803052Y-82379117D01*
X158285000Y-82379117D01*
X158285000Y-82720883D01*
X158351675Y-83056081D01*
X158482463Y-83371831D01*
X158672337Y-83655998D01*
X158914002Y-83897663D01*
X159198169Y-84087537D01*
X159513919Y-84218325D01*
X159849117Y-84285000D01*
X160190883Y-84285000D01*
X160526081Y-84218325D01*
X160841831Y-84087537D01*
X161125998Y-83897663D01*
X161367663Y-83655998D01*
X161557537Y-83371831D01*
X161688325Y-83056081D01*
X161755000Y-82720883D01*
X161755000Y-82379117D01*
X165905000Y-82379117D01*
X165905000Y-82720883D01*
X165971675Y-83056081D01*
X166102463Y-83371831D01*
X166292337Y-83655998D01*
X166534002Y-83897663D01*
X166818169Y-84087537D01*
X167133919Y-84218325D01*
X167469117Y-84285000D01*
X167810883Y-84285000D01*
X168146081Y-84218325D01*
X168461831Y-84087537D01*
X168745998Y-83897663D01*
X168987663Y-83655998D01*
X169177537Y-83371831D01*
X169308325Y-83056081D01*
X169375000Y-82720883D01*
X169375000Y-82379117D01*
X169308325Y-82043919D01*
X169177537Y-81728169D01*
X168987663Y-81444002D01*
X168745998Y-81202337D01*
X168461831Y-81012463D01*
X168146081Y-80881675D01*
X167810883Y-80815000D01*
X167469117Y-80815000D01*
X167133919Y-80881675D01*
X166818169Y-81012463D01*
X166534002Y-81202337D01*
X166292337Y-81444002D01*
X166102463Y-81728169D01*
X165971675Y-82043919D01*
X165905000Y-82379117D01*
X161755000Y-82379117D01*
X161688325Y-82043919D01*
X161557537Y-81728169D01*
X161367663Y-81444002D01*
X161125998Y-81202337D01*
X160841831Y-81012463D01*
X160526081Y-80881675D01*
X160190883Y-80815000D01*
X159849117Y-80815000D01*
X159513919Y-80881675D01*
X159198169Y-81012463D01*
X158914002Y-81202337D01*
X158672337Y-81444002D01*
X158482463Y-81728169D01*
X158351675Y-82043919D01*
X158285000Y-82379117D01*
X154803052Y-82379117D01*
X154792419Y-82271161D01*
X154711084Y-82003037D01*
X154579005Y-81755933D01*
X154401255Y-81539345D01*
X154184667Y-81361595D01*
X154032013Y-81280000D01*
X154184667Y-81198405D01*
X154401255Y-81020655D01*
X154579005Y-80804067D01*
X154711084Y-80556963D01*
X154792419Y-80288839D01*
X154819882Y-80010000D01*
X154792419Y-79731161D01*
X154711084Y-79463037D01*
X154579005Y-79215933D01*
X154401255Y-78999345D01*
X154184667Y-78821595D01*
X154032013Y-78740000D01*
X154184667Y-78658405D01*
X154401255Y-78480655D01*
X154579005Y-78264067D01*
X154711084Y-78016963D01*
X154792419Y-77748839D01*
X154819882Y-77470000D01*
X154792419Y-77191161D01*
X154711084Y-76923037D01*
X154579005Y-76675933D01*
X154401255Y-76459345D01*
X154184667Y-76281595D01*
X154032013Y-76200000D01*
X154184667Y-76118405D01*
X154401255Y-75940655D01*
X154504378Y-75815000D01*
X160974857Y-75815000D01*
X160889818Y-75942269D01*
X160747747Y-76285259D01*
X160675320Y-76649375D01*
X160675320Y-77020625D01*
X160747747Y-77384741D01*
X160889818Y-77727731D01*
X161096074Y-78036413D01*
X161358587Y-78298926D01*
X161667269Y-78505182D01*
X162010259Y-78647253D01*
X162374375Y-78719680D01*
X162745625Y-78719680D01*
X163109741Y-78647253D01*
X163413616Y-78521384D01*
X163287747Y-78825259D01*
X163215320Y-79189375D01*
X163215320Y-79560625D01*
X163287747Y-79924741D01*
X163429818Y-80267731D01*
X163636074Y-80576413D01*
X163898587Y-80838926D01*
X164207269Y-81045182D01*
X164550259Y-81187253D01*
X164914375Y-81259680D01*
X165285625Y-81259680D01*
X165649741Y-81187253D01*
X165992731Y-81045182D01*
X166301413Y-80838926D01*
X166563926Y-80576413D01*
X166770182Y-80267731D01*
X166912253Y-79924741D01*
X166984680Y-79560625D01*
X166984680Y-79189375D01*
X166912253Y-78825259D01*
X166770182Y-78482269D01*
X166563926Y-78173587D01*
X166538716Y-78148377D01*
X169046229Y-78148377D01*
X169172104Y-78438315D01*
X169504262Y-78604139D01*
X169862387Y-78701975D01*
X170232719Y-78728065D01*
X170601025Y-78681405D01*
X170953151Y-78563789D01*
X171187896Y-78438315D01*
X171313771Y-78148377D01*
X170180000Y-77014605D01*
X169046229Y-78148377D01*
X166538716Y-78148377D01*
X166301413Y-77911074D01*
X165992731Y-77704818D01*
X165649741Y-77562747D01*
X165285625Y-77490320D01*
X164914375Y-77490320D01*
X164550259Y-77562747D01*
X164246384Y-77688616D01*
X164372253Y-77384741D01*
X164444680Y-77020625D01*
X164444680Y-76649375D01*
X164372253Y-76285259D01*
X164230182Y-75942269D01*
X164145143Y-75815000D01*
X168604565Y-75815000D01*
X168576685Y-75827104D01*
X168410861Y-76159262D01*
X168313025Y-76517387D01*
X168286935Y-76887719D01*
X168333595Y-77256025D01*
X168451211Y-77608151D01*
X168576685Y-77842896D01*
X168866623Y-77968771D01*
X170000395Y-76835000D01*
X169986252Y-76820858D01*
X170165858Y-76641252D01*
X170180000Y-76655395D01*
X170194142Y-76641252D01*
X170373748Y-76820858D01*
X170359605Y-76835000D01*
X171493377Y-77968771D01*
X171783315Y-77842896D01*
X171949139Y-77510738D01*
X172046975Y-77152613D01*
X172073065Y-76782281D01*
X172026405Y-76413975D01*
X171908789Y-76061849D01*
X171783315Y-75827104D01*
X171755435Y-75815000D01*
X176214857Y-75815000D01*
X176129818Y-75942269D01*
X175987747Y-76285259D01*
X175915320Y-76649375D01*
X175915320Y-77020625D01*
X175987747Y-77384741D01*
X176113616Y-77688616D01*
X175809741Y-77562747D01*
X175445625Y-77490320D01*
X175074375Y-77490320D01*
X174710259Y-77562747D01*
X174367269Y-77704818D01*
X174058587Y-77911074D01*
X173796074Y-78173587D01*
X173589818Y-78482269D01*
X173447747Y-78825259D01*
X173375320Y-79189375D01*
X173375320Y-79560625D01*
X173447747Y-79924741D01*
X173589818Y-80267731D01*
X173796074Y-80576413D01*
X174058587Y-80838926D01*
X174367269Y-81045182D01*
X174710259Y-81187253D01*
X175074375Y-81259680D01*
X175445625Y-81259680D01*
X175809741Y-81187253D01*
X176152731Y-81045182D01*
X176461413Y-80838926D01*
X176723926Y-80576413D01*
X176930182Y-80267731D01*
X177072253Y-79924741D01*
X177144680Y-79560625D01*
X177144680Y-79189375D01*
X177072253Y-78825259D01*
X176946384Y-78521384D01*
X177250259Y-78647253D01*
X177614375Y-78719680D01*
X177985625Y-78719680D01*
X178349741Y-78647253D01*
X178692731Y-78505182D01*
X179001413Y-78298926D01*
X179263926Y-78036413D01*
X179470182Y-77727731D01*
X179612253Y-77384741D01*
X179684680Y-77020625D01*
X179684680Y-76649375D01*
X179612253Y-76285259D01*
X179470182Y-75942269D01*
X179385143Y-75815000D01*
X186267502Y-75815000D01*
X186267501Y-88650000D01*
X182923469Y-88650000D01*
X182880000Y-88645719D01*
X182836531Y-88650000D01*
X182836523Y-88650000D01*
X182706510Y-88662805D01*
X182539686Y-88713411D01*
X182385941Y-88795589D01*
X182284953Y-88878468D01*
X182284951Y-88878470D01*
X182251183Y-88906183D01*
X182223470Y-88939951D01*
X181649951Y-89513471D01*
X181616184Y-89541183D01*
X181588471Y-89574951D01*
X181588468Y-89574954D01*
X181505590Y-89675941D01*
X181423412Y-89829687D01*
X181372805Y-89996510D01*
X181355719Y-90170000D01*
X181360001Y-90213479D01*
X181360000Y-96476531D01*
X181355719Y-96520000D01*
X181360000Y-96563469D01*
X181360000Y-96563476D01*
X181372805Y-96693489D01*
X181423411Y-96860312D01*
X181505589Y-97014058D01*
X181616183Y-97148817D01*
X181649956Y-97176534D01*
X182050967Y-97577545D01*
X182078684Y-97611318D01*
X182213442Y-97721912D01*
X182367188Y-97804090D01*
X182534011Y-97854696D01*
X182664024Y-97867501D01*
X182664034Y-97867501D01*
X182707500Y-97871782D01*
X182750966Y-97867501D01*
X186150923Y-97867501D01*
X186267502Y-97984081D01*
X186267501Y-111565920D01*
X185688422Y-112145000D01*
X177390329Y-112145000D01*
X177242663Y-111924002D01*
X177000998Y-111682337D01*
X176716831Y-111492463D01*
X176401081Y-111361675D01*
X176065883Y-111295000D01*
X175724117Y-111295000D01*
X175388919Y-111361675D01*
X175073169Y-111492463D01*
X174789002Y-111682337D01*
X174547337Y-111924002D01*
X174357463Y-112208169D01*
X174226675Y-112523919D01*
X174160000Y-112859117D01*
X174160000Y-113200883D01*
X174226675Y-113536081D01*
X174357463Y-113851831D01*
X174547337Y-114135998D01*
X174789002Y-114377663D01*
X175073169Y-114567537D01*
X175388919Y-114698325D01*
X175724117Y-114765000D01*
X176065883Y-114765000D01*
X176401081Y-114698325D01*
X176716831Y-114567537D01*
X177000998Y-114377663D01*
X177242663Y-114135998D01*
X177390329Y-113915000D01*
X181655188Y-113915000D01*
X181398662Y-114015726D01*
X181247784Y-114322384D01*
X181159631Y-114652585D01*
X181137591Y-114993639D01*
X181182511Y-115332439D01*
X181292664Y-115655966D01*
X181398662Y-115854274D01*
X181673288Y-115962107D01*
X182700395Y-114935000D01*
X182686253Y-114920858D01*
X182865858Y-114741253D01*
X182880000Y-114755395D01*
X182894143Y-114741253D01*
X183073748Y-114920858D01*
X183059605Y-114935000D01*
X184086712Y-115962107D01*
X184361338Y-115854274D01*
X184512216Y-115547616D01*
X184600369Y-115217415D01*
X184622409Y-114876361D01*
X184577489Y-114537561D01*
X184467336Y-114214034D01*
X184361338Y-114015726D01*
X184104812Y-113915000D01*
X186011531Y-113915000D01*
X186055000Y-113919281D01*
X186098469Y-113915000D01*
X186098477Y-113915000D01*
X186228490Y-113902195D01*
X186395313Y-113851589D01*
X186549059Y-113769411D01*
X186683817Y-113658817D01*
X186711534Y-113625044D01*
X187198000Y-113138579D01*
X187198000Y-119985020D01*
X186585626Y-121209768D01*
X185979768Y-121815626D01*
X184755020Y-122428000D01*
X166410661Y-122428000D01*
X166447663Y-122390998D01*
X166637537Y-122106831D01*
X166768325Y-121791081D01*
X166835000Y-121455883D01*
X166835000Y-121114117D01*
X166768325Y-120778919D01*
X166637537Y-120463169D01*
X166447663Y-120179002D01*
X166205998Y-119937337D01*
X165921831Y-119747463D01*
X165606081Y-119616675D01*
X165270883Y-119550000D01*
X164929117Y-119550000D01*
X164593919Y-119616675D01*
X164278169Y-119747463D01*
X163994002Y-119937337D01*
X163752337Y-120179002D01*
X163562463Y-120463169D01*
X163431675Y-120778919D01*
X163365000Y-121114117D01*
X163365000Y-121455883D01*
X163431675Y-121791081D01*
X163562463Y-122106831D01*
X163752337Y-122390998D01*
X163789339Y-122428000D01*
X158790661Y-122428000D01*
X158827663Y-122390998D01*
X159017537Y-122106831D01*
X159148325Y-121791081D01*
X159215000Y-121455883D01*
X159215000Y-121114117D01*
X159148325Y-120778919D01*
X159017537Y-120463169D01*
X158827663Y-120179002D01*
X158585998Y-119937337D01*
X158301831Y-119747463D01*
X157986081Y-119616675D01*
X157650883Y-119550000D01*
X157309117Y-119550000D01*
X156973919Y-119616675D01*
X156658169Y-119747463D01*
X156374002Y-119937337D01*
X156132337Y-120179002D01*
X155942463Y-120463169D01*
X155811675Y-120778919D01*
X155745000Y-121114117D01*
X155745000Y-121455883D01*
X155811675Y-121791081D01*
X155942463Y-122106831D01*
X156132337Y-122390998D01*
X156169339Y-122428000D01*
X106074980Y-122428000D01*
X104850232Y-121815626D01*
X104244374Y-121209768D01*
X103632000Y-119985020D01*
X103632000Y-119095852D01*
X103795000Y-119095852D01*
X103795000Y-119664148D01*
X103905869Y-120221523D01*
X104123346Y-120746560D01*
X104439074Y-121219080D01*
X104840920Y-121620926D01*
X105313440Y-121936654D01*
X105838477Y-122154131D01*
X106395852Y-122265000D01*
X106964148Y-122265000D01*
X107521523Y-122154131D01*
X108046560Y-121936654D01*
X108519080Y-121620926D01*
X108920926Y-121219080D01*
X109236654Y-120746560D01*
X109454131Y-120221523D01*
X109527242Y-119853967D01*
X124095000Y-119853967D01*
X124095000Y-120176033D01*
X124157832Y-120491912D01*
X124281082Y-120789463D01*
X124460013Y-121057252D01*
X124687748Y-121284987D01*
X124955537Y-121463918D01*
X125253088Y-121587168D01*
X125568967Y-121650000D01*
X125891033Y-121650000D01*
X126206912Y-121587168D01*
X126504463Y-121463918D01*
X126772252Y-121284987D01*
X126999987Y-121057252D01*
X127000000Y-121057233D01*
X127000013Y-121057252D01*
X127227748Y-121284987D01*
X127495537Y-121463918D01*
X127793088Y-121587168D01*
X128108967Y-121650000D01*
X128431033Y-121650000D01*
X128746912Y-121587168D01*
X129044463Y-121463918D01*
X129312252Y-121284987D01*
X129539987Y-121057252D01*
X129718918Y-120789463D01*
X129838353Y-120501122D01*
X142670825Y-120501122D01*
X142708469Y-120651622D01*
X142846843Y-120963317D01*
X143043367Y-121242027D01*
X143290489Y-121477042D01*
X143578712Y-121659330D01*
X143896959Y-121781886D01*
X144233000Y-121840000D01*
X145133000Y-121840000D01*
X145133000Y-120232000D01*
X145387000Y-120232000D01*
X145387000Y-121840000D01*
X146287000Y-121840000D01*
X146623041Y-121781886D01*
X146941288Y-121659330D01*
X147229511Y-121477042D01*
X147476633Y-121242027D01*
X147673157Y-120963317D01*
X147811531Y-120651622D01*
X147849175Y-120501122D01*
X147731125Y-120232000D01*
X145387000Y-120232000D01*
X145133000Y-120232000D01*
X142788875Y-120232000D01*
X142670825Y-120501122D01*
X129838353Y-120501122D01*
X129842168Y-120491912D01*
X129905000Y-120176033D01*
X129905000Y-119853967D01*
X129876141Y-119708878D01*
X142670825Y-119708878D01*
X142788875Y-119978000D01*
X145133000Y-119978000D01*
X145133000Y-118370000D01*
X145387000Y-118370000D01*
X145387000Y-119978000D01*
X147731125Y-119978000D01*
X147849175Y-119708878D01*
X147811531Y-119558378D01*
X147704246Y-119316712D01*
X169787893Y-119316712D01*
X169895726Y-119591338D01*
X170202384Y-119742216D01*
X170532585Y-119830369D01*
X170873639Y-119852409D01*
X171212439Y-119807489D01*
X171535966Y-119697336D01*
X171734274Y-119591338D01*
X171842107Y-119316712D01*
X170815000Y-118289605D01*
X169787893Y-119316712D01*
X147704246Y-119316712D01*
X147673157Y-119246683D01*
X147476633Y-118967973D01*
X147229511Y-118732958D01*
X146941288Y-118550670D01*
X146623041Y-118428114D01*
X146287000Y-118370000D01*
X145387000Y-118370000D01*
X145133000Y-118370000D01*
X144233000Y-118370000D01*
X143896959Y-118428114D01*
X143578712Y-118550670D01*
X143290489Y-118732958D01*
X143043367Y-118967973D01*
X142846843Y-119246683D01*
X142708469Y-119558378D01*
X142670825Y-119708878D01*
X129876141Y-119708878D01*
X129842168Y-119538088D01*
X129718918Y-119240537D01*
X129539987Y-118972748D01*
X129312252Y-118745013D01*
X129044463Y-118566082D01*
X128746912Y-118442832D01*
X128431033Y-118380000D01*
X128108967Y-118380000D01*
X127793088Y-118442832D01*
X127495537Y-118566082D01*
X127227748Y-118745013D01*
X127000013Y-118972748D01*
X127000000Y-118972767D01*
X126999987Y-118972748D01*
X126772252Y-118745013D01*
X126504463Y-118566082D01*
X126206912Y-118442832D01*
X125891033Y-118380000D01*
X125568967Y-118380000D01*
X125253088Y-118442832D01*
X124955537Y-118566082D01*
X124687748Y-118745013D01*
X124460013Y-118972748D01*
X124281082Y-119240537D01*
X124157832Y-119538088D01*
X124095000Y-119853967D01*
X109527242Y-119853967D01*
X109565000Y-119664148D01*
X109565000Y-119316712D01*
X113907893Y-119316712D01*
X114015726Y-119591338D01*
X114322384Y-119742216D01*
X114652585Y-119830369D01*
X114993639Y-119852409D01*
X115332439Y-119807489D01*
X115655966Y-119697336D01*
X115854274Y-119591338D01*
X115962107Y-119316712D01*
X114935000Y-118289605D01*
X113907893Y-119316712D01*
X109565000Y-119316712D01*
X109565000Y-119095852D01*
X109454131Y-118538477D01*
X109300940Y-118168639D01*
X113192591Y-118168639D01*
X113237511Y-118507439D01*
X113347664Y-118830966D01*
X113453662Y-119029274D01*
X113728288Y-119137107D01*
X114755395Y-118110000D01*
X115114605Y-118110000D01*
X116141712Y-119137107D01*
X116416338Y-119029274D01*
X116567216Y-118722616D01*
X116655369Y-118392415D01*
X116677409Y-118051361D01*
X116662528Y-117939117D01*
X118280000Y-117939117D01*
X118280000Y-118280883D01*
X118346675Y-118616081D01*
X118477463Y-118931831D01*
X118667337Y-119215998D01*
X118909002Y-119457663D01*
X119193169Y-119647537D01*
X119508919Y-119778325D01*
X119844117Y-119845000D01*
X120185883Y-119845000D01*
X120521081Y-119778325D01*
X120836831Y-119647537D01*
X121120998Y-119457663D01*
X121362663Y-119215998D01*
X121552537Y-118931831D01*
X121683325Y-118616081D01*
X121750000Y-118280883D01*
X121750000Y-117939117D01*
X121683325Y-117603919D01*
X121552537Y-117288169D01*
X121362663Y-117004002D01*
X121120998Y-116762337D01*
X120981485Y-116669117D01*
X130345000Y-116669117D01*
X130345000Y-117010883D01*
X130411675Y-117346081D01*
X130542463Y-117661831D01*
X130732337Y-117945998D01*
X130974002Y-118187663D01*
X131258169Y-118377537D01*
X131573919Y-118508325D01*
X131909117Y-118575000D01*
X132250883Y-118575000D01*
X132586081Y-118508325D01*
X132901831Y-118377537D01*
X133185998Y-118187663D01*
X133427663Y-117945998D01*
X133617537Y-117661831D01*
X133748325Y-117346081D01*
X133815000Y-117010883D01*
X133815000Y-116669117D01*
X133748325Y-116333919D01*
X133617537Y-116018169D01*
X133427663Y-115734002D01*
X133185998Y-115492337D01*
X132901831Y-115302463D01*
X132586081Y-115171675D01*
X132250883Y-115105000D01*
X131909117Y-115105000D01*
X131573919Y-115171675D01*
X131258169Y-115302463D01*
X130974002Y-115492337D01*
X130732337Y-115734002D01*
X130542463Y-116018169D01*
X130411675Y-116333919D01*
X130345000Y-116669117D01*
X120981485Y-116669117D01*
X120836831Y-116572463D01*
X120521081Y-116441675D01*
X120185883Y-116375000D01*
X119844117Y-116375000D01*
X119508919Y-116441675D01*
X119193169Y-116572463D01*
X118909002Y-116762337D01*
X118667337Y-117004002D01*
X118477463Y-117288169D01*
X118346675Y-117603919D01*
X118280000Y-117939117D01*
X116662528Y-117939117D01*
X116632489Y-117712561D01*
X116522336Y-117389034D01*
X116416338Y-117190726D01*
X116141712Y-117082893D01*
X115114605Y-118110000D01*
X114755395Y-118110000D01*
X113728288Y-117082893D01*
X113453662Y-117190726D01*
X113302784Y-117497384D01*
X113214631Y-117827585D01*
X113192591Y-118168639D01*
X109300940Y-118168639D01*
X109236654Y-118013440D01*
X108920926Y-117540920D01*
X108519080Y-117139074D01*
X108166202Y-116903288D01*
X113907893Y-116903288D01*
X114935000Y-117930395D01*
X115962107Y-116903288D01*
X115854274Y-116628662D01*
X115547616Y-116477784D01*
X115217415Y-116389631D01*
X114876361Y-116367591D01*
X114537561Y-116412511D01*
X114214034Y-116522664D01*
X114015726Y-116628662D01*
X113907893Y-116903288D01*
X108166202Y-116903288D01*
X108046560Y-116823346D01*
X107521523Y-116605869D01*
X106964148Y-116495000D01*
X106395852Y-116495000D01*
X105838477Y-116605869D01*
X105313440Y-116823346D01*
X104840920Y-117139074D01*
X104439074Y-117540920D01*
X104123346Y-118013440D01*
X103905869Y-118538477D01*
X103795000Y-119095852D01*
X103632000Y-119095852D01*
X103632000Y-114276712D01*
X113947893Y-114276712D01*
X114055726Y-114551338D01*
X114362384Y-114702216D01*
X114692585Y-114790369D01*
X115033639Y-114812409D01*
X115372439Y-114767489D01*
X115695966Y-114657336D01*
X115894274Y-114551338D01*
X116002107Y-114276712D01*
X114975000Y-113249605D01*
X113947893Y-114276712D01*
X103632000Y-114276712D01*
X103632000Y-113128639D01*
X113232591Y-113128639D01*
X113277511Y-113467439D01*
X113387664Y-113790966D01*
X113493662Y-113989274D01*
X113768288Y-114097107D01*
X114795395Y-113070000D01*
X115154605Y-113070000D01*
X116181712Y-114097107D01*
X116456338Y-113989274D01*
X116607216Y-113682616D01*
X116695369Y-113352415D01*
X116717409Y-113011361D01*
X116672489Y-112672561D01*
X116562336Y-112349034D01*
X116456338Y-112150726D01*
X116181712Y-112042893D01*
X115154605Y-113070000D01*
X114795395Y-113070000D01*
X113768288Y-112042893D01*
X113493662Y-112150726D01*
X113342784Y-112457384D01*
X113254631Y-112787585D01*
X113232591Y-113128639D01*
X103632000Y-113128639D01*
X103632000Y-111863288D01*
X113947893Y-111863288D01*
X114975000Y-112890395D01*
X116002107Y-111863288D01*
X115894274Y-111588662D01*
X115587616Y-111437784D01*
X115257415Y-111349631D01*
X114916361Y-111327591D01*
X114577561Y-111372511D01*
X114254034Y-111482664D01*
X114055726Y-111588662D01*
X113947893Y-111863288D01*
X103632000Y-111863288D01*
X103632000Y-100457000D01*
X106415000Y-100457000D01*
X106415000Y-100857000D01*
X106469271Y-101154023D01*
X106580446Y-101434751D01*
X106744252Y-101688396D01*
X106954394Y-101905210D01*
X107202796Y-102076862D01*
X107479913Y-102196755D01*
X107585260Y-102221036D01*
X107823000Y-102100378D01*
X107823000Y-100457000D01*
X106415000Y-100457000D01*
X103632000Y-100457000D01*
X103632000Y-99803000D01*
X106415000Y-99803000D01*
X106415000Y-100203000D01*
X107823000Y-100203000D01*
X107823000Y-98559622D01*
X108077000Y-98559622D01*
X108077000Y-100203000D01*
X108097000Y-100203000D01*
X108097000Y-100457000D01*
X108077000Y-100457000D01*
X108077000Y-102100378D01*
X108314740Y-102221036D01*
X108420087Y-102196755D01*
X108697204Y-102076862D01*
X108945606Y-101905210D01*
X109155748Y-101688396D01*
X109215219Y-101596309D01*
X109399339Y-101820661D01*
X109633074Y-102012481D01*
X109899740Y-102155017D01*
X110189088Y-102242790D01*
X110490000Y-102272427D01*
X110790913Y-102242790D01*
X111080261Y-102155017D01*
X111346927Y-102012481D01*
X111580661Y-101820661D01*
X111760000Y-101602135D01*
X111939339Y-101820661D01*
X112173074Y-102012481D01*
X112439740Y-102155017D01*
X112729088Y-102242790D01*
X113030000Y-102272427D01*
X113330913Y-102242790D01*
X113620261Y-102155017D01*
X113886927Y-102012481D01*
X114120661Y-101820661D01*
X114312481Y-101586927D01*
X114455017Y-101320261D01*
X114542790Y-101030913D01*
X114565000Y-100805407D01*
X114565000Y-99854592D01*
X114542790Y-99629087D01*
X114455017Y-99339739D01*
X114312481Y-99073073D01*
X114120661Y-98839339D01*
X113886926Y-98647519D01*
X113620260Y-98504983D01*
X113330912Y-98417210D01*
X113030000Y-98387573D01*
X112729087Y-98417210D01*
X112439739Y-98504983D01*
X112173073Y-98647519D01*
X111939339Y-98839339D01*
X111760000Y-99057865D01*
X111580661Y-98839339D01*
X111346926Y-98647519D01*
X111080260Y-98504983D01*
X110790912Y-98417210D01*
X110490000Y-98387573D01*
X110189087Y-98417210D01*
X109899739Y-98504983D01*
X109633073Y-98647519D01*
X109399339Y-98839339D01*
X109215219Y-99063692D01*
X109155748Y-98971604D01*
X108945606Y-98754790D01*
X108697204Y-98583138D01*
X108420087Y-98463245D01*
X108314740Y-98438964D01*
X108077000Y-98559622D01*
X107823000Y-98559622D01*
X107585260Y-98438964D01*
X107479913Y-98463245D01*
X107202796Y-98583138D01*
X106954394Y-98754790D01*
X106744252Y-98971604D01*
X106580446Y-99225249D01*
X106469271Y-99505977D01*
X106415000Y-99803000D01*
X103632000Y-99803000D01*
X103632000Y-94050151D01*
X103746869Y-94327469D01*
X103991462Y-94693529D01*
X104302771Y-95004838D01*
X104668831Y-95249431D01*
X105075575Y-95417910D01*
X105507372Y-95503800D01*
X105947628Y-95503800D01*
X106379425Y-95417910D01*
X106786169Y-95249431D01*
X107152229Y-95004838D01*
X107463538Y-94693529D01*
X107708131Y-94327469D01*
X107876610Y-93920725D01*
X107962500Y-93488928D01*
X107962500Y-93048672D01*
X107876610Y-92616875D01*
X107708131Y-92210131D01*
X107463538Y-91844071D01*
X107152229Y-91532762D01*
X106786169Y-91288169D01*
X106379425Y-91119690D01*
X105947628Y-91033800D01*
X105507372Y-91033800D01*
X105075575Y-91119690D01*
X104668831Y-91288169D01*
X104302771Y-91532762D01*
X103991462Y-91844071D01*
X103746869Y-92210131D01*
X103632000Y-92487449D01*
X103632000Y-76649375D01*
X111145320Y-76649375D01*
X111145320Y-77020625D01*
X111217747Y-77384741D01*
X111359818Y-77727731D01*
X111566074Y-78036413D01*
X111828587Y-78298926D01*
X112137269Y-78505182D01*
X112480259Y-78647253D01*
X112844375Y-78719680D01*
X113215625Y-78719680D01*
X113579741Y-78647253D01*
X113883616Y-78521384D01*
X113757747Y-78825259D01*
X113685320Y-79189375D01*
X113685320Y-79560625D01*
X113757747Y-79924741D01*
X113899818Y-80267731D01*
X114106074Y-80576413D01*
X114368587Y-80838926D01*
X114677269Y-81045182D01*
X115020259Y-81187253D01*
X115384375Y-81259680D01*
X115676659Y-81259680D01*
X115492337Y-81444002D01*
X115302463Y-81728169D01*
X115171675Y-82043919D01*
X115105000Y-82379117D01*
X115105000Y-82720883D01*
X115171675Y-83056081D01*
X115302463Y-83371831D01*
X115492337Y-83655998D01*
X115734002Y-83897663D01*
X116018169Y-84087537D01*
X116333919Y-84218325D01*
X116669117Y-84285000D01*
X117010883Y-84285000D01*
X117346081Y-84218325D01*
X117661831Y-84087537D01*
X117945998Y-83897663D01*
X118187663Y-83655998D01*
X118377537Y-83371831D01*
X118508325Y-83056081D01*
X118575000Y-82720883D01*
X118575000Y-82379117D01*
X118508325Y-82043919D01*
X118377537Y-81728169D01*
X118187663Y-81444002D01*
X117945998Y-81202337D01*
X117661831Y-81012463D01*
X117346081Y-80881675D01*
X117010883Y-80815000D01*
X116795339Y-80815000D01*
X117033926Y-80576413D01*
X117240182Y-80267731D01*
X117382253Y-79924741D01*
X117454680Y-79560625D01*
X117454680Y-79189375D01*
X117382253Y-78825259D01*
X117240182Y-78482269D01*
X117033926Y-78173587D01*
X116771413Y-77911074D01*
X116462731Y-77704818D01*
X116119741Y-77562747D01*
X115755625Y-77490320D01*
X115384375Y-77490320D01*
X115020259Y-77562747D01*
X114716384Y-77688616D01*
X114842253Y-77384741D01*
X114914680Y-77020625D01*
X114914680Y-76649375D01*
X114842253Y-76285259D01*
X114700182Y-75942269D01*
X114493926Y-75633587D01*
X114231413Y-75371074D01*
X113922731Y-75164818D01*
X113579741Y-75022747D01*
X113215625Y-74950320D01*
X112844375Y-74950320D01*
X112480259Y-75022747D01*
X112137269Y-75164818D01*
X111828587Y-75371074D01*
X111566074Y-75633587D01*
X111359818Y-75942269D01*
X111217747Y-76285259D01*
X111145320Y-76649375D01*
X103632000Y-76649375D01*
X103632000Y-67025852D01*
X103795000Y-67025852D01*
X103795000Y-67594148D01*
X103905869Y-68151523D01*
X104123346Y-68676560D01*
X104439074Y-69149080D01*
X104840920Y-69550926D01*
X105313440Y-69866654D01*
X105838477Y-70084131D01*
X106395852Y-70195000D01*
X106964148Y-70195000D01*
X107521523Y-70084131D01*
X108046560Y-69866654D01*
X108519080Y-69550926D01*
X108920926Y-69149080D01*
X109236654Y-68676560D01*
X109454131Y-68151523D01*
X109565000Y-67594148D01*
X109565000Y-67025852D01*
X109458288Y-66489375D01*
X113685320Y-66489375D01*
X113685320Y-66860625D01*
X113757747Y-67224741D01*
X113899818Y-67567731D01*
X114106074Y-67876413D01*
X114368587Y-68138926D01*
X114677269Y-68345182D01*
X115020259Y-68487253D01*
X115384375Y-68559680D01*
X115755625Y-68559680D01*
X116119741Y-68487253D01*
X116462731Y-68345182D01*
X116771413Y-68138926D01*
X117033926Y-67876413D01*
X117240182Y-67567731D01*
X117382253Y-67224741D01*
X117454680Y-66860625D01*
X117454680Y-66489375D01*
X123845320Y-66489375D01*
X123845320Y-66860625D01*
X123917747Y-67224741D01*
X124059818Y-67567731D01*
X124266074Y-67876413D01*
X124528587Y-68138926D01*
X124837269Y-68345182D01*
X125180259Y-68487253D01*
X125544375Y-68559680D01*
X125915625Y-68559680D01*
X126279741Y-68487253D01*
X126622731Y-68345182D01*
X126931413Y-68138926D01*
X127193926Y-67876413D01*
X127400182Y-67567731D01*
X127542253Y-67224741D01*
X127614680Y-66860625D01*
X127614680Y-66489375D01*
X127542253Y-66125259D01*
X127400182Y-65782269D01*
X127193926Y-65473587D01*
X126931413Y-65211074D01*
X126622731Y-65004818D01*
X126279741Y-64862747D01*
X125915625Y-64790320D01*
X125544375Y-64790320D01*
X125180259Y-64862747D01*
X124837269Y-65004818D01*
X124528587Y-65211074D01*
X124266074Y-65473587D01*
X124059818Y-65782269D01*
X123917747Y-66125259D01*
X123845320Y-66489375D01*
X117454680Y-66489375D01*
X117382253Y-66125259D01*
X117240182Y-65782269D01*
X117033926Y-65473587D01*
X116771413Y-65211074D01*
X116462731Y-65004818D01*
X116119741Y-64862747D01*
X115755625Y-64790320D01*
X115384375Y-64790320D01*
X115020259Y-64862747D01*
X114677269Y-65004818D01*
X114368587Y-65211074D01*
X114106074Y-65473587D01*
X113899818Y-65782269D01*
X113757747Y-66125259D01*
X113685320Y-66489375D01*
X109458288Y-66489375D01*
X109454131Y-66468477D01*
X109236654Y-65943440D01*
X108920926Y-65470920D01*
X108519080Y-65069074D01*
X108046560Y-64753346D01*
X107521523Y-64535869D01*
X106964148Y-64425000D01*
X106395852Y-64425000D01*
X105838477Y-64535869D01*
X105313440Y-64753346D01*
X104840920Y-65069074D01*
X104439074Y-65470920D01*
X104123346Y-65943440D01*
X103905869Y-66468477D01*
X103795000Y-67025852D01*
X103632000Y-67025852D01*
X103632000Y-66704980D01*
X104244374Y-65480232D01*
X104850232Y-64874374D01*
X106074980Y-64262000D01*
X184755020Y-64262000D01*
X185979768Y-64874374D01*
G37*
%TD.AperFunction*%
%TD*%
M02*
