M48
; DRILL file {KiCad 5.1.9+dfsg1-1+deb11u1} date Tue Sep 13 09:24:32 2022
; FORMAT={-:-/ absolute / inch / decimal}
; #@! TF.CreationDate,2022-09-13T09:24:32+02:00
; #@! TF.GenerationSoftware,Kicad,Pcbnew,5.1.9+dfsg1-1+deb11u1
; #@! TF.FileFunction,Plated,1,2,PTH
FMAT,2
INCH
T1C0.0157
T2C0.0320
T3C0.0394
T4C0.0433
T5C0.0550
T6C0.0551
T7C0.0827
T8C0.1260
%
G90
G05
T1
X5.65Y-3.55
X6.175Y-3.5
X6.3Y-3.95
X6.55Y-3.575
X6.825Y-4.325
X7.1Y-3.5
X7.1Y-3.5
X7.2Y-4.325
T2
X4.6Y-3.25
X4.9Y-3.25
X4.95Y-4.725
X5.05Y-4.725
X5.2Y-4.3
X5.2Y-4.6
X5.35Y-4.3
X5.35Y-4.5
X5.425Y-2.65
X5.425Y-2.75
X5.425Y-2.85
X5.425Y-2.95
X5.425Y-3.05
X5.425Y-3.15
X5.425Y-3.25
X6.025Y-2.65
X6.025Y-2.75
X6.025Y-2.85
X6.025Y-2.95
X6.025Y-3.05
X6.025Y-3.15
X6.025Y-3.25
X6.05Y-4.275
X6.05Y-4.475
X6.2Y-4.325
X6.2Y-4.425
X6.2Y-4.525
X6.2Y-4.625
X6.2Y-4.775
X6.3Y-3.25
X6.5Y-4.325
X6.5Y-4.425
X6.5Y-4.525
X6.5Y-4.625
X6.5Y-4.775
X6.6Y-3.25
X6.8Y-3.25
X7.1Y-3.25
X7.2Y-4.225
X7.2Y-4.525
T3
X4.25Y-3.95
X4.35Y-3.95
X4.45Y-3.95
X4.8Y-3.95
X4.9Y-3.95
X5.0Y-3.95
X5.35Y-3.95
X5.45Y-3.95
X5.55Y-3.95
X5.9Y-3.95
X6.0Y-3.95
X6.1Y-3.95
X6.45Y-3.95
X6.55Y-3.95
X6.65Y-3.95
X7.0Y-3.95
X7.1Y-3.95
X7.2Y-3.95
T4
X4.525Y-4.65
X4.5266Y-4.4516
X4.725Y-4.45
X4.725Y-4.65
X6.725Y-4.65
X6.7266Y-4.4516
X6.925Y-4.45
X6.925Y-4.65
T5
X4.45Y-3.025
X4.55Y-2.625
X4.55Y-3.125
X4.75Y-3.025
X4.95Y-2.625
X4.95Y-3.125
X5.05Y-3.025
X6.4Y-3.025
X6.5Y-2.625
X6.5Y-3.125
X6.7Y-3.025
X6.9Y-2.625
X6.9Y-3.125
X7.0Y-3.025
T6
X5.5142Y-4.4136
X5.6205Y-4.4608
X5.7189Y-4.7285
X5.8803Y-4.2876
X5.9Y-4.575
T7
X4.1625Y-3.672
X4.5375Y-3.672
X4.7125Y-3.672
X5.0875Y-3.672
X5.2625Y-3.672
X5.6375Y-3.672
X5.8125Y-3.672
X6.1875Y-3.672
X6.3625Y-3.672
X6.7375Y-3.672
X6.9125Y-3.672
X7.2875Y-3.672
T8
X4.2Y-2.65
X4.2Y-4.7
X7.25Y-2.65
X7.25Y-4.7
T0
M30
